<?xml version="1.0" standalone="no"?>
<!DOCTYPE svg PUBLIC "-//W3C//DTD SVG 1.1//EN" "http://www.w3.org/Graphics/SVG/1.1/DTD/svg11.dtd" >
<svg xmlns="http://www.w3.org/2000/svg">
<metadata>
This is a custom SVG webfont generated by Font Squirrel.
</metadata>
<defs>
<font id="MlRegular" horiz-adv-x="1107" >
<font-face units-per-em="2048" ascent="1577" descent="-471" />
<missing-glyph horiz-adv-x="471" />
<glyph unicode=" "  horiz-adv-x="471" />
<glyph unicode="&#x09;" horiz-adv-x="471" />
<glyph unicode="&#xa0;" horiz-adv-x="471" />
<glyph unicode="!" horiz-adv-x="591" d="M174 102q0 51 35 86t86 35t87 -34.5t36 -86.5q0 -51 -36 -86.5t-87 -35.5t-86 35.5t-35 86.5zM195 1481h213l-41 -1051h-131z" />
<glyph unicode="&#x22;" horiz-adv-x="786" d="M102 1577h177l-23 -565h-131zM508 1577h176l-22 -565h-132z" />
<glyph unicode="#" horiz-adv-x="1376" d="M82 520l8 121h291l20 293h-290l8 119h291l22 333h172l-22 -333h252l22 333h170l-22 -333h290l-8 -119h-291l-20 -293h291l-9 -121h-290l-23 -334h-170l23 334h-252l-23 -334h-172l23 334h-291zM553 641h252l20 293h-252z" />
<glyph unicode="$" horiz-adv-x="1314" d="M143 324h162q8 -76 51 -129.5t115 -83.5v555q-68 25 -126 53.5t-103 70t-71 97t-26 131.5q0 121 87 215t239 135v205h107v-187q20 2 35.5 3.5t31.5 1.5q14 0 29.5 -1t32.5 -4v187h106v-201q141 -35 223 -115.5t99 -187.5h-166q-18 129 -156 188v-552q68 -25 129.5 -53.5 t107.5 -70.5t73.5 -98.5t27.5 -134.5q0 -123 -91 -219t-247 -135v-234h-106v217q-16 -2 -31 -2h-29h-33q-16 0 -36 2v-217h-107v234q-147 37 -232.5 127t-95.5 203zM309 1018q0 -72 44 -119t118 -82v436q-78 -35 -120 -92t-42 -143zM578 84q18 -2 34 -2h35h27q16 0 33 2v506 l-129 39v-545zM578 778l129 -39v543q-16 2 -32 3t-30 1q-16 0 -32.5 -2t-34.5 -4v-502zM813 109q82 33 128 92t46 147q0 76 -48 123t-126 82v-444z" />
<glyph unicode="%" horiz-adv-x="1798" d="M102 1073v68q0 72 27 133t72 107t107.5 73t131.5 27q72 0 133.5 -27t107.5 -73t72.5 -107.5t26.5 -132.5v-68q0 -70 -26.5 -132t-71.5 -108.5t-106.5 -73t-133.5 -26.5q-70 0 -132 26.5t-108 73t-73 108.5t-27 132zM258 1028q0 -78 53.5 -131t130.5 -53q78 0 130.5 53 t52.5 131v160q0 78 -52.5 130t-130.5 52t-131 -52t-53 -130v-160zM489 2l654 1507l160 -30l-654 -1506zM1018 340v68q0 72 26.5 133t71.5 108t107.5 74t132.5 27q72 0 133 -27t107 -74t73 -108.5t27 -132.5v-68q0 -70 -27 -132.5t-72 -108.5t-106 -72.5t-133 -26.5 q-70 0 -132.5 26.5t-108.5 72.5t-72.5 108.5t-26.5 132.5zM1174 293q0 -78 53 -130t131 -52t130 52t52 130v162q0 78 -52 131t-130 53t-131 -53.5t-53 -130.5v-162z" />
<glyph unicode="&#x26;" horiz-adv-x="1603" d="M166 375q-6 68 12.5 129t55 111.5t91 86t117.5 54.5l-43 39q-92 84 -150.5 173t-58.5 199q0 82 34 145.5t89.5 106.5t127 65.5t149.5 22.5q98 0 178 -34.5t134 -95t76.5 -143.5t4.5 -179h-174q12 61 5 118.5t-34.5 101.5t-78 71.5t-123.5 27.5q-100 0 -165 -59.5 t-65 -149.5q0 -43 12.5 -77.5t34 -66.5t49 -60.5t60.5 -57.5l457 -414v216h184v-209q0 -37 -5 -77t-16 -75l95 -92q41 -41 96 -63.5t119 -26.5q33 -4 57.5 -2t50.5 12v-172q-37 -6 -69 -6q-100 0 -181.5 40t-148.5 103l-82 76q-70 -106 -182.5 -171t-247.5 -65 q-86 0 -167 32t-144.5 85t-105.5 126t-48 155zM344 395q0 -59 23.5 -110.5t61.5 -89t90 -59t112 -21.5q104 0 187 56t120 148l-395 349q-88 -27 -144.5 -101t-54.5 -172z" />
<glyph unicode="'" horiz-adv-x="339" d="M102 1577h177l-23 -565h-131z" />
<glyph unicode="(" horiz-adv-x="559" d="M82 657q0 152 23.5 291t61.5 259t88 215.5t101 154.5h121q-41 -59 -82 -154.5t-72.5 -215.5t-51 -259t-19.5 -291q0 -150 19.5 -290t51 -259.5t72.5 -215t82 -154.5h-121q-51 59 -101 154.5t-88 215t-61.5 259.5t-23.5 290z" />
<glyph unicode=")" horiz-adv-x="559" d="M51 -262q41 59 82 154.5t73 215t51 260t19 289.5q0 152 -19 291t-51 259t-73 215.5t-82 154.5h121q53 -59 102.5 -154.5t87 -215.5t61 -259t23.5 -291q0 -150 -23.5 -290t-61 -259.5t-87 -215t-102.5 -154.5h-121z" />
<glyph unicode="*" horiz-adv-x="1452" d="M123 862v162l469 -6l-238 407l142 80l231 -413l229 413l142 -80l-236 -405l467 4v-162l-467 6l236 -405l-142 -82l-231 416l-229 -416l-142 82l236 405z" />
<glyph unicode="+" horiz-adv-x="1234" d="M123 618v146h412v412h165v-412h412v-146h-412v-411h-165v411h-412z" />
<glyph unicode="," horiz-adv-x="542" d="M82 -301l90 565h197l-136 -565h-151z" />
<glyph unicode="-" horiz-adv-x="843" d="M102 555v152h639v-152h-639z" />
<glyph unicode="." horiz-adv-x="509" d="M123 123q0 51 36 86t87 35t86 -35t35 -86t-35 -87t-86 -36t-87 36t-36 87z" />
<glyph unicode="/" horiz-adv-x="1032" d="M10 -315l848 1943h164l-848 -1943h-164z" />
<glyph unicode="0" horiz-adv-x="1290" d="M133 745q0 178 37 320.5t104.5 241t161.5 150.5t209 52t209 -53t161.5 -151.5t104.5 -239.5t37 -320q0 -180 -37 -322t-104.5 -240.5t-161.5 -150.5t-209 -52t-209 52t-161.5 150.5t-104.5 240.5t-37 322zM301 745q0 -180 29.5 -303t78 -199.5t111 -110.5t125.5 -34 q66 0 127.5 34t109.5 110.5t77.5 199.5t29.5 303q0 178 -29.5 301t-77.5 200t-109.5 111t-127.5 34q-63 0 -125.5 -34t-111 -111t-78 -200t-29.5 -301z" />
<glyph unicode="1" horiz-adv-x="710" d="M92 1108v117q59 0 110.5 20.5t88.5 55t58.5 80.5t21.5 100h125v-1481h-166v1108h-238z" />
<glyph unicode="2" horiz-adv-x="1159" d="M113 0v74q57 47 131.5 114.5t153.5 149.5t155 174t136.5 189.5t97 197.5t36.5 195q0 59 -20.5 111t-56 91t-85 61.5t-106.5 22.5q-74 0 -123 -27.5t-75.5 -72.5t-33 -103.5t6.5 -117.5h-168q-18 94 5 176t76.5 142.5t133.5 95t178 34.5q92 0 172 -31.5t138.5 -87t92 -131 t33.5 -163.5q0 -94 -31.5 -189.5t-84 -186.5t-120 -177t-139 -163t-141 -142.5t-127.5 -114.5h658v-121h-893z" />
<glyph unicode="3" horiz-adv-x="1075" d="M102 139l107 97q47 -51 114.5 -82t145.5 -31q88 0 152.5 33.5t106.5 87t62.5 123t18.5 139.5q-2 68 -22.5 131t-59.5 112.5t-97.5 80t-133.5 30.5q-41 0 -77 -10t-71 -27l-53 68l348 471h-469v121h686v-76l-336 -424q100 -6 182 -48t141.5 -109.5t92.5 -155.5t33 -187 q0 -109 -38 -201t-105.5 -159.5t-159.5 -105t-201 -37.5q-115 0 -208 42.5t-159 116.5z" />
<glyph unicode="4" horiz-adv-x="1294" d="M133 358l322 1123h170l-291 -1002h440v576h170v-576h166v-121h-166v-358h-170v358h-641z" />
<glyph unicode="5" horiz-adv-x="1095" d="M113 139l106 97q47 -51 114.5 -82t145.5 -31q88 0 152.5 33.5t106.5 87t62.5 123t18.5 139.5q-2 68 -22.5 131t-59.5 112.5t-97 80t-134 30.5q-72 0 -132.5 -28.5t-103.5 -77.5h-139l74 729h686v-121h-522l-62 -438q51 29 102.5 44t96.5 15q106 0 194 -40t150.5 -107.5 t97.5 -158.5t35 -194q0 -109 -38 -201t-105.5 -159.5t-159.5 -105t-201 -37.5q-115 0 -207.5 42.5t-158.5 116.5z" />
<glyph unicode="6" horiz-adv-x="1243" d="M174 434v567q0 109 38 201t105.5 160t159.5 105.5t201 37.5q115 0 208 -43t158 -116l-106 -97q-47 51 -114.5 82t-145.5 31q-88 0 -151.5 -34t-105.5 -87t-62.5 -121.5t-20.5 -140.5v-256q25 37 63.5 67.5t84.5 52t94.5 33t93.5 11.5q94 -2 177 -36t145.5 -94.5 t98 -142.5t35.5 -180q0 -100 -37.5 -184t-103 -143.5t-152.5 -93t-186 -33.5q-98 0 -184 33.5t-151.5 93t-103.5 143.5t-38 184zM344 408q0 -63 24.5 -120t65.5 -99t97.5 -66.5t119.5 -24.5t119.5 24.5t98.5 66.5t67 98.5t25 120.5v53q0 63 -25 119.5t-67 97.5t-98 65.5 t-120 24.5q-63 0 -119.5 -24.5t-97.5 -65.5t-65.5 -97.5t-24.5 -119.5v-53z" />
<glyph unicode="7" horiz-adv-x="1024" d="M51 1360v121h891v-74q-86 -137 -167 -309t-143.5 -357.5t-100 -376t-37.5 -364.5h-172q0 172 38.5 356.5t103 363.5t146.5 344t168 296h-727z" />
<glyph unicode="8" horiz-adv-x="1210" d="M113 434q0 147 78.5 255t205.5 159q-92 47 -144 124t-52 181q0 78 33.5 143.5t90 111.5t129 71.5t150.5 25.5t151.5 -25.5t130 -71.5t90.5 -111.5t34 -143.5q0 -104 -53.5 -181t-145.5 -124q127 -51 207 -158.5t80 -255.5q0 -100 -39 -184t-106.5 -143.5t-157.5 -93 t-191 -33.5q-100 0 -189 33.5t-157 93t-106.5 143.5t-38.5 184zM287 408q0 -63 25.5 -120t68.5 -99t100.5 -66.5t122.5 -24.5q66 0 124 24.5t101 66.5t69 98.5t26 120.5v75q0 63 -26 119.5t-69 97.5t-101 66t-124 25t-123 -25t-100 -66t-68.5 -97t-25.5 -120v-75zM375 1106 q0 -43 18.5 -81t50 -66.5t73.5 -45t87 -16.5t87 16.5t74 45t50.5 66.5t18.5 81v72q0 43 -18.5 80.5t-50.5 66.5t-74 45t-87 16t-87 -16t-73.5 -45t-50 -66.5t-18.5 -80.5v-72z" />
<glyph unicode="9" horiz-adv-x="1243" d="M113 1051q0 100 37.5 184t103 143.5t153 93t185.5 33.5t184 -33.5t151.5 -93t103.5 -143.5t38 -184v-568q0 -109 -38 -201t-106.5 -159.5t-163.5 -105t-208 -37.5q-119 0 -222.5 43t-174.5 116l114 97q49 -51 125 -82t158 -31q90 0 156.5 33.5t109.5 87t64.5 123 t21.5 139.5v256q-25 -37 -63.5 -67.5t-84.5 -52t-94.5 -33t-93.5 -11.5q-94 2 -177 36t-145.5 94t-98 142.5t-35.5 180.5zM283 1024q0 -63 24.5 -119.5t66.5 -97.5t98 -65.5t120 -24.5q63 0 119.5 24.5t97.5 65.5t65.5 97.5t24.5 119.5v53q0 63 -24.5 119.5t-65.5 98.5 t-97.5 66.5t-119.5 24.5t-119.5 -24.5t-98.5 -66.5t-66.5 -98t-24.5 -120v-53z" />
<glyph unicode=":" horiz-adv-x="509" d="M143 102q0 51 36 86t87 35t86 -34.5t35 -86.5q0 -51 -35 -86.5t-86 -35.5t-87 35.5t-36 86.5zM143 778q0 51 36 86t87 35t86 -35t35 -86t-35 -87t-86 -36t-87 36t-36 87z" />
<glyph unicode=";" horiz-adv-x="561" d="M82 -301l90 565h197l-136 -565h-151zM143 778q0 51 36 86t87 35t86 -35t35 -86t-35 -87t-86 -36t-87 36t-36 87z" />
<glyph unicode="&#x3c;" horiz-adv-x="843" d="M113 604v152l577 403v-198l-434 -281l434 -283v-198z" />
<glyph unicode="=" horiz-adv-x="1271" d="M205 424v151h862v-151h-862zM205 788v152h862v-152h-862z" />
<glyph unicode="&#x3e;" horiz-adv-x="843" d="M154 199v198l434 283l-434 281v198l577 -403v-152z" />
<glyph unicode="?" horiz-adv-x="907" d="M49 1057q-18 94 5.5 176t76.5 142.5t133 95t178 34.5q78 0 147.5 -24.5t122 -68.5t83 -103.5t30.5 -128.5q0 -100 -23.5 -166t-58 -113t-74.5 -88t-75 -92t-58.5 -122t-23.5 -181h-164q0 113 23.5 187.5t58.5 128.5t75 96t74.5 90.5t58.5 109t24 150.5q0 86 -60.5 142 t-159.5 56q-76 0 -125 -28.5t-75.5 -74.5t-32.5 -103.5t2 -114.5h-162zM317 102q0 51 35 86t86 35t87 -34.5t36 -86.5q0 -51 -36 -86.5t-87 -35.5t-86 35.5t-35 86.5z" />
<glyph unicode="@" horiz-adv-x="2365" d="M307 371v370q0 164 64.5 311.5t181.5 261t277.5 184.5t351.5 79q190 10 351 -44t277.5 -155.5t182 -243t65.5 -305.5v-469q0 -61 -23.5 -123.5t-63.5 -114.5t-95 -92t-117 -59q-104 -31 -184 11.5t-105 132.5q-59 -72 -144 -113t-185 -41q-88 0 -166 34t-135.5 91 t-91 135t-33.5 166v301q0 88 33.5 166t91 136.5t135.5 92t166 33.5q100 0 186 -42t146 -113l22 129h147v-912q0 -49 34 -73.5t83 -10.5t85 60.5t36 95.5v610q0 129 -52 240.5t-144.5 192.5t-220.5 124t-279 35q-152 -8 -279 -67.5t-219 -152.5t-143 -214t-51 -250v-422 q0 -129 55 -249t149.5 -215t221 -156.5t270.5 -73.5q131 -12 246.5 12.5t207.5 81.5l56 -94q-109 -66 -239 -98.5t-275 -24.5q-182 10 -342 81t-279 185.5t-187.5 263t-68.5 312.5zM889 371q0 -61 22.5 -113.5t62.5 -91.5t92 -60.5t114 -19.5q61 2 114.5 26.5t93 65.5 t62.5 94.5t23 114.5v301q0 61 -23 115.5t-62.5 95.5t-93 65.5t-114.5 26.5t-113.5 -19.5t-92.5 -60.5t-62.5 -91t-22.5 -113v-336z" />
<glyph unicode="A" horiz-adv-x="1327" d="M72 0l489 1481h205l489 -1481h-186l-117 356h-581l-117 -356h-182zM414 485h495l-247 752z" />
<glyph unicode="B" horiz-adv-x="1312" d="M174 0v1481h596q76 0 142.5 -29t116.5 -78t79 -115.5t29 -144.5q0 -104 -52.5 -191t-138.5 -135q104 -51 169 -150t65 -222q0 -86 -33 -162t-88 -132t-130 -89t-161 -33h-594zM352 131h357q59 0 112 22.5t92 61.5t61.5 92t22.5 113q0 59 -22.5 112.5t-61.5 93.5t-92 63.5 t-112 23.5h-357v-582zM352 844h353q53 0 98 20.5t80 54t54 81t19 98.5q0 53 -19 98t-54 80t-80 54.5t-98 19.5h-353v-506z" />
<glyph unicode="C" horiz-adv-x="1251" d="M113 498v493q0 106 40 200.5t109.5 164t163.5 109.5t201 40q102 0 192 -36.5t159 -101t112 -153t49 -190.5h-178q0 72 -27 135.5t-72 111.5t-105.5 75.5t-129.5 27.5q-70 0 -130.5 -26.5t-106.5 -71.5t-72.5 -106.5t-26.5 -131.5v-594q0 -70 26.5 -131t72.5 -106 t106.5 -70.5t130.5 -25.5t130 27.5t105 75.5t72 111.5t27 135.5l176 -2q-8 -100 -51.5 -188.5t-111 -153t-156.5 -101t-191 -36.5q-106 0 -200.5 40.5t-164 111.5t-109.5 165.5t-40 200.5z" />
<glyph unicode="D" horiz-adv-x="1333" d="M174 0v1481h514q106 0 199.5 -40t163 -109.5t109.5 -164t40 -200.5v-449q0 -106 -40 -200.5t-109.5 -165t-162.5 -111.5t-200 -41h-514zM352 129h336q70 0 130.5 26.5t105.5 71.5t71.5 106.5t26.5 131.5v551q0 70 -26.5 131t-71.5 106t-105.5 71t-130.5 26h-336v-1221z " />
<glyph unicode="E" horiz-adv-x="1138" d="M174 0v1481h862v-131h-684v-488h482v-129h-482v-602h684v-131h-862z" />
<glyph unicode="F" d="M174 0v1481h862v-131h-684v-488h482v-129h-482v-733h-178z" />
<glyph unicode="G" horiz-adv-x="1312" d="M113 496v495q0 106 40 200.5t109.5 164t163.5 109.5t201 40q102 0 192 -36.5t157.5 -102.5t110.5 -154t50 -190h-176q0 72 -27 135.5t-72 111.5t-105.5 76.5t-129.5 28.5q-70 0 -130.5 -26.5t-106.5 -71.5t-72.5 -106.5t-26.5 -131.5v-596q0 -70 26.5 -131t72.5 -106 t106.5 -70.5t130.5 -25.5t130 25.5t105 70.5t72 106.5t27 130.5v140h-316v133h494v-715h-115l-16 180q-63 -92 -163 -147.5t-218 -55.5q-106 0 -200.5 41t-164 112t-109.5 165.5t-40 200.5z" />
<glyph unicode="H" horiz-adv-x="1351" d="M174 0v1481h178v-619h647v619h179v-1481h-179v733h-647v-733h-178z" />
<glyph unicode="I" horiz-adv-x="561" d="M195 0v1481h172v-1481h-172z" />
<glyph unicode="J" horiz-adv-x="753" d="M41 29v135q33 -14 65 -25q29 -10 61 -17t60 -7q27 0 54.5 4t50 15t37 29.5t14.5 45.5v1272h176v-1282q0 -61 -26.5 -103.5t-69.5 -67t-97.5 -35.5t-107.5 -11q-66 0 -114 10t-103 37z" />
<glyph unicode="K" horiz-adv-x="1202" d="M195 0v1481h180v-623l538 623h220l-621 -707l649 -774h-231l-555 668v-668h-180z" />
<glyph unicode="L" horiz-adv-x="1097" d="M174 0v1481h178v-1350h684v-131h-862z" />
<glyph unicode="M" horiz-adv-x="1568" d="M174 0v1481h213l397 -1131l398 1131h213v-1481h-176v1071l-398 -1071h-73l-398 1071v-1071h-176z" />
<glyph unicode="N" horiz-adv-x="1380" d="M174 0v1481h170l688 -1205v1205h174v-1481h-196l-662 1167v-1167h-174z" />
<glyph unicode="O" horiz-adv-x="1292" d="M133 496v495q0 106 40 200.5t109.5 164t164 109.5t200.5 40t199.5 -40t163 -109.5t109.5 -163.5t40 -201v-495q0 -106 -40 -200.5t-109.5 -165.5t-162.5 -112t-200 -41q-106 0 -200.5 41t-164 112t-109.5 165.5t-40 200.5zM311 442q0 -70 27 -131t73 -106t106.5 -70.5 t129.5 -25.5q70 0 130.5 25.5t105.5 70.5t71.5 106.5t26.5 130.5v596q0 70 -26.5 131.5t-71.5 106.5t-105.5 71.5t-130.5 26.5t-130 -26.5t-106 -71.5t-73 -106.5t-27 -131.5v-596z" />
<glyph unicode="P" horiz-adv-x="1292" d="M174 0v1481h547q96 0 179 -36t145.5 -99.5t98.5 -146.5t36 -179q0 -94 -36 -178t-98.5 -147.5t-145.5 -99.5t-179 -36h-369v-559h-178zM352 692h348q63 0 117.5 28t94.5 73t63.5 105t23.5 124q0 66 -23.5 124t-63.5 104t-94 73t-118 27h-348v-658z" />
<glyph unicode="Q" horiz-adv-x="1361" d="M113 483v508q0 106 40 200.5t109.5 164t162.5 109.5t200 40q106 0 200.5 -40t164 -109.5t109.5 -163.5t40 -201v-508q0 -92 -31 -176t-84 -149.5t-128 -112.5t-161 -65q98 -39 228.5 -71t285.5 -32v-182q-111 0 -220 31.5t-204.5 75.5t-171 92.5t-118.5 78.5 q-90 16 -167 62.5t-134.5 114t-89 153.5t-31.5 180zM291 430q0 -70 26.5 -131t71.5 -106.5t105.5 -71t130.5 -25.5t130 25.5t106 71t73 106.5t27 131v608q0 70 -27 131.5t-73 106.5t-106.5 71.5t-129.5 26.5q-70 0 -130.5 -26.5t-105.5 -71.5t-71.5 -106.5t-26.5 -131.5 v-608z" />
<glyph unicode="R" horiz-adv-x="1347" d="M174 0v1481h547q96 0 179 -36t145.5 -99.5t98.5 -146.5t36 -179q0 -74 -22.5 -141.5t-62.5 -124t-95.5 -99.5t-120.5 -67l335 -588h-208l-320 559h-334v-559h-178zM352 692h318q68 0 128 25.5t105 71t70.5 105.5t25.5 128q0 66 -23.5 124t-63.5 104t-94 73t-118 27h-348 v-658z" />
<glyph unicode="S" horiz-adv-x="1259" d="M113 360h176q10 -129 102 -193.5t227 -64.5q72 0 131.5 17.5t104.5 52.5t69.5 87t24.5 120q0 74 -44 123t-108.5 81.5t-135 54t-125.5 40.5q-78 27 -154 58.5t-135.5 79.5t-95 116.5t-35.5 167.5q0 84 36.5 158.5t103.5 130t160 88t203 32.5q109 0 195 -27.5t149.5 -76.5 t101.5 -115.5t48 -144.5h-180q-12 113 -97 173t-214 60q-141 0 -234.5 -70.5t-93.5 -207.5q0 -74 44 -124t107.5 -83t135 -54.5t127.5 -39.5q78 -25 153.5 -56.5t135 -80t95 -117t35.5 -166.5q0 -84 -36.5 -159t-104 -130t-161 -88t-203.5 -33q-113 0 -204 31t-156.5 83 t-103.5 123.5t-44 153.5z" />
<glyph unicode="T" horiz-adv-x="1284" d="M92 1350v131h1100v-131h-461v-1350h-178v1350h-461z" />
<glyph unicode="U" horiz-adv-x="1333" d="M154 496v985h178v-1039q0 -70 26.5 -131t72.5 -106t106.5 -70.5t130.5 -25.5t130 25.5t105 70.5t71.5 106.5t26.5 130.5v1039h179v-985q0 -106 -40 -200.5t-109.5 -165.5t-163 -112t-199.5 -41t-200.5 41t-164.5 112t-109.5 165.5t-39.5 200.5z" />
<glyph unicode="V" horiz-adv-x="1368" d="M92 1481h187l407 -1237l408 1237h182l-490 -1481h-204z" />
<glyph unicode="W" horiz-adv-x="1943" d="M92 1481h184l308 -1205l303 1205h168l305 -1205l307 1205h184l-376 -1481h-213l-291 1143l-289 -1143h-213z" />
<glyph unicode="X" horiz-adv-x="1331" d="M113 0l452 788l-397 693h211l315 -561l320 561h190l-420 -723l435 -758h-211l-353 625l-352 -625h-190z" />
<glyph unicode="Y" horiz-adv-x="1271" d="M92 1481h211l344 -609l344 609h189l-453 -791v-690h-180v686z" />
<glyph unicode="Z" horiz-adv-x="1298" d="M174 1352v131h932v-103l-707 -1249h725v-131h-944v104l701 1248h-707z" />
<glyph unicode="[" horiz-adv-x="663" d="M82 -317v1941h500v-119h-328v-1704h328v-118h-500z" />
<glyph unicode="\" horiz-adv-x="1048" d="M12 1628h185l839 -1943h-184z" />
<glyph unicode="]" horiz-adv-x="663" d="M61 -199h328v1704h-328v119h500v-1941h-500v118z" />
<glyph unicode="^" horiz-adv-x="1062" d="M51 903l404 578h151l406 -578h-199l-283 434l-280 -434h-199z" />
<glyph unicode="_" horiz-adv-x="1126" d="M102 -102h922v-119h-922v119z" />
<glyph unicode="`" horiz-adv-x="663" d="M143 1483h209l168 -309h-145z" />
<glyph unicode="a" horiz-adv-x="1085" d="M113 276q0 111 54 177.5t140 101.5q106 43 224 47t235 4v148q0 111 -58.5 157.5t-144.5 46.5q-98 0 -156.5 -60t-68.5 -146h-160q6 70 38 129t82 103t117.5 68.5t145.5 24.5q94 0 164 -17.5t116 -62.5t68.5 -121.5t22.5 -193.5v-682h-139l-25 127q-55 -68 -128 -107.5 t-161 -39.5q-84 0 -151.5 22.5t-115.5 62t-73.5 94t-25.5 117.5zM274 283q0 -86 67 -138q62 -47 157 -47h16q53 2 99 25.5t81 62.5t54.5 90.5t19.5 108.5v98q-78 0 -165 -3t-159.5 -21.5t-121 -59t-48.5 -116.5z" />
<glyph unicode="b" horiz-adv-x="1187" d="M195 0v1577h161v-647q55 68 136 107.5t178 39.5q84 0 157.5 -31.5t129 -87t87 -130t31.5 -158.5v-287q0 -84 -31.5 -157.5t-87 -129t-129 -87.5t-157.5 -32q-96 0 -177 40t-137 108l-24 -125h-137zM356 383q0 -57 21.5 -108.5t59.5 -90.5t88 -62.5t108 -25.5h10 q52 0 98 19q51 20 89 57t59.5 87t21.5 108v321q0 57 -21.5 107.5t-59 87.5t-89.5 57q-47 19 -98 19q-5 0 -10 -1q-57 -2 -107.5 -25.5t-88.5 -62.5t-59.5 -91t-21.5 -109v-287z" />
<glyph unicode="c" horiz-adv-x="1103" d="M113 420v215q0 92 34.5 172t94 140.5t139.5 95t172 34.5q84 0 158.5 -30.5t133 -83t97.5 -123t49 -150.5h-160q-4 55 -27.5 103.5t-60 85t-85 58t-103.5 21.5q-57 0 -107.5 -23.5t-88 -63.5t-59 -92t-21.5 -109v-295q0 -57 21.5 -108.5t59 -89.5t88 -59.5t107.5 -21.5 q55 0 103.5 21.5t85 57.5t60 84t27.5 101h160q-10 -82 -48 -151.5t-96.5 -120.5t-133 -81t-158.5 -30q-92 0 -172 35t-140.5 95.5t-95 140.5t-34.5 172z" />
<glyph unicode="d" horiz-adv-x="1189" d="M113 383v287q0 84 31.5 158.5t87 130t129 87t157.5 31.5q96 0 178 -40t138 -107v647h161v-1577h-137l-24 125q-55 -68 -137.5 -108t-178.5 -40q-84 0 -157.5 32t-129 87.5t-87 129t-31.5 157.5zM279 367q0 -57 21.5 -107.5t59 -87.5t87.5 -57q46 -19 98 -19h10 q57 2 108.5 25.5t89.5 62.5t59.5 90.5t21.5 108.5v287q0 57 -21.5 109t-59.5 91t-89.5 62.5t-108.5 25.5q-5 0 -10 1q-52 0 -98 -19q-50 -20 -87.5 -57t-59 -87.5t-21.5 -107.5v-321z" />
<glyph unicode="e" horiz-adv-x="1087" d="M113 455v180q0 92 34.5 172t94 140.5t139.5 95t172 34.5t172 -34.5t140.5 -95t95 -140.5t34.5 -172v-129h-716v-74q0 -63 24.5 -119.5t69.5 -98.5t105.5 -66.5t131.5 -24.5q78 0 145.5 30.5t114.5 82.5l107 -97q-66 -74 -159 -116.5t-208 -42.5q-102 0 -192 36.5 t-157.5 101t-107.5 151t-40 186.5zM279 627h555v53q0 57 -21.5 108.5t-59.5 89t-89.5 59t-108.5 21.5t-107.5 -23.5t-88 -62t-59 -91t-21.5 -109.5v-45z" />
<glyph unicode="f" horiz-adv-x="679" d="M92 934v119h160v198q0 84 31.5 149.5t86 108.5t127.5 59q35 7 72 7q39 0 80 -8v-121q-35 6 -65 6q-75 0 -113 -41q-53 -57 -53 -184v-174h203v-119h-203v-934h-166v934h-160z" />
<glyph unicode="g" horiz-adv-x="1171" d="M123 406v266q0 84 31.5 157.5t87 129t129 87t157.5 31.5q96 0 178 -39t138 -106l24 121h140v-990q0 -100 -40 -186t-107.5 -150.5t-159 -101.5t-193.5 -37q-115 0 -208 43t-159 117l107 96q47 -51 114.5 -81.5t145.5 -30.5q72 0 133 24.5t105.5 66.5t70 98t25.5 120v104 q-55 -66 -137 -105.5t-177 -39.5q-84 0 -157.5 31.5t-129 87t-87 129.5t-31.5 158zM289 389q0 -57 21.5 -107.5t59.5 -87t88 -57.5q46 -19 97 -18h10q57 2 108.5 25.5t89.5 62.5t59.5 90t21.5 109v266q0 57 -21.5 108t-59.5 90t-89 62.5t-109 25.5q-5 0 -10 1q-52 0 -97 -19 q-50 -20 -88 -57t-59.5 -87.5t-21.5 -107.5v-299z" />
<glyph unicode="h" horiz-adv-x="1239" d="M195 0v1577h161v-647q55 68 136 107.5t178 39.5q84 0 157.5 -31.5t129 -87t87 -130t31.5 -158.5v-670h-164v688q0 57 -21.5 107.5t-59 87.5t-89.5 57q-47 19 -98 19q-5 0 -10 -1q-57 -2 -107.5 -25.5t-88.5 -62.5t-59.5 -91t-21.5 -109v-670h-161z" />
<glyph unicode="i" horiz-adv-x="509" d="M133 1360q0 51 36 86t87 35t86 -35t35 -86t-35 -87t-86 -36t-87 36t-36 87zM164 0v1053h174v-1053h-174z" />
<glyph unicode="j" horiz-adv-x="552" d="M-51 -352q57 0 107 23.5t88 62.5t59.5 91t21.5 109v1119h166v-1082q0 -92 -34.5 -173t-95 -141t-140.5 -95t-172 -35v121zM197 1360q0 51 34.5 86t85.5 35t87 -35t36 -86t-35.5 -87t-87.5 -36q-51 0 -85.5 36t-34.5 87z" />
<glyph unicode="k" horiz-adv-x="1083" d="M195 0v1577h165v-969l416 445h205l-473 -506l493 -547h-213l-428 471v-471h-165z" />
<glyph unicode="l" horiz-adv-x="530" d="M184 0v1577h162v-1577h-162z" />
<glyph unicode="m" horiz-adv-x="1855" d="M174 0v1053h141l25 -123q53 63 132 105t167 42q113 0 201 -59.5t133 -155.5h2q16 41 49 80t78 68.5t98 48t111 18.5q78 0 145.5 -29.5t117.5 -81t78.5 -121t28.5 -147.5v-698h-165v715q0 53 -18.5 98t-50.5 78t-76 51q-40 17 -87 17q-5 0 -10 -1q-51 -2 -99.5 -23.5 t-84 -57t-57 -82.5t-21.5 -101v-694h-168v715q0 53 -18.5 98t-50.5 78t-76 51q-40 17 -86 17q-5 0 -11 -1q-51 -2 -99 -23.5t-84 -57t-57.5 -82.5t-21.5 -101v-694h-166z" />
<glyph unicode="n" horiz-adv-x="1212" d="M164 0v1053h141l25 -123q55 68 136 107.5t177 39.5q84 0 157.5 -31.5t129 -87t87.5 -130t32 -158.5v-670h-166v688q0 57 -21.5 107.5t-59.5 87.5t-88 57q-46 19 -97 19q-5 0 -11 -1q-57 -2 -107 -25.5t-88 -62.5t-59.5 -91t-21.5 -109v-670h-166z" />
<glyph unicode="o" d="M113 420v215q0 92 34.5 172t94 140.5t139.5 95t172 34.5t172 -34.5t140.5 -95t95 -140.5t34.5 -172v-215q0 -92 -34.5 -172t-94 -140.5t-139.5 -95.5t-172 -35t-172 35t-140.5 95.5t-95 140.5t-34.5 172zM279 375q0 -57 21.5 -108.5t59 -89.5t88 -59.5t107.5 -21.5 t108.5 23.5t89.5 62.5t59.5 91.5t21.5 109.5v297q0 57 -21.5 108.5t-59.5 89t-89.5 59t-108.5 21.5t-107.5 -23.5t-88 -63.5t-59 -92t-21.5 -109v-295z" />
<glyph unicode="p" horiz-adv-x="1105" d="M133 -471v1524h137l25 -123q55 68 136 107.5t177 39.5q84 0 158 -31.5t129 -87t87 -130t32 -158.5v-287q0 -84 -32 -157.5t-87 -129t-129 -87.5t-158 -32q-96 0 -177 40t-136 108v-596h-162zM295 383q0 -57 21.5 -108.5t59.5 -90.5t88 -62.5t107 -25.5h11q52 0 98 19 q51 20 89 57t59.5 87t21.5 108v321q0 57 -21.5 107.5t-59.5 87.5t-89 57q-47 19 -98 19q-5 0 -11 -1q-57 -2 -107 -25.5t-88 -62.5t-59.5 -91t-21.5 -109v-287z" />
<glyph unicode="q" horiz-adv-x="1095" d="M92 383v287q0 84 32 158.5t87 130t129 87t158 31.5q96 0 178 -40t137 -107l25 123h135v-1524h-160v596q-55 -68 -137 -108t-178 -40q-84 0 -158 32t-129 87.5t-87 129t-32 157.5zM258 367q0 -57 21.5 -107.5t59.5 -87.5t88 -57q46 -19 97 -19h11q57 2 108 25.5t89 62.5 t59.5 90.5t21.5 108.5v287q0 57 -21.5 109t-59.5 91t-89 62.5t-108 25.5q-5 0 -11 1q-52 0 -97 -19q-50 -20 -88 -57t-59.5 -87.5t-21.5 -107.5v-321z" />
<glyph unicode="r" horiz-adv-x="761" d="M164 0v1053h141l25 -123q55 68 136 107.5t177 39.5q35 0 68 -6v-164q-25 8 -49.5 11.5t-55.5 -0.5q-55 -4 -105 -22.5t-88 -51.5t-60.5 -81t-22.5 -110v-653h-166z" />
<glyph unicode="s" horiz-adv-x="1026" d="M113 279h161q0 -86 66 -133.5t172 -47.5t172 47.5t66 133.5q0 59 -47.5 93t-118 58.5t-152.5 46t-152.5 57t-117.5 93t-47 151.5q0 63 29.5 117.5t83 94.5t126 63.5t158.5 23.5t156.5 -21.5t122 -59.5t80 -89t32.5 -110h-164q-2 76 -63.5 118.5t-161.5 42.5 q-106 0 -170.5 -47t-64.5 -133q0 -59 47 -93t117.5 -58.5t152.5 -46t152.5 -57.5t117.5 -93t47 -151q0 -63 -29.5 -118t-84 -94.5t-127 -63t-158.5 -23.5q-90 0 -164 23.5t-127 63t-81.5 94.5t-28.5 118z" />
<glyph unicode="t" horiz-adv-x="735" d="M72 934v119h159v323h166v-323h203v-119h-203v-707q0 -33 10.5 -61.5t36 -47t71.5 -21.5h14q43 0 104 16v-121q-59 -13 -117 -13q-15 0 -30 1q-73 4 -129 29.5t-91 72.5t-35 117v735h-159z" />
<glyph unicode="u" horiz-adv-x="1212" d="M164 383v670h166v-686q0 -57 21.5 -107.5t59.5 -87.5t88 -57q46 -19 97 -19h10q57 2 108.5 25.5t89.5 62.5t59.5 90.5t21.5 108.5v670h164v-1051h-140l-24 123q-55 -68 -137 -108t-179 -40q-84 0 -157.5 32t-129 87.5t-87 129t-31.5 157.5z" />
<glyph unicode="v" horiz-adv-x="1067" d="M51 1053h178l324 -750l301 750h162l-441 -1053h-69z" />
<glyph unicode="w" horiz-adv-x="1638" d="M51 1053h178l285 -709l268 709h76l266 -709l285 709h178l-405 -1053h-70l-293 719l-293 -719h-69z" />
<glyph unicode="x" horiz-adv-x="1032" d="M61 0l363 541l-324 512h195l229 -363l242 363h180l-338 -492l353 -561h-195l-258 412l-270 -412h-177z" />
<glyph unicode="y" horiz-adv-x="1171" d="M123 446v607h166v-623q0 -57 21.5 -107.5t59.5 -87t88 -57.5q46 -19 97 -18h10q57 2 108.5 25.5t89.5 62.5t59.5 90t21.5 108v607h164v-990q0 -100 -40 -186t-107.5 -150.5t-159 -101.5t-193.5 -37q-115 0 -208 43t-159 117l107 96q47 -51 114.5 -81.5t145.5 -30.5 q72 0 133 24.5t105.5 66.5t70 98t25.5 120v145q-55 -66 -137 -105.5t-177 -39.5q-84 0 -157.5 31.5t-129 87t-87 129t-31.5 157.5z" />
<glyph unicode="z" horiz-adv-x="1030" d="M92 0v109l608 827h-583v117h794v-95l-612 -841h639v-117h-846z" />
<glyph unicode="{" horiz-adv-x="841" d="M61 694q57 0 107.5 23.5t88.5 63.5t59.5 92.5t21.5 109.5v186q0 92 35 172t94 140.5t139 95.5t172 35v-119q-57 0 -107 -21.5t-88 -59.5t-59.5 -89t-21.5 -109v-196q0 -127 -62.5 -222.5t-167.5 -146.5q104 -49 168 -145t64 -225v-197q0 -57 21.5 -108.5t59.5 -89.5 t88 -59.5t107 -21.5v-118q-92 0 -172 34.5t-139 95t-94 140.5t-35 172v186q0 57 -21.5 109.5t-59.5 92.5t-88 63.5t-108 23.5z" />
<glyph unicode="|" horiz-adv-x="561" d="M205 -82v1747h151v-1747h-151z" />
<glyph unicode="}" horiz-adv-x="841" d="M61 -197q57 0 107.5 21.5t88.5 59.5t59.5 89.5t21.5 108.5v197q0 129 63.5 225t167.5 145q-104 51 -166.5 146.5t-62.5 222.5v196q0 57 -21.5 108.5t-59.5 89.5t-88 59.5t-108 21.5v119q92 0 172 -35t139.5 -95.5t94.5 -140t35 -172.5v-186q0 -57 21.5 -109.5t59.5 -92.5 t88 -63.5t107 -23.5l-2 -92q-57 0 -107 -23.5t-88 -63.5t-59.5 -92t-21.5 -110v-186q0 -92 -35 -172t-94.5 -140.5t-139 -95t-172.5 -34.5v118z" />
<glyph unicode="~" horiz-adv-x="1173" d="M143 498v67q0 47 18.5 89t50.5 74t74 50.5t89 18.5h432q53 0 91 37.5t38 91.5v61h94v-129q0 -47 -18.5 -89t-50 -73.5t-73.5 -50t-89 -18.5h-432q-53 0 -91 -38t-38 -91h-95z" />
<glyph unicode="&#xa1;" horiz-adv-x="591" d="M174 950q0 51 36 87t87 36t86 -36t35 -87q0 -49 -35 -85t-86 -36t-87 36t-36 85zM184 -428l41 1051h131l41 -1051h-213z" />
<glyph unicode="&#xa2;" horiz-adv-x="1103" d="M113 618v216q0 84 28.5 157.5t77.5 131t116.5 96t147.5 51.5v211h117v-207q76 -8 142.5 -41t118.5 -84t86 -117.5t44 -142.5h-160q-4 49 -22 93t-49 79t-72 59.5t-88 32.5v-854q94 16 158.5 90t72.5 170h160q-10 -76 -44 -142.5t-86 -116.5t-118.5 -82t-142.5 -40v-198 h-117v202q-80 12 -147.5 51t-116.5 97.5t-77.5 132t-28.5 155.5zM279 573q0 -98 57 -171.5t147 -96.5v842q-90 -27 -147 -103.5t-57 -175.5v-295z" />
<glyph unicode="&#xa3;" horiz-adv-x="1273" d="M82 672l57 121h187v292q0 117 22.5 194t68.5 122t115.5 62.5t163.5 17.5q78 0 145.5 -24.5t118 -69t82 -103.5t37.5 -129h-159q-10 86 -68.5 146.5t-157.5 60.5q-86 0 -144 -47t-58 -158v-364h473l-58 -121h-413v-346q0 -59 -31 -112.5t-84 -94.5l412 2q106 0 172.5 46 t66.5 132h162q0 -63 -28.5 -117.5t-78 -94.5t-116 -62.5t-144.5 -22.5h-739v129q102 0 171 48t69 134v359h-244z" />
<glyph unicode="&#xa4;" horiz-adv-x="1521" d="M143 553l58 121h153v133h-211l60 121h151v65q0 106 40 199.5t109.5 163t163 109.5t199.5 40q102 0 192.5 -36.5t159 -101t111.5 -151t49 -186.5h-168q0 72 -26.5 136.5t-73.5 112.5t-109.5 76.5t-134.5 28.5t-134 -26.5t-108 -73.5t-73 -109.5t-27 -134.5v-112h627 l-59 -121h-568v-133h502l-57 -121h-445v-111q0 -72 27 -134t73 -108t108.5 -73t133.5 -27q72 0 134.5 29t109.5 77t73.5 112.5t26.5 136.5h168q-8 -98 -51 -185.5t-111.5 -152t-157.5 -101t-192 -36.5q-106 0 -199.5 40.5t-163 110.5t-109.5 164t-40 201v57h-211z" />
<glyph unicode="&#xa5;" horiz-adv-x="1161" d="M25 1481h200l350 -619l351 619h178l-434 -760h280v-121h-299v-115h299v-120h-299v-365h-172v365h-289v120h289v115h-289v121h269z" />
<glyph unicode="&#xa7;" horiz-adv-x="1095" d="M143 1069q0 66 30 123t83 99t126 66.5t159 24.5t156.5 -22.5t121.5 -62.5t80 -94t33 -116h-164q-2 78 -63.5 124t-161.5 46q-106 0 -171 -48t-65 -140q0 -61 47 -97t118 -60.5t153 -49t152.5 -61.5t117.5 -97.5t47 -158.5q0 -88 -51 -160t-139 -113q84 -39 142 -100 t58 -172q0 -66 -29.5 -123t-84 -99t-127 -66.5t-158.5 -24.5q-90 0 -164 24.5t-127 66.5t-81.5 99t-28.5 123h161q0 -92 65.5 -140t172.5 -48q106 0 171.5 48t65.5 140q0 61 -47 97t-117.5 60.5t-152.5 49t-152.5 61.5t-117.5 97.5t-47 158.5q0 88 50 160t138 113 q-84 39 -141.5 100t-57.5 172zM319 532q0 -39 18.5 -72.5t49.5 -59t73 -40t89 -14.5t89 14.5t72.5 40t49 59.5t18.5 72q0 39 -18.5 74t-49 60.5t-72.5 41t-89 15.5t-89 -15.5t-73 -41t-49.5 -60.5t-18.5 -74z" />
<glyph unicode="&#xa8;" horiz-adv-x="788" d="M29 1360q0 51 35.5 86t87.5 35q51 0 85.5 -35t34.5 -86t-34.5 -87t-85.5 -36t-87 36t-36 87zM514 1360q0 51 36 86t87 35t87 -35t36 -86t-36 -87t-87 -36t-87 36t-36 87z" />
<glyph unicode="&#xa9;" horiz-adv-x="1699" d="M164 891q0 141 54 266t147.5 218t218.5 147.5t266 54.5t266 -54.5t218 -147.5t147.5 -218t54.5 -266t-54.5 -266t-147.5 -218.5t-218 -146.5t-266 -53t-266 53t-218.5 146.5t-147.5 218.5t-54 266zM246 891q0 -125 47 -234.5t129 -191.5t192.5 -129t235.5 -47t235.5 47 t192.5 129t129 191.5t47 234.5t-47 235.5t-129 192.5t-192.5 129t-235.5 47t-235.5 -47t-192.5 -129t-129 -192.5t-47 -235.5zM481 811v154q0 76 29 143.5t79 117.5t117.5 78.5t143.5 28.5q70 0 131 -23.5t110.5 -65.5t81 -99.5t41.5 -122.5h-141q-4 43 -23.5 81t-50 65.5 t-70.5 43t-83 15.5q-47 0 -88 -18.5t-71 -51.5t-47 -75t-17 -89v-215q0 -47 17 -88t47 -71.5t71 -49t88 -18.5q43 0 82 16.5t68.5 44t49 64.5t25.5 78h143q-10 -66 -42.5 -122.5t-82 -98t-110.5 -65.5t-131 -24q-76 0 -143.5 29t-116.5 79t-78 116.5t-29 142.5z" />
<glyph unicode="&#xaa;" horiz-adv-x="1085" d="M113 276q0 111 54 177.5t140 101.5q106 43 224 47t235 4v148q0 111 -58.5 157.5t-144.5 46.5q-98 0 -156.5 -60t-68.5 -146h-160q6 70 38 129t82 103t117.5 68.5t145.5 24.5q94 0 164 -17.5t116 -62.5t68.5 -121.5t22.5 -193.5v-682h-139l-25 127q-55 -68 -128 -107.5 t-161 -39.5q-84 0 -151.5 22.5t-115.5 62t-73.5 94t-25.5 117.5zM274 283q0 -86 67 -138q62 -47 157 -47h16q53 2 99 25.5t81 62.5t54.5 90.5t19.5 108.5v98q-78 0 -165 -3t-159.5 -21.5t-121 -59t-48.5 -116.5z" />
<glyph unicode="&#xab;" horiz-adv-x="1355" d="M113 604v152l514 379v-195l-371 -260l371 -262v-195zM627 604v152l514 379v-195l-371 -260l371 -262v-195z" />
<glyph unicode="&#xac;" horiz-adv-x="1495" d="M184 838v153h1127v-573h-154v420h-973z" />
<glyph unicode="&#xad;" horiz-adv-x="843" d="M102 555v152h639v-152h-639z" />
<glyph unicode="&#xae;" horiz-adv-x="1699" d="M164 891q0 141 54 266t147.5 218t218.5 147.5t266 54.5t266 -54.5t218 -147.5t147.5 -218t54.5 -266t-54.5 -266t-147.5 -218.5t-218 -146.5t-266 -53t-266 53t-218.5 146.5t-147.5 218.5t-54 266zM246 891q0 -125 47 -234.5t129 -191.5t192.5 -129t235.5 -47t235.5 47 t192.5 129t129 191.5t47 234.5t-47 235.5t-129 192.5t-192.5 129t-235.5 47t-235.5 -47t-192.5 -129t-129 -192.5t-47 -235.5zM565 469v838h355q55 0 103 -21.5t85 -57.5t57.5 -85t20.5 -105q0 -98 -58.5 -169.5t-150.5 -92.5l184 -307h-153l-187 301h-114v-301h-142z M707 874h178q68 0 116 48.5t48 115.5q0 68 -48.5 115t-115.5 47h-178v-326z" />
<glyph unicode="&#xaf;" horiz-adv-x="702" d="M41 1329v152h621v-152h-621z" />
<glyph unicode="&#xb0;" horiz-adv-x="667" d="M92 1298q0 47 18.5 89.5t50.5 74t73.5 50t89.5 18.5q47 0 89 -18.5t73.5 -50t50 -73.5t18.5 -90q0 -47 -18.5 -89t-50 -72.5t-73.5 -49t-89 -18.5t-89 18.5t-74 49t-50.5 72.5t-18.5 89zM190 1298q0 -55 39 -94t95 -39q55 0 94 39t39 94t-39 95.5t-94 40.5t-94.5 -40.5 t-39.5 -95.5z" />
<glyph unicode="&#xb1;" horiz-adv-x="1402" d="M225 164v143h953v-143h-953zM225 842v143h404v393h145v-393h404v-143h-404v-393h-145v393h-404z" />
<glyph unicode="&#xb2;" horiz-adv-x="1159" d="M113 0v74q57 47 131.5 114.5t153.5 149.5t155 174t136.5 189.5t97 197.5t36.5 195q0 59 -20.5 111t-56 91t-85 61.5t-106.5 22.5q-74 0 -123 -27.5t-75.5 -72.5t-33 -103.5t6.5 -117.5h-168q-18 94 5 176t76.5 142.5t133.5 95t178 34.5q92 0 172 -31.5t138.5 -87t92 -131 t33.5 -163.5q0 -94 -31.5 -189.5t-84 -186.5t-120 -177t-139 -163t-141 -142.5t-127.5 -114.5h658v-121h-893z" />
<glyph unicode="&#xb3;" horiz-adv-x="1075" d="M102 139l107 97q47 -51 114.5 -82t145.5 -31q88 0 152.5 33.5t106.5 87t62.5 123t18.5 139.5q-2 68 -22.5 131t-59.5 112.5t-97.5 80t-133.5 30.5q-41 0 -77 -10t-71 -27l-53 68l348 471h-469v121h686v-76l-336 -424q100 -6 182 -48t141.5 -109.5t92.5 -155.5t33 -187 q0 -109 -38 -201t-105.5 -159.5t-159.5 -105t-201 -37.5q-115 0 -208 42.5t-159 116.5z" />
<glyph unicode="&#xb4;" horiz-adv-x="675" d="M150 1174l167 309h209l-231 -309h-145z" />
<glyph unicode="&#xb5;" horiz-adv-x="1249" d="M184 -430v1483h162v-686q0 -57 21.5 -107.5t59.5 -87.5t88 -57.5t108 -18.5q57 2 108 25.5t89 62.5t59.5 90.5t21.5 108.5v670h164v-1051h-139l-25 123q-55 -68 -137 -108t-178 -40q-68 0 -128.5 20.5t-111.5 57.5v-526z" />
<glyph unicode="&#xb6;" horiz-adv-x="1464" d="M184 897v295q0 57 21.5 109.5t59.5 92.5t88 63.5t108 23.5h819v-119h-164v-1679h-172v1679h-270v-1679h-172v938h-41q-57 0 -107.5 21.5t-88.5 59t-59.5 88t-21.5 107.5z" />
<glyph unicode="&#xb7;" horiz-adv-x="448" d="M102 762q0 51 36 86t87 35t86 -35t35 -86t-35 -87t-86 -36t-87 36t-36 87z" />
<glyph unicode="&#x2219;" horiz-adv-x="448" d="M102 762q0 51 36 86t87 35t86 -35t35 -86t-35 -87t-86 -36t-87 36t-36 87z" />
<glyph unicode="&#xb8;" horiz-adv-x="352" d="M41 -334h90q25 0 42 17.5t17 42.5t-17 42t-42 17h-49l20 215h119l-41 -104q55 -10 93 -52.5t38 -101.5q0 -66 -46 -112t-111 -46h-113v82z" />
<glyph unicode="&#xb9;" horiz-adv-x="710" d="M92 1108v117q59 0 110.5 20.5t88.5 55t58.5 80.5t21.5 100h125v-1481h-166v1108h-238z" />
<glyph unicode="&#xba;" d="M113 420v215q0 92 34.5 172t94 140.5t139.5 95t172 34.5t172 -34.5t140.5 -95t95 -140.5t34.5 -172v-215q0 -92 -34.5 -172t-94 -140.5t-139.5 -95.5t-172 -35t-172 35t-140.5 95.5t-95 140.5t-34.5 172zM279 375q0 -57 21.5 -108.5t59 -89.5t88 -59.5t107.5 -21.5 t108.5 23.5t89.5 62.5t59.5 91.5t21.5 109.5v297q0 57 -21.5 108.5t-59.5 89t-89.5 59t-108.5 21.5t-107.5 -23.5t-88 -63.5t-59 -92t-21.5 -109v-295z" />
<glyph unicode="&#xbb;" horiz-adv-x="1314" d="M164 223v195l371 262l-371 260v195l514 -379v-152zM678 223v195l371 262l-371 260v195l514 -379v-152z" />
<glyph unicode="&#xbf;" horiz-adv-x="907" d="M82 -119q0 100 23.5 165t58.5 114t75 89t74.5 91t58 123t23.5 180h164q0 -113 -23.5 -187.5t-58.5 -129t-75 -96.5t-74.5 -90t-58 -108.5t-23.5 -150.5q0 -86 60.5 -142t158.5 -56q74 0 123 28.5t75.5 74.5t34 103.5t-1.5 114.5h162q18 -94 -4.5 -176t-76.5 -142.5 t-134 -95t-178 -34.5q-78 0 -147.5 24.5t-122 68.5t-83 103t-30.5 129zM346 958q0 51 36 87t87 36t86 -35.5t35 -87.5q0 -51 -35 -85.5t-86 -34.5t-87 34.5t-36 85.5z" />
<glyph unicode="&#xc0;" horiz-adv-x="1327" d="M72 0l489 1481h205l489 -1481h-186l-117 356h-581l-117 -356h-182zM373 1886h209l168 -309h-146zM414 485h495l-247 752z" />
<glyph unicode="&#xc1;" horiz-adv-x="1327" d="M72 0l489 1481h205l489 -1481h-186l-117 356h-581l-117 -356h-182zM414 485h495l-247 752zM582 1575l168 309h208l-231 -309h-145z" />
<glyph unicode="&#xc2;" horiz-adv-x="1327" d="M72 0l489 1481h205l489 -1481h-186l-117 356h-581l-117 -356h-182zM414 485h495l-247 752zM355 1579l233 295h152l233 -295h-186l-123 196l-123 -196h-186z" />
<glyph unicode="&#xc3;" horiz-adv-x="1327" d="M72 0l489 1481h205l489 -1481h-186l-117 356h-581l-117 -356h-182zM342 1577v61q0 82 57.5 139.5t139.5 57.5h258q41 0 69.5 28.5t28.5 69.5v27h76v-88q0 -82 -56.5 -139.5t-138.5 -57.5h-260q-41 0 -69.5 -28.5t-28.5 -69.5h-76zM414 485h495l-247 752z" />
<glyph unicode="&#xc4;" horiz-adv-x="1327" d="M72 0l489 1481h205l489 -1481h-186l-117 356h-581l-117 -356h-182zM295 1753q0 51 36 86t87 35t86 -35t35 -86t-35 -87t-86 -36t-87 36t-36 87zM414 485h495l-247 752zM780 1753q0 51 36 86t87 35t87 -35t36 -86t-36 -87t-87 -36t-87 36t-36 87z" />
<glyph unicode="&#xc5;" horiz-adv-x="1327" d="M72 0l477 1438q-53 29 -86 82t-33 118q0 47 18.5 89t50 74t73.5 50.5t90 18.5q47 0 89 -18.5t73.5 -50.5t50 -73.5t18.5 -89.5q0 -66 -33 -119t-86 -81l481 -1438h-186l-117 356h-581l-117 -356h-182zM414 485h495l-247 752zM528 1638q0 -55 39 -94t95 -39q55 0 94 39 t39 94t-39 95.5t-94 40.5t-94.5 -40.5t-39.5 -95.5z" />
<glyph unicode="&#xc6;" horiz-adv-x="1779" d="M72 0l643 1481h932v-121h-652v-502h488v-121h-488v-616h652v-121h-822v358h-422l-155 -358h-176zM457 481h368v850z" />
<glyph unicode="&#xc7;" horiz-adv-x="1251" d="M113 498v493q0 106 40 200.5t109.5 164t163.5 109.5t201 40q102 0 192 -36.5t159 -101t112 -153t49 -190.5h-178q0 72 -27 135.5t-72 111.5t-105.5 75.5t-129.5 27.5q-70 0 -130.5 -26.5t-106.5 -71.5t-72.5 -106.5t-26.5 -131.5v-594q0 -70 26.5 -131t72.5 -106 t106.5 -70.5t130.5 -25.5t130 27.5t105 75.5t72 111.5t27 135.5l176 -2q-8 -100 -51.5 -188.5t-111 -153t-156.5 -101t-191 -36.5q-106 0 -200.5 40.5t-164 111.5t-109.5 165.5t-40 200.5zM524 -334h90q25 0 42.5 17.5t17.5 42.5t-17.5 42t-42.5 17h-49l21 215h119l-41 -104 q55 -10 93 -52.5t38 -101.5q0 -66 -46.5 -112t-111.5 -46h-113v82z" />
<glyph unicode="&#xc8;" horiz-adv-x="1138" d="M174 0v1481h862v-131h-684v-488h482v-129h-482v-602h684v-131h-862zM348 1886h209l168 -309h-145z" />
<glyph unicode="&#xc9;" horiz-adv-x="1138" d="M174 0v1481h862v-131h-684v-488h482v-129h-482v-602h684v-131h-862zM479 1575l168 309h209l-231 -309h-146z" />
<glyph unicode="&#xca;" horiz-adv-x="1138" d="M174 0v1481h862v-121h-692v-502h487v-121h-487v-616h692v-121h-862zM307 1577l234 295h151l234 -295h-187l-123 197l-122 -197h-187z" />
<glyph unicode="&#xcb;" horiz-adv-x="1138" d="M174 0v1481h862v-131h-684v-488h482v-129h-482v-602h684v-131h-862zM238 1753q0 51 35.5 86t86.5 35t86 -35t35 -86t-34.5 -87t-86.5 -36q-51 0 -86.5 36t-35.5 87zM723 1753q0 51 36 86t87 35t87 -35t36 -86t-36 -87t-87 -36t-87 36t-36 87z" />
<glyph unicode="&#xcc;" horiz-adv-x="550" d="M-31 1886h209l168 -309h-145zM184 0v1481h172v-1481h-172z" />
<glyph unicode="&#xcd;" horiz-adv-x="540" d="M195 1577l167 309h209l-231 -309h-145zM197 0v1481h172v-1481h-172z" />
<glyph unicode="&#xce;" horiz-adv-x="577" d="M-20 1577l233 295h152l233 -295h-186l-123 197l-123 -197h-186zM197 0v1481h172v-1481h-172z" />
<glyph unicode="&#xcf;" horiz-adv-x="587" d="M-72 1753q0 51 36 86t87 35t86 -35t35 -86t-35 -87t-86 -36t-87 36t-36 87zM213 0v1481h172v-1481h-172zM414 1753q0 51 35.5 86t87.5 35q51 0 86.5 -35t35.5 -86t-35.5 -87t-86.5 -36t-87 36t-36 87z" />
<glyph unicode="&#xd0;" horiz-adv-x="1417" d="M20 672l58 121h180v688h514q106 0 199.5 -40t163 -109.5t109.5 -164t40 -200.5v-449q0 -106 -40 -200.5t-109.5 -165t-162.5 -111.5t-200 -41h-514v672h-238zM436 129h336q70 0 130.5 26.5t105.5 71.5t71.5 106.5t26.5 131.5v551q0 70 -26.5 131t-71.5 106t-105.5 71 t-130.5 26h-336v-557h365l-58 -121h-307v-543z" />
<glyph unicode="&#xd1;" horiz-adv-x="1380" d="M174 0v1481h170l688 -1205v1205h174v-1481h-196l-662 1167v-1167h-174zM377 1577v61q0 82 57.5 139.5t138.5 57.5h258q41 0 70 28.5t29 69.5v27h76v-88q0 -82 -56.5 -139.5t-138.5 -57.5h-260q-41 0 -69.5 -28.5t-28.5 -69.5h-76z" />
<glyph unicode="&#xd2;" horiz-adv-x="1292" d="M133 496v495q0 106 40 200.5t109.5 164t164 109.5t200.5 40t199.5 -40t163 -109.5t109.5 -163.5t40 -201v-495q0 -106 -40 -200.5t-109.5 -165.5t-162.5 -112t-200 -41q-106 0 -200.5 41t-164 112t-109.5 165.5t-40 200.5zM311 442q0 -70 27 -131t73 -106t106.5 -70.5 t129.5 -25.5q70 0 130.5 25.5t105.5 70.5t71.5 106.5t26.5 130.5v596q0 70 -26.5 131.5t-71.5 106.5t-105.5 71.5t-130.5 26.5t-130 -26.5t-106 -71.5t-73 -106.5t-27 -131.5v-596zM362 1886h209l168 -309h-145z" />
<glyph unicode="&#xd3;" horiz-adv-x="1292" d="M133 496v495q0 106 40 200.5t109.5 164t164 109.5t200.5 40t199.5 -40t163 -109.5t109.5 -163.5t40 -201v-495q0 -106 -40 -200.5t-109.5 -165.5t-162.5 -112t-200 -41q-106 0 -200.5 41t-164 112t-109.5 165.5t-40 200.5zM311 442q0 -70 27 -131t73 -106t106.5 -70.5 t129.5 -25.5q70 0 130.5 25.5t105.5 70.5t71.5 106.5t26.5 130.5v596q0 70 -26.5 131.5t-71.5 106.5t-105.5 71.5t-130.5 26.5t-130 -26.5t-106 -71.5t-73 -106.5t-27 -131.5v-596zM528 1575l168 309h209l-231 -309h-146z" />
<glyph unicode="&#xd4;" horiz-adv-x="1292" d="M133 496v495q0 106 40 200.5t109.5 164t164 109.5t200.5 40t199.5 -40t163 -109.5t109.5 -163.5t40 -201v-495q0 -106 -40 -200.5t-109.5 -165.5t-162.5 -112t-200 -41q-106 0 -200.5 41t-164 112t-109.5 165.5t-40 200.5zM311 442q0 -70 27 -131t73 -106t106.5 -70.5 t129.5 -25.5q70 0 130.5 25.5t105.5 70.5t71.5 106.5t26.5 130.5v596q0 70 -26.5 131.5t-71.5 106.5t-105.5 71.5t-130.5 26.5t-130 -26.5t-106 -71.5t-73 -106.5t-27 -131.5v-596zM338 1575l233 295h152l233 -295h-186l-123 196l-123 -196h-186z" />
<glyph unicode="&#xd5;" horiz-adv-x="1292" d="M133 496v495q0 106 40 200.5t109.5 164t164 109.5t200.5 40t199.5 -40t163 -109.5t109.5 -163.5t40 -201v-495q0 -106 -40 -200.5t-109.5 -165.5t-162.5 -112t-200 -41q-106 0 -200.5 41t-164 112t-109.5 165.5t-40 200.5zM311 442q0 -70 27 -131t73 -106t106.5 -70.5 t129.5 -25.5q70 0 130.5 25.5t105.5 70.5t71.5 106.5t26.5 130.5v596q0 70 -26.5 131.5t-71.5 106.5t-105.5 71.5t-130.5 26.5t-130 -26.5t-106 -71.5t-73 -106.5t-27 -131.5v-596zM332 1579v61q0 84 57 140.5t139 56.5h258q41 0 70 28.5t29 69.5v27h76v-88 q0 -82 -56.5 -139.5t-138.5 -57.5h-260q-41 0 -69.5 -28.5t-28.5 -69.5h-76z" />
<glyph unicode="&#xd6;" horiz-adv-x="1292" d="M133 496v495q0 106 40 200.5t109.5 164t164 109.5t200.5 40t199.5 -40t163 -109.5t109.5 -163.5t40 -201v-495q0 -106 -40 -200.5t-109.5 -165.5t-162.5 -112t-200 -41q-106 0 -200.5 41t-164 112t-109.5 165.5t-40 200.5zM291 1753q0 51 35.5 86t87.5 35q51 0 86 -35 t35 -86t-35 -87t-86 -36t-87 36t-36 87zM311 442q0 -70 27 -131t73 -106t106.5 -70.5t129.5 -25.5q70 0 130.5 25.5t105.5 70.5t71.5 106.5t26.5 130.5v596q0 70 -26.5 131.5t-71.5 106.5t-105.5 71.5t-130.5 26.5t-130 -26.5t-106 -71.5t-73 -106.5t-27 -131.5v-596z M776 1753q0 51 36 86t87 35t87 -35t36 -86t-36 -87t-87 -36t-87 36t-36 87z" />
<glyph unicode="&#xd8;" horiz-adv-x="1292" d="M133 494v499q0 106 40 199.5t109.5 163t164 109.5t200.5 40q109 0 203 -41l41 113h127l-64 -174q94 -70 149.5 -176.5t55.5 -233.5v-499q0 -106 -40 -200.5t-109.5 -164.5t-162.5 -111t-200 -41q-106 0 -201 41l-40 -114h-119l61 170q-98 72 -156.5 181.5t-58.5 238.5z M303 440q0 -68 24.5 -127t67.5 -106l412 1139q-74 39 -160 38q-72 0 -134 -26.5t-109.5 -73.5t-74 -109.5t-26.5 -134.5v-600zM489 135q72 -37 158 -37q72 0 134.5 27t108.5 73t72.5 108.5t26.5 133.5v600q0 66 -21.5 123.5t-62.5 104.5z" />
<glyph unicode="&#xd9;" horiz-adv-x="1333" d="M154 496v985h178v-1039q0 -70 26.5 -131t72.5 -106t106.5 -70.5t130.5 -25.5t130 25.5t105 70.5t71.5 106.5t26.5 130.5v1039h179v-985q0 -106 -40 -200.5t-109.5 -165.5t-163 -112t-199.5 -41t-200.5 41t-164.5 112t-109.5 165.5t-39.5 200.5zM408 1845h208l168 -309 h-145z" />
<glyph unicode="&#xda;" horiz-adv-x="1333" d="M154 496v985h178v-1039q0 -70 26.5 -131t72.5 -106t106.5 -70.5t130.5 -25.5t130 25.5t105 70.5t71.5 106.5t26.5 130.5v1039h179v-985q0 -106 -40 -200.5t-109.5 -165.5t-163 -112t-199.5 -41t-200.5 41t-164.5 112t-109.5 165.5t-39.5 200.5zM559 1538l168 309h209 l-231 -309h-146z" />
<glyph unicode="&#xdb;" horiz-adv-x="1333" d="M154 496v985h178v-1039q0 -70 26.5 -131t72.5 -106t106.5 -70.5t130.5 -25.5t130 25.5t105 70.5t71.5 106.5t26.5 130.5v1039h179v-985q0 -106 -40 -200.5t-109.5 -165.5t-163 -112t-199.5 -41t-200.5 41t-164.5 112t-109.5 165.5t-39.5 200.5zM353 1577l233 295h152 l233 -295h-186l-123 196l-123 -196h-186z" />
<glyph unicode="&#xdc;" horiz-adv-x="1333" d="M154 496v985h178v-1039q0 -70 26.5 -131t72.5 -106t106.5 -70.5t130.5 -25.5t130 25.5t105 70.5t71.5 106.5t26.5 130.5v1039h179v-985q0 -106 -40 -200.5t-109.5 -165.5t-163 -112t-199.5 -41t-200.5 41t-164.5 112t-109.5 165.5t-39.5 200.5zM299 1753q0 51 36 86 t87 35t86 -35t35 -86t-35 -87t-86 -36t-87 36t-36 87zM784 1753q0 51 36 86t87 35t87 -35t36 -86t-36 -87t-87 -36t-87 36t-36 87z" />
<glyph unicode="&#xdd;" horiz-adv-x="1263" d="M92 1481h211l344 -609l344 609h189l-453 -791v-690h-180v686zM508 1567l168 309h209l-232 -309h-145z" />
<glyph unicode="&#xde;" horiz-adv-x="1271" d="M174 0v1483h178v-187h348q96 0 179.5 -35.5t145.5 -99t98 -146.5t36 -179q0 -94 -36 -178.5t-98 -148t-145 -99t-180 -35.5h-348v-375h-178zM352 508h328q63 0 117.5 27.5t94.5 72.5t63.5 105.5t23.5 124.5q0 66 -23.5 124t-63.5 104t-94.5 72.5t-117.5 26.5h-328v-657z " />
<glyph unicode="&#xdf;" horiz-adv-x="1509" d="M-20 -254q57 0 107 23.5t88 63.5t59.5 92t21.5 110v899h-156v121h156l2 141q0 78 29.5 146.5t81 118.5t119 80t145.5 30t146.5 -30t118.5 -80t80 -118.5t30 -146.5v-258q-106 0 -171 -45t-65 -131q0 -57 47 -90t118 -56.5t152.5 -46t152.5 -57.5t118 -91t47 -149 q0 -61 -29.5 -114.5t-84 -93t-127 -62t-158.5 -22.5q-90 0 -164 22.5t-127 62t-82 93t-29 114.5h162q0 -86 65.5 -131t172.5 -45q106 0 171.5 45t65.5 131q0 57 -47 90t-117.5 56.5t-152.5 46t-153 57.5t-118 91.5t-47 148.5t63.5 162.5t168.5 105.5v217q0 88 -59.5 149.5 t-147.5 61.5q-43 0 -82 -16.5t-67.5 -45t-45 -67.5t-16.5 -82l-2 -1177q0 -92 -35 -172t-94.5 -140.5t-139 -95.5t-171.5 -35v119z" />
<glyph unicode="&#xe0;" horiz-adv-x="1085" d="M113 276q0 111 54 177.5t140 101.5q106 43 224 47t235 4v148q0 111 -58.5 157.5t-144.5 46.5q-98 0 -156.5 -60t-68.5 -146h-160q6 70 38 129t82 103t117.5 68.5t145.5 24.5q94 0 164 -18.5t116 -62.5t68.5 -120.5t22.5 -193.5v-682h-139l-25 127q-55 -68 -128 -107.5 t-161 -39.5q-84 0 -151.5 22.5t-115.5 62t-73.5 94t-25.5 117.5zM274 283q0 -86 67 -137.5t173 -47.5q53 2 99 25.5t81 62.5t54.5 90.5t19.5 108.5v98q-78 0 -165 -3t-159.5 -21.5t-121 -59t-48.5 -116.5zM307 1483h209l168 -309h-145z" />
<glyph unicode="&#xe1;" horiz-adv-x="1085" d="M113 276q0 111 54 177.5t140 101.5q106 43 224 47t235 4v148q0 111 -58.5 157.5t-144.5 46.5q-98 0 -156.5 -60t-68.5 -146h-160q6 70 38 129t82 103t117.5 68.5t145.5 24.5q94 0 164 -18.5t116 -62.5t68.5 -120.5t22.5 -193.5v-682h-139l-25 127q-55 -68 -128 -107.5 t-161 -39.5q-84 0 -151.5 22.5t-115.5 62t-73.5 94t-25.5 117.5zM274 283q0 -86 67 -137.5t173 -47.5q53 2 99 25.5t81 62.5t54.5 90.5t19.5 108.5v98q-78 0 -165 -3t-159.5 -21.5t-121 -59t-48.5 -116.5zM461 1174l168 309h209l-232 -309h-145z" />
<glyph unicode="&#xe2;" horiz-adv-x="1085" d="M113 276q0 111 54 177.5t140 101.5q106 43 224 47t235 4v148q0 111 -58.5 157.5t-144.5 46.5q-98 0 -156.5 -60t-68.5 -146h-160q6 70 38 129t82 103t117.5 68.5t145.5 24.5q94 0 164 -17.5t116 -62.5t68.5 -121.5t22.5 -193.5v-682h-139l-25 127q-55 -68 -128 -107.5 t-161 -39.5q-84 0 -151.5 22.5t-115.5 62t-73.5 94t-25.5 117.5zM274 283q0 -86 67 -138q62 -47 157 -47h16q53 2 99 25.5t81 62.5t54.5 90.5t19.5 108.5v98q-78 0 -165 -3t-159.5 -21.5t-121 -59t-48.5 -116.5zM254 1186l233 295h152l233 -295h-186l-123 196l-123 -196 h-186z" />
<glyph unicode="&#xe3;" horiz-adv-x="1085" d="M113 276q0 111 54 177.5t140 101.5q106 43 224 47t235 4v148q0 111 -58.5 157.5t-144.5 46.5q-98 0 -156.5 -60t-68.5 -146h-160q6 70 38 129t82 103t117.5 68.5t145.5 24.5q94 0 164 -18.5t116 -62.5t68.5 -120.5t22.5 -193.5v-682h-139l-25 127q-55 -68 -128 -107.5 t-161 -39.5q-84 0 -151.5 22.5t-115.5 62t-73.5 94t-25.5 117.5zM238 1145v61q0 82 57 139.5t139 57.5h258q41 0 70 28.5t29 69.5v27h75v-88q0 -82 -56 -139.5t-138 -57.5h-260q-41 0 -70 -28.5t-29 -69.5h-75zM274 283q0 -86 67 -137.5t173 -47.5q53 2 99 25.5t81 62.5 t54.5 90.5t19.5 108.5v98q-78 0 -165 -3t-159.5 -21.5t-121 -59t-48.5 -116.5z" />
<glyph unicode="&#xe4;" horiz-adv-x="1085" d="M113 276q0 111 54 177.5t140 101.5q106 43 224 47t235 4v148q0 111 -58.5 157.5t-144.5 46.5q-98 0 -156.5 -60t-68.5 -146h-160q6 70 38 129t82 103t117.5 68.5t145.5 24.5q94 0 164 -18.5t116 -62.5t68.5 -120.5t22.5 -193.5v-682h-139l-25 127q-55 -68 -128 -107.5 t-161 -39.5q-84 0 -151.5 22.5t-115.5 62t-73.5 94t-25.5 117.5zM197 1360q0 51 35.5 86t86.5 35t86 -35t35 -86t-34.5 -87t-86.5 -36q-51 0 -86.5 36t-35.5 87zM274 283q0 -86 67 -137.5t173 -47.5q53 2 99 25.5t81 62.5t54.5 90.5t19.5 108.5v98q-78 0 -165 -3 t-159.5 -21.5t-121 -59t-48.5 -116.5zM682 1360q0 51 36 86t87 35t87 -35t36 -86t-36 -87t-87 -36t-87 36t-36 87z" />
<glyph unicode="&#xe5;" horiz-adv-x="1085" d="M113 276q0 111 54 177.5t140 101.5q106 43 224 47t235 4v148q0 111 -58.5 157.5t-144.5 46.5q-98 0 -156.5 -60t-68.5 -146h-160q6 70 38 129t82 103t117.5 68.5t145.5 24.5q94 0 164 -18.5t116 -62.5t68.5 -120.5t22.5 -193.5v-682h-139l-25 127q-55 -68 -128 -107.5 t-161 -39.5q-84 0 -151.5 22.5t-115.5 62t-73.5 94t-25.5 117.5zM274 283q0 -86 67 -137.5t173 -47.5q53 2 99 25.5t81 62.5t54.5 90.5t19.5 108.5v98q-78 0 -165 -3t-159.5 -21.5t-121 -59t-48.5 -116.5zM334 1366q0 47 18.5 89t50 74t73.5 50t89 18q49 0 91 -18t73 -50 t49.5 -74t18.5 -89t-18.5 -89t-49.5 -72.5t-73 -49t-91 -18.5q-47 0 -89 18.5t-73.5 49t-50 72.5t-18.5 89zM432 1366q0 -55 39 -94t94 -39t94 39t39 94t-38.5 95t-94.5 40q-55 0 -94 -40t-39 -95z" />
<glyph unicode="&#xe6;" horiz-adv-x="1740" d="M113 281q0 82 36.5 139t95 94t131.5 57.5t145.5 30.5t138 12t106.5 2v138q0 111 -58.5 157.5t-144.5 46.5q-98 0 -156.5 -60t-68.5 -146h-160q6 70 38 129t82 103t117.5 68.5t145.5 24.5q47 0 94 -4t90 -18.5t79 -42t61 -74.5q59 66 142 102.5t179 36.5q92 0 172 -34.5 t140.5 -95t95.5 -140.5t35 -172v-133h-717v-70q0 -63 24.5 -119.5t69.5 -98.5t105.5 -66.5t132.5 -24.5q78 0 145.5 30.5t114.5 82.5l106 -97q-66 -74 -159 -116.5t-207 -42.5q-129 0 -236.5 55t-175.5 151q-66 -98 -160 -152t-213 -54q-76 0 -143.5 23.5t-116.5 64.5 t-77.5 95.5t-28.5 117.5zM274 285q0 -86 67 -138.5t173 -48.5q53 2 99 25.5t81 62.5t54.5 90.5t19.5 108.5v109q-74 -2 -160 -8.5t-160.5 -26t-124 -60t-49.5 -114.5zM932 623h555v57q0 57 -21.5 108.5t-59.5 89t-89 59t-109 21.5q-57 0 -107 -23.5t-88 -62t-59.5 -91 t-21.5 -109.5v-49z" />
<glyph unicode="&#xe7;" horiz-adv-x="1103" d="M113 420v215q0 92 34.5 172t94 140.5t139.5 95t172 34.5q84 0 158.5 -30.5t133 -83t97.5 -123t49 -150.5h-160q-4 55 -27.5 103.5t-60 85t-85 58t-103.5 21.5q-57 0 -107.5 -23.5t-88 -63.5t-59 -92t-21.5 -109v-295q0 -57 21.5 -108.5t59 -89.5t88 -59.5t107.5 -21.5 q55 0 103.5 21.5t85 57.5t60 84t27.5 101h160q-10 -82 -48 -151.5t-96.5 -120.5t-133 -81t-158.5 -30q-92 0 -172 35t-140.5 95.5t-95 140.5t-34.5 172zM440 -334h90q25 0 42.5 17.5t17.5 42.5t-16.5 42t-43.5 17h-49l21 215h119l-41 -104q57 -10 94 -52.5t37 -101.5 q0 -66 -46.5 -112t-111.5 -46h-113v82z" />
<glyph unicode="&#xe8;" horiz-adv-x="1087" d="M113 455v180q0 92 34.5 172t94 140.5t139.5 95t172 34.5t172 -34.5t140.5 -95t95 -140.5t34.5 -172v-129h-716v-74q0 -63 24.5 -119.5t69.5 -98.5t105.5 -66.5t131.5 -24.5q78 0 145.5 30.5t114.5 82.5l107 -97q-66 -74 -159 -116.5t-208 -42.5q-102 0 -192 36.5 t-157.5 101t-107.5 151t-40 186.5zM279 627h555v53q0 57 -21.5 108.5t-59.5 89t-89.5 59t-108.5 21.5t-107.5 -23.5t-88 -62t-59 -91t-21.5 -109.5v-45zM307 1483h209l168 -309h-145z" />
<glyph unicode="&#xe9;" horiz-adv-x="1087" d="M113 455v180q0 92 34.5 172t94 140.5t139.5 95t172 34.5t172 -34.5t140.5 -95t95 -140.5t34.5 -172v-129h-716v-74q0 -63 24.5 -119.5t69.5 -98.5t105.5 -66.5t131.5 -24.5q78 0 145.5 30.5t114.5 82.5l107 -97q-66 -74 -159 -116.5t-208 -42.5q-102 0 -192 36.5 t-157.5 101t-107.5 151t-40 186.5zM279 627h555v53q0 57 -21.5 108.5t-59.5 89t-89.5 59t-108.5 21.5t-107.5 -23.5t-88 -62t-59 -91t-21.5 -109.5v-45zM481 1174l168 309h209l-231 -309h-146z" />
<glyph unicode="&#xea;" horiz-adv-x="1087" d="M113 455v180q0 92 34.5 172t94 140.5t139.5 95t172 34.5t172 -34.5t140.5 -95t95 -140.5t34.5 -172v-129h-716v-74q0 -63 24.5 -119.5t69.5 -98.5t105.5 -66.5t131.5 -24.5q78 0 145.5 30.5t114.5 82.5l107 -97q-66 -74 -159 -116.5t-208 -42.5q-102 0 -192 36.5 t-157.5 101t-107.5 151t-40 186.5zM279 627h555v53q0 57 -21.5 108.5t-59.5 89t-89.5 59t-108.5 21.5t-107.5 -23.5t-88 -62t-59 -91t-21.5 -109.5v-45zM248 1186l233 295h152l233 -295h-186l-123 196l-123 -196h-186z" />
<glyph unicode="&#xeb;" horiz-adv-x="1087" d="M113 455v180q0 92 34.5 172t94 140.5t139.5 95t172 34.5t172 -34.5t140.5 -95t95 -140.5t34.5 -172v-129h-716v-74q0 -63 24.5 -119.5t69.5 -98.5t105.5 -66.5t131.5 -24.5q78 0 145.5 30.5t114.5 82.5l107 -97q-66 -74 -159 -116.5t-208 -42.5q-102 0 -192 36.5 t-157.5 101t-107.5 151t-40 186.5zM195 1360q0 51 35.5 86t86.5 35t86 -35t35 -86t-34.5 -87t-86.5 -36q-51 0 -86.5 36t-35.5 87zM279 627h555v53q0 57 -21.5 108.5t-59.5 89t-89.5 59t-108.5 21.5t-107.5 -23.5t-88 -62t-59 -91t-21.5 -109.5v-45zM680 1360q0 51 36 86 t87 35t87 -35t36 -86t-36 -87t-87 -36t-87 36t-36 87z" />
<glyph unicode="&#xec;" horiz-adv-x="495" d="M-20 1483h208l168 -309h-145zM197 0v1053h165v-1053h-165z" />
<glyph unicode="&#xed;" horiz-adv-x="491" d="M133 0v1053h166v-1053h-166zM135 1174l168 309h209l-231 -309h-146z" />
<glyph unicode="&#xee;" horiz-adv-x="577" d="M-20 1186l233 295h152l233 -295h-186l-123 196l-123 -196h-186zM201 0v1053h164v-1053h-164z" />
<glyph unicode="&#xef;" horiz-adv-x="731" d="M0 1360q0 51 36 86t87 35t86 -35t35 -86t-35 -87t-86 -36t-87 36t-36 87zM285 0v1053h164v-1053h-164zM485 1360q0 51 36 86t87 35t87 -35t36 -86t-36 -87t-87 -36t-87 36t-36 87z" />
<glyph unicode="&#xf0;" horiz-adv-x="1243" d="M133 434q0 98 36 180t98.5 142.5t145.5 94.5t177 36q78 2 162 -31t141 -92q-23 92 -59.5 178t-90.5 166l-309 -143v133l236 110q-61 78 -134 145.5t-153 127.5h170q66 -47 126 -101.5t114 -113.5l297 137v-133l-218 -103q100 -133 159 -285.5t59 -324.5v-123 q0 -100 -38 -184t-103.5 -143.5t-151.5 -93t-185 -33.5q-98 0 -185 33.5t-152.5 93t-103.5 143.5t-38 184zM303 408q0 -63 24.5 -121t66.5 -99t98.5 -65.5t119.5 -24.5t119.5 24.5t97.5 65.5t66 98.5t25 121.5v53q0 66 -25 121t-66 97t-97 65.5t-120 23.5 q-63 0 -119.5 -23.5t-98.5 -65.5t-66.5 -97.5t-24.5 -120.5v-53z" />
<glyph unicode="&#xf1;" horiz-adv-x="1212" d="M164 0v1053h141l25 -123q55 68 136 107.5t177 39.5q84 0 157.5 -31.5t129 -87t87.5 -130t32 -158.5v-670h-166v688q0 57 -21.5 107.5t-59.5 87.5t-88 57.5t-108 17.5q-57 -2 -107 -25.5t-88 -62.5t-59.5 -91t-21.5 -109v-670h-166zM289 1145v61q0 82 57 139.5t139 57.5 h258q41 0 70 28.5t29 69.5v27h76v-88q0 -82 -56.5 -139.5t-138.5 -57.5h-260q-41 0 -69.5 -28.5t-28.5 -69.5h-76z" />
<glyph unicode="&#xf2;" d="M113 420v215q0 92 34.5 172t94 140.5t139.5 95t172 34.5t172 -34.5t140.5 -95t95 -140.5t34.5 -172v-215q0 -92 -34.5 -172t-94 -140.5t-139.5 -95.5t-172 -35t-172 35t-140.5 95.5t-95 140.5t-34.5 172zM279 375q0 -57 21.5 -108.5t59 -89.5t88 -59.5t107.5 -21.5 t108.5 23.5t89.5 62.5t59.5 91.5t21.5 109.5v297q0 57 -21.5 108.5t-59.5 89t-89.5 59t-108.5 21.5t-107.5 -23.5t-88 -63.5t-59 -92t-21.5 -109v-295zM287 1483h209l168 -309h-146z" />
<glyph unicode="&#xf3;" d="M113 420v215q0 92 34.5 172t94 140.5t139.5 95t172 34.5t172 -34.5t140.5 -95t95 -140.5t34.5 -172v-215q0 -92 -34.5 -172t-94 -140.5t-139.5 -95.5t-172 -35t-172 35t-140.5 95.5t-95 140.5t-34.5 172zM279 375q0 -57 21.5 -108.5t59 -89.5t88 -59.5t107.5 -21.5 t108.5 23.5t89.5 62.5t59.5 91.5t21.5 109.5v297q0 57 -21.5 108.5t-59.5 89t-89.5 59t-108.5 21.5t-107.5 -23.5t-88 -63.5t-59 -92t-21.5 -109v-295zM457 1174l168 309h209l-232 -309h-145z" />
<glyph unicode="&#xf4;" d="M113 420v215q0 92 34.5 172t94 140.5t139.5 95t172 34.5t172 -34.5t140.5 -95t95 -140.5t34.5 -172v-215q0 -92 -34.5 -172t-94 -140.5t-139.5 -95.5t-172 -35t-172 35t-140.5 95.5t-95 140.5t-34.5 172zM279 375q0 -57 21.5 -108.5t59 -89.5t88 -59.5t107.5 -21.5 t108.5 23.5t89.5 62.5t59.5 91.5t21.5 109.5v297q0 57 -21.5 108.5t-59.5 89t-89.5 59t-108.5 21.5t-107.5 -23.5t-88 -63.5t-59 -92t-21.5 -109v-295zM242 1186l233 295h152l233 -295h-186l-123 196l-123 -196h-186z" />
<glyph unicode="&#xf5;" d="M113 420v215q0 92 34.5 172t94 140.5t139.5 95t172 34.5t172 -34.5t140.5 -95t95 -140.5t34.5 -172v-215q0 -92 -34.5 -172t-94 -140.5t-139.5 -95.5t-172 -35t-172 35t-140.5 95.5t-95 140.5t-34.5 172zM246 1145v61q0 82 56 139.5t140 57.5h258q41 0 69 28.5t28 69.5 v27h75v-88q0 -82 -55 -139.5t-137 -57.5h-260q-41 0 -69.5 -28.5t-28.5 -69.5h-76zM279 375q0 -57 21.5 -108.5t59 -89.5t88 -59.5t107.5 -21.5t108.5 23.5t89.5 62.5t59.5 91.5t21.5 109.5v297q0 57 -21.5 108.5t-59.5 89t-89.5 59t-108.5 21.5t-107.5 -23.5t-88 -63.5 t-59 -92t-21.5 -109v-295z" />
<glyph unicode="&#xf6;" d="M113 420v215q0 92 34.5 172t94 140.5t139.5 95t172 34.5t172 -34.5t140.5 -95t95 -140.5t34.5 -172v-215q0 -92 -34.5 -172t-94 -140.5t-139.5 -95.5t-172 -35t-172 35t-140.5 95.5t-95 140.5t-34.5 172zM193 1360q0 51 35.5 86t86.5 35t86 -35t35 -86t-34.5 -87 t-86.5 -36q-51 0 -86.5 36t-35.5 87zM279 375q0 -57 21.5 -108.5t59 -89.5t88 -59.5t107.5 -21.5t108.5 23.5t89.5 62.5t59.5 91.5t21.5 109.5v297q0 57 -21.5 108.5t-59.5 89t-89.5 59t-108.5 21.5t-107.5 -23.5t-88 -63.5t-59 -92t-21.5 -109v-295zM678 1360q0 51 36 86 t87 35t87 -35t36 -86t-36 -87t-87 -36t-87 36t-36 87z" />
<glyph unicode="&#xf7;" horiz-adv-x="1460" d="M205 610v152h1050v-152h-1050zM608 266q0 51 36 86t87 35t86 -35t35 -86t-35 -87t-86 -36t-87 36t-36 87zM608 1108q0 51 36 86t87 35t86 -35t35 -86t-35 -87t-86 -36t-87 36t-36 87z" />
<glyph unicode="&#xf8;" d="M113 420v215q0 92 34.5 172t94 140.5t139.5 95t172 34.5q68 0 129 -18l25 67h127l-43 -118q92 -59 148 -156.5t56 -216.5v-215q0 -92 -34.5 -172t-94 -140.5t-139.5 -95.5t-172 -35q-35 0 -67.5 5.5t-65.5 15.5l-25 -68h-118l40 115q-94 59 -150 157.5t-56 217.5z M279 375q0 -59 22.5 -111.5t63.5 -91.5l276 772q-20 6 -41.5 10t-44.5 4q-57 0 -107.5 -23.5t-88 -63.5t-59 -92t-21.5 -109v-295zM463 113q45 -16 92 -17q57 0 108.5 23.5t89.5 62.5t59.5 91.5t21.5 109.5v297q0 59 -24 111.5t-65 91.5z" />
<glyph unicode="&#xf9;" horiz-adv-x="1212" d="M164 383v670h166v-686q0 -57 21.5 -107.5t59.5 -87.5t88 -57.5t107 -18.5t108.5 25.5t89.5 62.5t59.5 90.5t21.5 108.5v670h164v-1051h-140l-24 123q-55 -68 -137 -108t-179 -40q-84 0 -157.5 32t-129 87.5t-87 129t-31.5 157.5zM365 1483h208l168 -309h-145z" />
<glyph unicode="&#xfa;" horiz-adv-x="1212" d="M164 383v670h166v-686q0 -57 21.5 -107.5t59.5 -87.5t88 -57.5t107 -18.5t108.5 25.5t89.5 62.5t59.5 90.5t21.5 108.5v670h164v-1051h-140l-24 123q-55 -68 -137 -108t-179 -40q-84 0 -157.5 32t-129 87.5t-87 129t-31.5 157.5zM444 1174l168 309h209l-231 -309h-146z " />
<glyph unicode="&#xfb;" horiz-adv-x="1212" d="M164 383v670h166v-686q0 -57 21.5 -107.5t59.5 -87.5t88 -57q46 -19 97 -19h10q57 2 108.5 25.5t89.5 62.5t59.5 90.5t21.5 108.5v670h164v-1051h-140l-24 123q-55 -68 -137 -108t-179 -40q-84 0 -157.5 32t-129 87.5t-87 129t-31.5 157.5zM295 1186l233 295h152 l233 -295h-186l-123 196l-123 -196h-186z" />
<glyph unicode="&#xfc;" horiz-adv-x="1212" d="M164 383v670h166v-686q0 -57 21.5 -107.5t59.5 -87.5t88 -57.5t107 -18.5t108.5 25.5t89.5 62.5t59.5 90.5t21.5 108.5v670h164v-1051h-140l-24 123q-55 -68 -137 -108t-179 -40q-84 0 -157.5 32t-129 87.5t-87 129t-31.5 157.5zM240 1360q0 51 35.5 86t86.5 35t86 -35 t35 -86t-34.5 -87t-86.5 -36q-51 0 -86.5 36t-35.5 87zM725 1360q0 51 36 86t87 35t87 -35t36 -86t-36 -87t-87 -36t-87 36t-36 87z" />
<glyph unicode="&#xfd;" horiz-adv-x="1171" d="M123 446v607h166v-623q0 -57 21.5 -107.5t59.5 -87t88 -57t107 -18.5t108.5 25.5t89.5 62.5t59.5 90t21.5 108v607h164v-990q0 -100 -40 -186t-107.5 -150.5t-159 -101.5t-193.5 -37q-115 0 -208 43t-159 117l107 96q47 -51 114.5 -81.5t145.5 -30.5q72 0 133 24.5 t105.5 66.5t70 98t25.5 120v145q-55 -66 -137 -105.5t-177 -39.5q-84 0 -157.5 31.5t-129 87t-87 129t-31.5 157.5zM444 1174l168 309h209l-231 -309h-146z" />
<glyph unicode="&#xfe;" horiz-adv-x="1187" d="M195 -471v2048h161v-647q55 68 136 107.5t178 39.5q84 0 157.5 -31.5t129 -87t87 -130t31.5 -158.5v-287q0 -84 -31.5 -157.5t-87 -129t-129 -87.5t-157.5 -32q-96 0 -177 40t-137 108v-596h-161zM356 383q0 -57 21.5 -108.5t59.5 -90.5t88 -62.5t108 -25.5 q57 -2 108.5 18.5t89 57.5t59 87t21.5 108v321q0 57 -21.5 107.5t-59 87.5t-89 57.5t-108.5 17.5q-57 -2 -107.5 -25.5t-88.5 -62.5t-59.5 -91t-21.5 -109v-287z" />
<glyph unicode="&#xff;" horiz-adv-x="1171" d="M123 446v607h166v-623q0 -57 21.5 -107.5t59.5 -87t88 -57t107 -18.5t108.5 25.5t89.5 62.5t59.5 90t21.5 108v607h164v-990q0 -100 -40 -186t-107.5 -150.5t-159 -101.5t-193.5 -37q-115 0 -208 43t-159 117l107 96q47 -51 114.5 -81.5t145.5 -30.5q72 0 133 24.5 t105.5 66.5t70 98t25.5 120v145q-55 -66 -137 -105.5t-177 -39.5q-84 0 -157.5 31.5t-129 87t-87 129t-31.5 157.5zM205 1360q0 51 35.5 86t87.5 35q51 0 86 -35t35 -86t-35 -87t-86 -36t-87 36t-36 87zM690 1360q0 51 36 86t87 35t87 -35t36 -86t-36 -87t-87 -36t-87 36 t-36 87z" />
<glyph unicode="&#x152;" horiz-adv-x="1984" d="M133 494v499q0 106 40 199.5t109.5 163t164 109.5t200.5 40q98 0 186.5 -34.5t155.5 -94.5v105h862v-121h-692v-502h488v-121h-488v-616h692v-121h-862v109q-68 -61 -156 -96.5t-186 -35.5q-106 0 -200.5 41t-164 111t-109.5 164.5t-40 200.5zM303 440q0 -72 26.5 -134 t74 -108t109.5 -73t134 -27q68 0 129.5 24.5t109.5 66.5t75.5 99.5t27.5 125.5v653q0 68 -27.5 125t-75.5 100t-109.5 67.5t-129.5 24.5q-72 0 -134 -26.5t-109.5 -73.5t-74 -109.5t-26.5 -134.5v-600z" />
<glyph unicode="&#x153;" horiz-adv-x="1804" d="M113 420v215q0 92 34.5 172t94 140.5t139.5 95t172 34.5q111 0 205 -49t153 -135q59 86 153.5 135t205.5 49q92 0 172 -34.5t140 -95t95 -140.5t35 -172v-129h-717v-74q0 -63 24.5 -119.5t70 -98.5t105.5 -66.5t132 -24.5q78 0 145.5 30.5t114.5 82.5l107 -97 q-66 -74 -159 -116.5t-208 -42.5q-125 0 -231.5 53t-173.5 145q-59 -92 -156.5 -146.5t-214.5 -54.5q-92 0 -172 35t-139.5 95.5t-93 140.5t-33.5 172zM279 375q0 -57 21.5 -108.5t59 -89.5t88 -59.5t107.5 -21.5t108.5 23.5t89.5 62.5t59.5 91.5t21.5 109.5v297 q0 57 -21.5 108.5t-59.5 89t-89.5 59t-108.5 21.5t-107.5 -23.5t-88 -63.5t-59 -92t-21.5 -109v-295zM995 627h555v53q0 57 -21.5 108.5t-59 89t-89 59t-108.5 21.5t-107.5 -23.5t-88.5 -62t-59.5 -91t-21.5 -109.5v-45z" />
<glyph unicode="&#x178;" horiz-adv-x="1271" d="M92 1481h211l344 -609l344 609h189l-453 -791v-690h-180v686zM281 1753q0 51 35.5 86t86.5 35t86 -35t35 -86t-34.5 -87t-86.5 -36q-51 0 -86.5 36t-35.5 87zM766 1753q0 51 36 86t87 35t87 -35t36 -86t-36 -87t-87 -36t-87 36t-36 87z" />
<glyph unicode="&#x2c6;" horiz-adv-x="675" d="M29 1186l233 295h152l233 -295h-186l-123 196l-123 -196h-186z" />
<glyph unicode="&#x2dc;" horiz-adv-x="686" d="M29 1124v62q0 82 57 139t139 57h258q41 0 70 29t29 70v26h75v-88q0 -82 -56 -139t-138 -57h-260q-41 0 -70 -29t-29 -70h-75z" />
<glyph unicode="&#x2000;" horiz-adv-x="980" />
<glyph unicode="&#x2001;" horiz-adv-x="1961" />
<glyph unicode="&#x2002;" horiz-adv-x="980" />
<glyph unicode="&#x2003;" horiz-adv-x="1961" />
<glyph unicode="&#x2004;" horiz-adv-x="653" />
<glyph unicode="&#x2005;" horiz-adv-x="489" />
<glyph unicode="&#x2006;" horiz-adv-x="325" />
<glyph unicode="&#x2007;" horiz-adv-x="325" />
<glyph unicode="&#x2008;" horiz-adv-x="243" />
<glyph unicode="&#x2009;" horiz-adv-x="391" />
<glyph unicode="&#x200a;" horiz-adv-x="108" />
<glyph unicode="&#x2010;" horiz-adv-x="843" d="M102 555v152h639v-152h-639z" />
<glyph unicode="&#x2011;" horiz-adv-x="843" d="M102 555v152h639v-152h-639z" />
<glyph unicode="&#x2012;" horiz-adv-x="843" d="M102 555v152h639v-152h-639z" />
<glyph unicode="&#x2013;" horiz-adv-x="1024" d="M0 565v131h1024v-131h-1024z" />
<glyph unicode="&#x2014;" horiz-adv-x="2048" d="M0 565v131h2048v-131h-2048z" />
<glyph unicode="&#x2018;" horiz-adv-x="421" d="M123 1012l22 565h131l23 -565h-176z" />
<glyph unicode="&#x2019;" horiz-adv-x="421" d="M123 1577h176l-23 -565h-131z" />
<glyph unicode="&#x201a;" horiz-adv-x="421" d="M123 264h176l-23 -565h-131z" />
<glyph unicode="&#x201c;" horiz-adv-x="909" d="M164 1012l22 565h131l23 -565h-176zM569 1012l23 565h131l22 -565h-176z" />
<glyph unicode="&#x201d;" horiz-adv-x="907" d="M164 1577h176l-23 -565h-131zM569 1577h176l-22 -565h-131z" />
<glyph unicode="&#x201e;" horiz-adv-x="868" d="M143 264h176l-22 -565h-131zM549 264h176l-23 -565h-131z" />
<glyph unicode="&#x2022;" horiz-adv-x="630" d="M102 741q0 43 16.5 82t46.5 69t68.5 46t81.5 16t82 -16t69 -46t46 -69t16 -82t-16 -81.5t-46 -68.5t-69 -46.5t-82 -16.5t-81.5 16.5t-68.5 46.5t-46.5 68.5t-16.5 81.5z" />
<glyph unicode="&#x2026;" horiz-adv-x="1693" d="M123 123q0 51 36 86t87 35t86 -35t35 -86t-35 -87t-86 -36t-87 36t-36 87zM725 123q0 51 36 86t87 35t86 -35t35 -86t-35 -87t-86 -36t-87 36t-36 87zM1327 123q0 51 36 86t87 35t86 -35t35 -86t-35 -87t-86 -36t-87 36t-36 87z" />
<glyph unicode="&#x202f;" horiz-adv-x="391" />
<glyph unicode="&#x2039;" horiz-adv-x="821" d="M113 604v152l514 379v-195l-371 -260l371 -262v-195z" />
<glyph unicode="&#x203a;" horiz-adv-x="821" d="M184 223v195l371 262l-371 260v195l514 -379v-152z" />
<glyph unicode="&#x205f;" horiz-adv-x="489" />
<glyph unicode="&#x20ac;" horiz-adv-x="1521" d="M143 553l58 121h153v133h-211l60 121h151v65q0 106 40 199.5t109.5 163t163 109.5t199.5 40q102 0 192.5 -36.5t159 -101t111.5 -151t49 -186.5h-168q0 72 -26.5 136.5t-73.5 112.5t-109.5 76.5t-134.5 28.5t-134 -26.5t-108 -73.5t-73 -109.5t-27 -134.5v-112h627 l-59 -121h-568v-133h502l-57 -121h-445v-111q0 -72 27 -134t73 -108t108.5 -73t133.5 -27q72 0 134.5 29t109.5 77t73.5 112.5t26.5 136.5h168q-8 -98 -51 -185.5t-111.5 -152t-157.5 -101t-192 -36.5q-106 0 -199.5 40.5t-163 110.5t-109.5 164t-40 201v57h-211z" />
<glyph unicode="&#x2122;" horiz-adv-x="2148" d="M205 1438v139h737v-139h-293v-809h-162v809h-282zM1065 629v948h188l250 -698l252 698h189v-948h-158v618l-230 -618h-104l-229 618v-618h-158z" />
<glyph unicode="&#xe000;" horiz-adv-x="1055" d="M0 1055h1055v-1055h-1055v1055z" />
<glyph unicode="&#xfb01;" horiz-adv-x="1189" d="M813 1360q0 51 36 86t87 35t86 -35t35 -86t-35 -87t-86 -36t-87 36t-36 87zM844 0v1053h174v-1053h-174zM92 934v119h160v198q0 84 31.5 149.5t86 108.5t127.5 59q35 7 72 7q39 0 80 -8v-121q-35 6 -65 6q-75 0 -113 -41q-53 -57 -53 -184v-174h203v-119h-203v-934h-166 v934h-160z" />
<glyph unicode="&#xfb02;" horiz-adv-x="1210" d="M864 0v1577h162v-1577h-162zM92 934v119h160v198q0 84 31.5 149.5t86 108.5t127.5 59q35 7 72 7q39 0 80 -8v-121q-35 6 -65 6q-75 0 -113 -41q-53 -57 -53 -184v-174h203v-119h-203v-934h-166v934h-160z" />
<glyph unicode="&#xfb03;" horiz-adv-x="1869" d="M1493 1360q0 51 36 86t87 35t86 -35t35 -86t-35 -87t-86 -36t-87 36t-36 87zM1524 0v1053h174v-1053h-174zM772 934v119h160v198q0 84 31.5 149.5t86 108.5t127.5 59q35 7 72 7q39 0 80 -8v-121q-35 6 -65 6q-75 0 -113 -41q-53 -57 -53 -184v-174h203v-119h-203v-934 h-166v934h-160zM92 934v119h160v198q0 84 31.5 149.5t86 108.5t127.5 59q35 7 72 7q39 0 80 -8v-121q-35 6 -65 6q-75 0 -113 -41q-53 -57 -53 -184v-174h203v-119h-203v-934h-166v934h-160z" />
<glyph unicode="&#xfb04;" horiz-adv-x="1890" d="M1544 0v1577h162v-1577h-162zM772 934v119h160v198q0 84 31.5 149.5t86 108.5t127.5 59q35 7 72 7q39 0 80 -8v-121q-35 6 -65 6q-75 0 -113 -41q-53 -57 -53 -184v-174h203v-119h-203v-934h-166v934h-160zM92 934v119h160v198q0 84 31.5 149.5t86 108.5t127.5 59 q35 7 72 7q39 0 80 -8v-121q-35 6 -65 6q-75 0 -113 -41q-53 -57 -53 -184v-174h203v-119h-203v-934h-166v934h-160z" />
</font>
</defs>
</svg>
