<?xml version="1.0" standalone="no"?>
<!DOCTYPE svg PUBLIC "-//W3C//DTD SVG 1.1//EN" "http://www.w3.org/Graphics/SVG/1.1/DTD/svg11.dtd" >
<svg xmlns="http://www.w3.org/2000/svg">
<metadata>
This is a custom SVG webfont generated by Font Squirrel.
Copyright   : Copyright c Tomas Brousil 2004 All rights reserved
Designer    : Tomas Brousil
Foundry     : Tomas Brousil
Foundry URL : wwwsuitcasetypecom
</metadata>
<defs>
<font id="RePublicTextCERegular" horiz-adv-x="1341" >
<font-face units-per-em="2048" ascent="1638" descent="-410" />
<missing-glyph horiz-adv-x="583" />
<glyph unicode=" "  horiz-adv-x="583" />
<glyph unicode="&#x09;" horiz-adv-x="583" />
<glyph unicode="&#xa0;" horiz-adv-x="583" />
<glyph unicode="!" horiz-adv-x="665" d="M190 127q0 59 42 101t102 42q59 0 101 -42t42 -101t-42 -101t-101 -42t-101.5 42t-42.5 101zM195 1458q0 16 16 17h244q16 0 16 -17l-65 -985q0 -16 -17 -16h-110q-16 0 -17 16z" />
<glyph unicode="&#x22;" horiz-adv-x="780" d="M102 1458q0 16 17 17h186q16 0 17 -17l-58 -575q0 -16 -16 -17h-74q-16 0 -16 17zM459 1458q0 16 16 17h187q16 0 16 -17l-57 -575q0 -16 -17 -17h-74q-16 0 -16 17z" />
<glyph unicode="#" horiz-adv-x="1288" d="M61 430v100q0 16 17 17h223l80 389h-207q-16 0 -16 16v101q0 16 16 16h238l92 444q4 16 22 13l92 -19q14 -2 13 -20l-88 -418h346l94 444q4 16 27 13l86 -19q14 -2 12 -20l-88 -418h190q16 0 17 -16v-101q0 -16 -17 -16h-219l-82 -389h205q16 0 16 -17v-100 q0 -16 -16 -16h-233l-97 -447q-2 -14 -20 -12l-92 18q-16 4 -13 19l91 422h-347l-96 -447q-2 -14 -20 -12l-92 18q-16 4 -13 19l88 422h-192q-17 0 -17 16zM430 547h348l82 389h-346z" />
<glyph unicode="$" horiz-adv-x="1187" d="M106 457q4 16 17 16h188q20 0 17 -16q-16 -117 40 -184.5t167 -77.5v473q-100 31 -177 60.5t-127.5 70.5t-76 98t-25.5 145q0 90 34 152.5t91 102.5t130 59.5t151 25.5v183q0 16 16 16h92q16 0 16 -16v-181q94 -2 173 -19t134.5 -57t81 -105.5t15.5 -164.5q0 -16 -16 -16 h-191q-20 0 -16 16q16 111 -37 169.5t-144 70.5v-434q100 -31 179.5 -60.5t134.5 -70.5t83.5 -98.5t28.5 -141.5q0 -180 -101 -274.5t-325 -108.5v-180q0 -16 -16 -16h-92q-16 0 -16 16v176q-244 6 -348 98.5t-81 272.5zM356 1090q0 -78 39 -122t140 -83v391 q-78 -12 -128.5 -56t-50.5 -130zM659 199q117 23 158 82t41 141q0 72 -40 121t-159 86v-430z" />
<glyph unicode="%" horiz-adv-x="1699" d="M102 1122q0 180 88.5 274.5t258.5 94.5q166 0 256 -92t90 -277q0 -178 -90.5 -273t-255.5 -95q-168 0 -257.5 93t-89.5 275zM264 -45l1067 1636q8 14 23 6l80 -53q4 -4 6 -10t-2 -12l-1067 -1637q-8 -12 -23 -4l-80 51q-14 9 -4 23zM303 1122q0 -129 36 -199.5t110 -70.5 q72 0 107.5 70.5t35.5 199.5q0 270 -143 271q-74 0 -110 -70t-36 -201zM905 352q0 180 88 274.5t258 94.5q166 0 256 -92t90 -277q0 -178 -90 -273t-256 -95q-168 0 -257 93t-89 275zM1106 352q0 -129 36 -199.5t109 -70.5q72 0 108 70.5t36 199.5q0 270 -144 271 q-76 0 -110.5 -70t-34.5 -201z" />
<glyph unicode="&#x26;" horiz-adv-x="1517" d="M102 319q0 86 31 153t81 121t113.5 98t127.5 83q-92 106 -141.5 202.5t-49.5 203.5q0 61 20.5 117.5t66.5 99.5t124 68.5t191 25.5q178 0 272 -57.5t94 -198.5q0 -49 -16.5 -93t-54 -90t-100 -97.5t-152.5 -114.5l434 -494q35 45 50 96.5t15 98.5q0 70 -41 129t-149 100 q-18 8 -4 23l84 75q10 10 45 11q43 0 82 -16.5t68.5 -47.5t48 -75t18.5 -99q0 -104 -36 -193.5t-114 -179.5l84 -94q37 -41 58.5 -56.5t50.5 -15.5h37q16 0 16 -16v-70q0 -16 -16 -16h-289q-12 0 -23 10l-94 105q-98 -68 -213.5 -99.5t-238.5 -31.5q-106 0 -194.5 18 t-152 58t-98.5 104.5t-35 154.5zM365 365q0 -53 17 -99.5t55 -81t95.5 -55t137.5 -20.5q66 0 144.5 15t158.5 64l-445 506q-104 -100 -133.5 -181.5t-29.5 -147.5zM471 1229q0 -53 15.5 -103.5t45.5 -85.5l113 -127q51 43 86 82t55.5 78t28.5 80t8 90q0 57 -40 103.5 t-132 46.5q-47 0 -80.5 -15.5t-56 -39t-33 -52t-10.5 -57.5z" />
<glyph unicode="'" horiz-adv-x="423" d="M102 1458q0 16 17 17h186q16 0 17 -17l-56 -575q0 -16 -16 -17h-76q-16 0 -16 17z" />
<glyph unicode="(" horiz-adv-x="737" d="M205 692q0 299 33.5 493.5t98 308.5t156 158t207.5 44q16 0 17 -17v-69q0 -16 -17 -17q-70 0 -120 -43t-81.5 -147.5t-46 -277.5t-14.5 -431q0 -260 14.5 -434t46 -278.5t82 -147.5t119.5 -43q16 0 17 -16v-70q0 -16 -17 -16q-117 0 -208 44t-155.5 156.5t-98 307 t-33.5 495.5z" />
<glyph unicode=")" horiz-adv-x="737" d="M20 -225q0 16 17 16q70 0 120 43t81.5 147.5t46 277.5t14.5 431q0 260 -14.5 434t-46 278.5t-82 147.5t-119.5 43q-16 0 -17 17v69q0 16 17 17q117 0 208 -44t155.5 -158t98 -308.5t33.5 -493.5q0 -301 -33.5 -495.5t-98 -307t-155.5 -156.5t-208 -44q-16 0 -17 16v70z " />
<glyph unicode="*" horiz-adv-x="886" d="M63 938q-8 16 7 23l237 98q14 4 13 18.5t-15 18.5l-235 96q-14 6 -7 22l70 121q4 6 11.5 8.5t11.5 -2.5l204 -157q10 -8 21.5 -1t9.5 21l-35 254q-4 16 17 17h141q6 0 12 -5.5t4 -11.5l-34 -252q-2 -14 9 -22t23 2l203 155q4 4 11.5 2t11.5 -8l69 -121q8 -16 -6 -22 l-235 -96q-14 -4 -14.5 -18.5t14.5 -20.5l235 -96q14 -6 6 -23l-71 -121q-8 -16 -23 -6l-199 156q-14 10 -25 3t-7 -22l32 -252q0 -16 -16 -16h-141q-20 0 -17 16l33 252q4 14 -8 21.5t-23 -2.5l-200 -156q-14 -10 -23 6z" />
<glyph unicode="+" horiz-adv-x="1146" d="M102 674v125q0 16 17 16h377v377q0 16 16 16h125q16 0 16 -16v-377h375q16 0 16 -16v-125q0 -16 -16 -17h-375v-374q0 -16 -16 -17h-125q-16 0 -16 17v374h-377q-17 1 -17 17z" />
<glyph unicode="," horiz-adv-x="587" d="M102 139q14 59 37 95t48.5 55.5t53 26t52.5 6.5q33 0 63.5 -14.5t55 -42t39 -68.5t14.5 -93q0 -51 -19.5 -109t-52.5 -118.5t-73.5 -119t-81.5 -111.5q-10 -14 -23 -8l-65 32q-16 10 -7 25q49 90 66.5 159.5t9.5 123t-39 92t-78 69.5z" />
<glyph unicode="-" horiz-adv-x="647" d="M61 487v125q0 16 17 17h491q16 0 17 -17v-125q0 -16 -17 -16h-491q-17 0 -17 16z" />
<glyph unicode="." horiz-adv-x="583" d="M123 154q0 70 49 119t121 49q70 0 119 -49.5t49 -118.5q0 -72 -49.5 -121t-118.5 -49q-72 0 -121 49t-49 121z" />
<glyph unicode="/" horiz-adv-x="845" d="M10 -254l701 1946q4 14 22 8l90 -31q16 -6 11 -20l-703 -1944q-6 -16 -20 -10l-91 31q-14 6 -10 20z" />
<glyph unicode="0" horiz-adv-x="1343" d="M102 721q0 221 37 369.5t108.5 237.5t180.5 126t252 37q156 0 263.5 -36t173 -123t95 -232.5t29.5 -362.5q0 -211 -31.5 -354t-100.5 -232.5t-178.5 -128t-264.5 -38.5q-156 0 -263.5 34.5t-174 119.5t-96.5 226.5t-30 356.5zM371 729q0 -172 10 -294t41 -199.5 t88 -113.5t152 -36q94 0 154.5 34t95 108.5t48 197.5t13.5 301q0 182 -10.5 309t-42 205t-89 113t-149.5 35q-96 0 -156.5 -37t-95.5 -117t-47 -205t-12 -301z" />
<glyph unicode="1" horiz-adv-x="1071" d="M51 1186v69q0 12 17 17q137 35 249.5 85t174.5 103q4 4 11 9.5t15 5.5h154q18 0 16 -17q-16 -125 -21 -226.5t-5 -221.5v-871q0 -37 36 -37h306q16 0 16 -16v-70q0 -16 -16 -16h-930q-16 0 -17 16v70q0 16 17 16h303q37 0 37 37v1092l-346 -62q-17 -3 -17 17z" />
<glyph unicode="2" horiz-adv-x="1177" d="M111 18q4 90 38.5 174t88 163t122 154t140.5 142q61 57 117.5 113.5t98.5 115t67.5 123t25.5 138.5q0 68 -15.5 113.5t-42 73.5t-62.5 40t-79 12q-129 0 -184 -84t-39 -237q0 -16 -16 -17h-211q-12 0 -17 17q-16 119 14.5 200.5t97.5 133t164 75t214 23.5 q121 0 205 -23.5t137 -68.5t76.5 -110.5t23.5 -149.5q0 -88 -38 -165t-99 -144.5t-137 -128t-152 -119.5q-121 -96 -215 -195.5t-133 -210.5h485q51 0 84 22.5t33 86.5v94q0 16 17 16h135q16 0 16 -16l-8 -363q0 -4 -5 -10t-11 -6h-922q-14 0 -14 18z" />
<glyph unicode="3" horiz-adv-x="1183" d="M109 393q4 16 16 17h207q16 0 16 -17q-16 -141 39 -220t186 -79q49 0 94.5 18.5t79 55.5t53 94t19.5 137q0 106 -26.5 167t-68.5 91.5t-94 39t-104 8.5h-90q-16 0 -16 16v100q0 16 16 17h70q51 0 102 14t91 49t66 91.5t26 137.5q0 250 -213 250q-117 0 -175.5 -88 t-42.5 -239q0 -16 -16 -17h-207q-12 0 -16 17q-14 119 15.5 201.5t94 135t159.5 77t210 24.5q213 0 330 -92t117 -266q0 -68 -21.5 -126.5t-60.5 -104.5t-89.5 -76.5t-109.5 -45.5q57 -6 113.5 -29.5t101.5 -66.5t72.5 -107.5t27.5 -150.5q0 -117 -41 -200t-110.5 -137 t-160.5 -79.5t-194 -25.5q-109 0 -201.5 19.5t-157 67.5t-94 126.5t-13.5 195.5z" />
<glyph unicode="4" horiz-adv-x="1163" d="M31 414v100q0 12 8 21l651 925q10 14 25 15h235q18 0 17 -17q-16 -115 -21.5 -220t-5.5 -228v-478h156q16 0 16 -16v-102q0 -16 -16 -17h-156v-258q0 -37 37 -37h119q16 0 16 -16v-70q0 -16 -16 -16h-666q-16 0 -16 16v70q0 16 16 16h232q37 0 36 37v258h-651 q-16 1 -16 17zM203 532h495v721l-264 -374q-59 -84 -120.5 -174.5t-110.5 -172.5z" />
<glyph unicode="5" horiz-adv-x="1187" d="M106 356q4 16 17 17h203q16 0 16 -17q-14 -117 43 -189.5t182 -72.5q143 0 199.5 97.5t56.5 281.5q0 190 -59 284.5t-189 94.5q-63 0 -109 -17.5t-77 -43t-49 -55t-29 -52.5q-4 -10 -14 -10h-139q-16 0 -17 16v768q0 16 17 17h676q45 0 68.5 16t43.5 65q4 10 15 11h67 q20 0 16 -19q-18 -78 -39.5 -131t-51 -85t-71.5 -46t-104 -14h-489v-414q72 55 141.5 83t167.5 28q264 0 375.5 -120t111.5 -364q0 -106 -28.5 -197t-91 -159t-164 -106.5t-246.5 -38.5q-123 0 -212 27.5t-145.5 76.5t-80 117.5t-11.5 150.5z" />
<glyph unicode="6" horiz-adv-x="1232" d="M102 721q0 217 35 364.5t103.5 237.5t170 129t232.5 39q104 0 192.5 -19.5t151 -66.5t93 -125t18.5 -195q0 -16 -17 -16h-204q-16 0 -17 16q16 137 -41 216t-174 79q-82 0 -135 -30.5t-84 -100t-43 -179t-14 -269.5q82 47 162.5 68.5t166.5 21.5q78 0 155 -13.5 t138.5 -58.5t100 -127t38.5 -221q0 -150 -41.5 -245t-112.5 -149t-163 -73.5t-190 -19.5q-154 0 -254.5 34.5t-159.5 119.5t-83 226.5t-24 356.5zM369 700q0 -164 8 -281.5t34.5 -192t77 -109.5t132.5 -35q133 0 195.5 90t62.5 299q0 154 -59.5 224.5t-188.5 70.5 q-78 0 -143.5 -18.5t-118.5 -47.5z" />
<glyph unicode="7" horiz-adv-x="1126" d="M41 1032l8 434q0 16 17 17q141 -4 252.5 -6t220.5 -2h510q16 0 16 -19v-67q-94 -197 -174 -376t-147.5 -348t-125 -330t-106.5 -321q-6 -14 -16 -14h-238q-6 0 -12 7t-2 18q72 164 145.5 319.5t151 310t161.5 311t175 322.5h-508q-29 0 -56.5 -2t-48 -14t-33 -40 t-12.5 -79v-121q0 -16 -16 -16h-146q-16 0 -16 16z" />
<glyph unicode="8" horiz-adv-x="1300" d="M102 377q0 117 41 192.5t101.5 122.5t132.5 69.5t133 33.5q-63 10 -128 33.5t-117 63.5t-83.5 98.5t-31.5 139.5q0 94 40.5 162t110.5 112t160 65.5t190 21.5q96 0 186.5 -21.5t160 -65.5t111.5 -111.5t42 -162.5q0 -82 -32 -140t-84 -98t-115.5 -63.5t-128.5 -33.5 q61 -10 132.5 -33t132 -70t101.5 -122.5t41 -192.5q0 -111 -44 -185.5t-118.5 -120.5t-174 -66.5t-210.5 -20.5t-211 20.5t-175 66.5t-119 120.5t-44 185.5zM373 383q0 -88 24.5 -144.5t64.5 -88t90 -44t99 -12.5q47 0 96.5 12.5t90.5 45t66.5 89t25.5 142.5 q0 96 -25.5 163.5t-65.5 108.5t-89.5 59.5t-98.5 18.5q-47 0 -96 -19.5t-90 -61.5t-66.5 -108.5t-25.5 -160.5zM412 1120q0 -86 25.5 -137t62.5 -80t77.5 -38t73.5 -9t74 9t78 38t61.5 80t24.5 137q0 74 -20.5 123t-53.5 80t-76 44t-88 13q-47 0 -91 -14t-76.5 -45t-52 -80 t-19.5 -121z" />
<glyph unicode="9" horiz-adv-x="1232" d="M102 1004q0 152 40 245.5t107.5 148t159 74t193.5 19.5q145 0 246.5 -33t164 -115.5t90 -226t27.5 -362.5q0 -217 -35.5 -365.5t-106 -238t-173 -128t-235.5 -38.5q-229 0 -351.5 96t-95.5 291q4 16 17 16h210q20 0 17 -16q-16 -127 39 -202t172 -75q82 0 135 31 t84 100.5t44 179t15 269.5q-84 -47 -163.5 -68.5t-165.5 -21.5q-82 0 -160 15t-139.5 59t-98.5 127.5t-37 218.5zM354 1004q0 -143 56.5 -219t191.5 -76q82 0 146.5 18t117.5 47q0 168 -10 286t-40 191.5t-81 107.5t-133 34q-131 0 -189.5 -90t-58.5 -299z" />
<glyph unicode=":" horiz-adv-x="583" d="M123 154q0 70 49 119t121 49q70 0 119 -49.5t49 -118.5q0 -72 -49.5 -121t-118.5 -49q-72 0 -121 49t-49 121zM123 905q0 70 49 119t121 49q70 0 119 -49t49 -119q0 -72 -49.5 -121t-118.5 -49q-72 0 -121 49t-49 121z" />
<glyph unicode=";" horiz-adv-x="587" d="M102 139q14 59 37 95t48.5 55.5t53 26t52.5 6.5q33 0 63.5 -14.5t55 -42t39 -68.5t14.5 -93q0 -51 -19.5 -109t-52.5 -118.5t-73.5 -119t-81.5 -111.5q-10 -14 -23 -8l-65 32q-16 10 -7 25q49 90 66.5 159.5t9.5 123t-39 92t-78 69.5zM121 905q0 70 49 119t121 49 q70 0 119 -49t49 -119q0 -72 -49.5 -121t-118.5 -49q-72 0 -121 49t-49 121z" />
<glyph unicode="&#x3c;" horiz-adv-x="1095" d="M102 668v129q0 18 11 22l800 408q14 8 21 -8l57 -111q8 -14 -6 -23l-692 -354l692 -354q14 -6 6 -23l-57 -110q-6 -14 -21 -8l-800 409q-11 7 -11 23z" />
<glyph unicode="=" horiz-adv-x="1146" d="M102 461v125q0 16 17 16h909q16 0 16 -16v-125q0 -16 -16 -17h-909q-17 1 -17 17zM102 889v125q0 16 17 16h909q16 0 16 -16v-125q0 -16 -16 -17h-909q-17 1 -17 17z" />
<glyph unicode="&#x3e;" horiz-adv-x="1095" d="M104 360q-8 14 7 23l694 354l-694 355q-14 8 -7 22l58 111q6 16 20 8l801 -410q10 -4 10 -22v-127q0 -16 -10 -23l-801 -409q-14 -6 -20 8z" />
<glyph unicode="?" horiz-adv-x="1116" d="M109 1059q-16 119 13.5 200.5t93 133t153.5 75t190 23.5q135 0 223 -28.5t139.5 -80t72 -121t20.5 -151.5q0 -100 -31 -169t-78 -113t-105.5 -68.5t-113.5 -36.5l-53 -250q-4 -16 -17 -16h-110q-16 0 -17 16l-34 266q0 4 3 9.5t9 7.5q80 25 136 54.5t93 72.5t54.5 103.5 t17.5 143.5q0 125 -53 186.5t-152 61.5q-131 0 -190.5 -83t-42.5 -236q0 -16 -17 -17h-188q-12 1 -16 17zM416 127q0 59 42 101t101 42t101 -42t42 -101t-42 -101t-101 -42t-101 42t-42 101z" />
<glyph unicode="@" horiz-adv-x="2064" d="M102 371q0 201 47.5 357.5t126 273t182 197.5t215 130t224.5 71.5t211 22.5q170 0 323.5 -38.5t272.5 -123.5t188.5 -221.5t69.5 -330.5q0 -135 -35 -257t-103.5 -215.5t-172 -147.5t-238.5 -54q-98 0 -146 43t-63 135q-72 -88 -163 -133t-220 -45q-145 0 -209.5 84 t-64.5 250q0 127 48 242.5t132 203.5t197.5 140.5t244.5 52.5q43 0 89.5 -4.5t90.5 -11.5t85 -16t71 -20q4 -2 10.5 -6t4.5 -14l-105 -590q-6 -33 -9 -66.5t4 -60t27.5 -43t59.5 -16.5q72 0 130.5 41t99 111.5t63 162.5t22.5 195q0 121 -32.5 233.5t-114.5 198.5t-220 137 t-349 51q-154 0 -299.5 -58t-257 -173t-179 -285t-67.5 -393q0 -154 36 -276.5t114.5 -210t205.5 -134.5t309 -47q86 0 154 5.5t126 14.5t110.5 24.5t107.5 37.5q8 4 10 1t4 -5l33 -72q4 -6 1 -8t-5 -4q-123 -66 -261 -93.5t-290 -27.5q-221 0 -380.5 53.5t-263 155 t-153 247t-49.5 329.5zM778 360q0 -102 36 -148t114 -46q53 0 103 28.5t90 74.5t68 103.5t38 114.5q8 41 10 79t6 55l45 247q-55 35 -139 35q-76 0 -143.5 -39t-118.5 -109.5t-80 -171t-29 -223.5z" />
<glyph unicode="A" horiz-adv-x="1536" d="M10 16v70q0 16 17 16h77q20 0 28.5 9.5t17.5 27.5l335 879q41 111 76 212t68 230q4 14 16 15h254q12 0 16 -15q16 -66 38 -136.5t44 -129.5l394 -1055q8 -18 16 -27.5t29 -9.5h73q16 0 17 -16v-70q0 -16 -17 -16h-528q-16 0 -16 16v70q0 16 16 16h113q45 0 32 37 l-133 359h-549l-122 -359q-12 -37 28 -37h127q16 0 17 -16v-70q0 -16 -17 -16h-450q-17 0 -17 16zM489 623h457l-237 641z" />
<glyph unicode="B" horiz-adv-x="1388" d="M51 16v70q0 16 17 16h129q37 0 36 37v1196q0 37 -36 37h-129q-16 0 -17 17v69q0 16 17 17h614q115 0 214 -15.5t172 -55.5t115 -109.5t42 -178.5q0 -145 -87 -233t-231 -117q82 -10 151.5 -35.5t120 -70t79 -109t28.5 -152.5q0 -121 -46 -198.5t-126 -121.5t-184.5 -61.5 t-220.5 -17.5h-641q-17 0 -17 16zM481 152q0 -37 37 -37h180q328 0 328 284q0 88 -25.5 145.5t-74.5 91.5t-122 47t-169 13h-154v-544zM481 811h137q70 0 132.5 13.5t110.5 48t76 93t28 148.5q0 139 -73 192.5t-210 53.5h-164q-37 0 -37 -37v-512z" />
<glyph unicode="C" horiz-adv-x="1402" d="M102 729q0 385 154 573.5t494 188.5q86 0 141 -11.5t90 -23.5t55.5 -23.5t36.5 -11.5q14 0 21 15l12 39q2 4 6 10t10 6h154q16 0 16 -16q-9 -104 -9 -206q0 -34 1 -67q4 -133 8 -221q0 -16 -16 -16h-182q-16 0 -17 16q0 92 -8 166t-40 126t-94.5 80.5t-172.5 28.5 q-119 0 -196 -51t-120 -138t-59 -204t-16 -250q0 -141 11 -260t49 -205t110.5 -134t197.5 -48q102 0 167 35t101.5 88t50 119.5t13.5 130.5q0 16 16 16h195q16 0 16 -16q0 -94 -21.5 -182t-85 -154t-177 -105.5t-297.5 -39.5q-178 0 -297 45t-189.5 137t-99.5 232.5 t-29 330.5z" />
<glyph unicode="D" horiz-adv-x="1519" d="M51 16v70q0 16 17 16h129q37 0 36 37v1196q0 37 -36 37h-129q-16 0 -17 17v69q0 16 17 17h614q170 0 306 -26t231.5 -104.5t146.5 -227t51 -394.5q0 -236 -62.5 -378t-167 -219t-243.5 -101.5t-293 -24.5h-583q-17 0 -17 16zM481 152q0 -37 37 -37h117q98 0 190.5 14 t164 74.5t115.5 182.5t44 337q0 217 -32 344t-94 191.5t-154.5 83t-213.5 18.5h-137q-37 0 -37 -37v-1171z" />
<glyph unicode="E" horiz-adv-x="1357" d="M51 16v70q0 16 17 16h129q37 0 36 37v1196q0 37 -36 37h-129q-16 0 -17 17v69q0 16 17 17h671q59 0 114.5 1t112 2t116 2t128.5 3q16 0 17 -17l8 -385q0 -16 -16 -16h-164q-16 0 -17 16v121q0 80 -33.5 114t-113.5 34h-410v-529h207q41 0 57.5 16.5t16.5 57.5v82 q0 16 16 16h142q14 0 14 -16q-6 -109 -6 -217.5t6 -216.5q0 -16 -16 -17h-140q-16 0 -16 17v80q0 41 -16.5 57t-57.5 16h-207v-571h430q80 0 114 34t34 113v121q0 16 16 17h164q16 0 16 -17l-6 -377q0 -16 -16 -16h-1165q-17 0 -17 16z" />
<glyph unicode="F" horiz-adv-x="1292" d="M51 16v70q0 16 17 16h129q37 0 36 37v1196q0 37 -36 37h-129q-16 0 -17 17v69q0 16 17 17h688q121 0 226 2t224 6q16 0 17 -17l8 -385q0 -16 -17 -16h-163q-16 0 -17 16v121q0 80 -33.5 114t-113.5 34h-406v-529h207q41 0 57.5 16.5t16.5 57.5v82q0 16 16 16h142 q14 0 14 -16q-6 -106 -6 -229t6 -246q0 -16 -16 -17h-140q-16 0 -16 17v121q0 41 -16.5 57t-57.5 16h-207v-557q0 -37 37 -37h256q16 0 17 -16v-70q0 -16 -17 -16h-706q-17 0 -17 16z" />
<glyph unicode="G" horiz-adv-x="1497" d="M102 729q0 385 158 573.5t492 188.5q92 0 153.5 -11.5t101.5 -23.5t62.5 -23.5t38.5 -11.5q14 0 20 15l13 39q2 4 6 10t10 6h143q16 0 17 -16q-4 -63 -6 -127t-2 -122.5t2 -110.5t4 -91q0 -16 -17 -16h-182q-16 0 -16 16q-2 100 -18.5 169t-52.5 111t-95.5 60t-149.5 18 q-125 0 -205.5 -49t-126.5 -136t-63.5 -205t-17.5 -253q0 -145 12 -264t52 -204t119 -132t210 -47q158 0 222.5 43t64.5 115v309q0 37 -37 37h-164q-16 0 -16 16v74q0 14 16 14q53 -2 127 -3t152.5 -1t152.5 1t127 3q16 0 16 -16v-72q0 -16 -16 -16h-74q-37 0 -37 -37v-442 q-51 -27 -109.5 -51.5t-126 -43t-146 -28.5t-173.5 -10q-186 0 -310 45t-197.5 137t-103.5 232.5t-30 330.5z" />
<glyph unicode="H" horiz-adv-x="1665" d="M51 16v70q0 16 17 16h129q37 0 36 37v1196q0 37 -36 37h-129q-16 0 -17 17v69q0 16 17 17h579q16 0 17 -17v-69q0 -16 -17 -17h-129q-37 0 -37 -37v-530h703v530q0 37 -37 37h-129q-16 0 -17 17v69q0 16 17 17h579q16 0 17 -17v-69q0 -16 -17 -17h-129q-37 0 -36 -37 v-1196q0 -37 36 -37h129q16 0 17 -16v-70q0 -16 -17 -16h-579q-16 0 -17 16v70q0 16 17 16h129q37 0 37 37v539h-703v-539q0 -37 37 -37h129q16 0 17 -16v-70q0 -16 -17 -16h-579q-17 0 -17 16z" />
<glyph unicode="I" horiz-adv-x="714" d="M51 16v70q0 16 17 16h129q37 0 36 37v1196q0 37 -36 37h-129q-16 0 -17 17v69q0 16 17 17h579q16 0 17 -17v-69q0 -16 -17 -17h-129q-37 0 -37 -37v-1196q0 -37 37 -37h129q16 0 17 -16v-70q0 -16 -17 -16h-579q-17 0 -17 16z" />
<glyph unicode="J" horiz-adv-x="665" d="M-16 -268q0 16 16 16q72 0 116 9.5t68.5 32t32.5 57t8 87.5v1401q0 37 -37 37h-129q-16 0 -16 17v69q0 16 16 17h580q16 0 16 -17v-69q0 -16 -16 -17h-129q-37 0 -37 -37v-1392q0 -86 -24.5 -147.5t-67.5 -99.5t-102.5 -55.5t-131.5 -17.5q-55 0 -87.5 3t-59.5 9 q-16 4 -16 17v80z" />
<glyph unicode="K" horiz-adv-x="1503" d="M51 16v70q0 16 17 16h129q37 0 36 37v1196q0 37 -36 37h-129q-16 0 -17 17v69q0 16 17 17h579q16 0 17 -17v-69q0 -16 -17 -17h-129q-37 0 -37 -37v-567l600 571q12 12 6 22.5t-22 10.5h-125q-16 0 -16 17v69q0 16 16 17h498q16 0 16 -17v-69q0 -16 -16 -17h-82 q-20 0 -30.5 -7t-27.5 -22l-520 -481l551 -719q16 -18 34.5 -29.5t47.5 -11.5h64q16 0 16 -16v-70q0 -16 -16 -16h-560q-16 0 -16 16v70q0 16 16 16h89q20 0 25 10.5t-5 24.5l-430 559l-113 -106v-451q0 -37 37 -37h105q16 0 16 -16v-70q0 -16 -16 -16h-555q-17 0 -17 16z " />
<glyph unicode="L" horiz-adv-x="1259" d="M51 16v70q0 16 17 16h129q37 0 36 37v1196q0 37 -36 37h-129q-16 0 -17 17v69q0 16 17 17h682q16 0 16 -17v-69q0 -16 -16 -17h-232q-37 0 -37 -37v-1210h260q106 0 165 8t87.5 25.5t34.5 46t8 67.5l13 232q0 16 16 16h168q16 0 16 -16l-37 -504h-1144q-17 0 -17 16z" />
<glyph unicode="M" horiz-adv-x="1972" d="M51 16v70q0 16 17 16h129q37 0 36 37v1196q0 37 -36 37h-129q-16 0 -17 17v69q0 16 17 17h503q10 0 17 -17q35 -115 69.5 -222.5t77.5 -221.5l250 -652l254 666q20 53 37.5 100.5t35 96.5t36 105t41.5 128q6 16 18 17h498q16 0 16 -17v-69q0 -16 -16 -17h-129 q-37 0 -37 -37v-1196q0 -37 37 -37h129q16 0 16 -16v-70q0 -16 -16 -16h-580q-16 0 -16 16v70q0 16 16 16h129q37 0 37 37v1168l-326 -850q-45 -115 -80.5 -217.5t-66.5 -225.5q-4 -14 -17 -14h-137q-12 0 -16 16q-29 123 -68 231.5t-75 207.5l-324 848v-1164q0 -37 37 -37 h129q16 0 16 -16v-70q0 -16 -16 -16h-479q-17 0 -17 16z" />
<glyph unicode="N" horiz-adv-x="1581" d="M20 16v70q0 16 17 16h129q37 0 37 37v1196q0 37 -37 37h-129q-16 0 -17 17v69q0 16 17 17h434q10 0 21 -17q57 -100 124.5 -211.5t139.5 -222.5l477 -748v1059q0 37 -37 37h-129q-16 0 -16 17v69q0 16 16 17h477q16 0 17 -17v-69q0 -16 -17 -17h-129q-37 0 -37 -37v-1319 q0 -16 -16 -16h-248q-12 0 -18 12q-63 111 -134 224.5t-143 226.5l-469 737v-1061q0 -37 37 -37h129q16 0 16 -16v-70q0 -16 -16 -16h-479q-17 0 -17 16z" />
<glyph unicode="O" horiz-adv-x="1542" d="M102 733q0 385 166 571.5t510 186.5q188 0 315.5 -46t204 -139.5t109.5 -232.5t33 -325t-36 -330t-116 -240t-209 -145t-317 -49q-186 0 -313 45t-204 137t-110 233t-33 334zM371 739q0 -152 14 -270.5t57 -201.5t120 -126t202 -43q127 0 206 42t124 123t60 200t15 274 q0 154 -15 273.5t-58 200.5t-121 123t-201 42q-127 0 -206 -43t-123 -125t-59 -199.5t-15 -269.5z" />
<glyph unicode="P" horiz-adv-x="1296" d="M51 16v70q0 16 17 16h129q37 0 36 37v1196q0 37 -36 37h-129q-16 0 -17 17v69q0 16 17 17h516q156 0 276.5 -10.5t203.5 -49.5t127 -117.5t44 -216.5q0 -131 -42 -217t-121 -136t-191.5 -69.5t-253.5 -19.5h-146v-500q0 -37 37 -37h256q16 0 17 -16v-70q0 -16 -17 -16 h-706q-17 0 -17 16zM481 754h121q78 0 144.5 11t116.5 45t79 96.5t29 166.5q0 98 -19.5 154.5t-60.5 86t-104.5 38t-153.5 8.5h-115q-37 0 -37 -37v-569z" />
<glyph unicode="Q" horiz-adv-x="1542" d="M102 733q0 385 166 571.5t510 186.5q188 0 315.5 -46t204 -139.5t109.5 -232.5t33 -325q0 -141 -18.5 -247t-50.5 -182.5t-75 -128t-90 -88.5q78 -66 153 -153.5t130 -173.5q5 -5 5 -14q0 -6 -5 -9l-74 -65q-7 -5 -13 -5q-4 0 -7 3q-55 51 -106.5 94t-103.5 81 t-109.5 71.5t-129.5 68.5q-47 -10 -102.5 -13t-81.5 -3q-186 0 -313 45t-204 137t-110 233t-33 334zM369 739q0 -152 14 -270.5t57 -201.5t120 -126t202 -43q127 0 207 42t125 123t61 200t16 274q0 154 -15 273.5t-59 200.5t-122 123t-201 42q-127 0 -206 -43t-124 -125 t-60 -199.5t-15 -269.5z" />
<glyph unicode="R" horiz-adv-x="1406" d="M51 16v70q0 16 17 16h129q37 0 36 37v1196q0 37 -36 37h-129q-16 0 -17 17v69q0 16 17 17h583q133 0 243 -9.5t187.5 -47.5t120.5 -113.5t43 -206.5q0 -88 -29.5 -154.5t-76.5 -113t-108.5 -74t-125.5 -39.5q43 -59 88 -130t90 -146.5t87 -154.5t77 -153q12 -31 49 -31 h74q16 0 16 -16v-70q0 -16 -16 -16h-330q-12 0 -16 10q-76 178 -166 347t-201 333h-176v-551q0 -37 37 -37h129q16 0 17 -16v-70q0 -16 -17 -16h-579q-17 0 -17 16zM481 805h148q66 0 129 10t113.5 41t81 88t30.5 152q0 86 -19.5 138t-59.5 79.5t-100.5 37t-144.5 9.5h-141 q-37 0 -37 -37v-518z" />
<glyph unicode="S" horiz-adv-x="1271" d="M109 418q4 16 16 16h194q20 0 17 -16q-4 -34 -4 -64q0 -38 6 -71q10 -59 44 -101.5t92 -65t147 -22.5q86 0 143 23.5t92 60.5t49.5 85t14.5 97q0 53 -12.5 93.5t-47.5 73t-96.5 61t-159.5 57.5q-117 37 -205 71t-146 81t-88 117.5t-30 177.5q0 109 39 185.5t108.5 123.5 t165 68.5t207.5 21.5q125 0 222.5 -20.5t162 -68.5t92.5 -127q18 -52 18 -120q0 -35 -5 -76q-4 -16 -17 -16h-194q-16 0 -16 16q4 32 3 61q0 33 -5 62q-9 55 -38.5 95t-85 61.5t-139.5 21.5q-127 0 -196.5 -57t-69.5 -176q0 -61 14.5 -100t50 -67t94 -49.5t144.5 -47.5 q106 -33 195.5 -70t154 -87t100.5 -122t36 -176q0 -111 -31 -194.5t-98.5 -139t-176 -83t-262.5 -27.5q-129 0 -229 23.5t-166 75.5t-93 135q-17 52 -18 118q1 39 7 82z" />
<glyph unicode="T" d="M10 1065l8 401q0 16 17 17q76 -2 131 -3t104 -2l99 -2q49 -1 110 -1h363q61 0 115 1l109 2q54 1 112.5 2t128.5 3q16 0 16 -17l8 -401q0 -16 -16 -16h-164q-16 0 -16 16v137q0 80 -34 114t-114 34h-192v-1211q0 -37 36 -37h242q16 0 17 -16v-70q0 -16 -17 -16h-805 q-16 0 -16 16v70q0 16 16 16h242q37 0 37 37v1211h-193q-80 0 -113.5 -34t-33.5 -114v-137q0 -16 -17 -16h-163q-17 0 -17 16z" />
<glyph unicode="U" horiz-adv-x="1538" d="M51 1389v69q0 16 17 17h579q16 0 17 -17v-69q0 -16 -17 -17h-129q-37 0 -37 -37v-843q0 -88 16.5 -159t55.5 -118t105.5 -72.5t166.5 -25.5q104 0 175 25.5t114 72.5t61.5 117.5t18.5 159.5v843q0 37 -37 37h-125q-16 0 -16 17v69q0 16 16 17h469q16 0 17 -17v-69 q0 -16 -17 -17h-123q-37 0 -37 -37v-837q0 -141 -34.5 -239.5t-104 -160t-173 -88t-238.5 -26.5q-137 0 -242 24.5t-174.5 81.5t-105.5 152.5t-36 238.5v854q0 37 -36 37h-129q-17 1 -17 17z" />
<glyph unicode="V" horiz-adv-x="1511" d="M10 1389v69q0 16 17 17h591q16 0 17 -17v-69q0 -16 -17 -17h-176q-45 0 -32 -37l401 -1126l377 1126q12 37 -29 37h-145q-16 0 -17 17v69q0 16 17 17h471q16 0 16 -17v-69q0 -16 -16 -17h-80q-20 0 -29.5 -9t-15.5 -28l-324 -878q-41 -111 -75.5 -212.5t-67.5 -230.5 q-4 -14 -16 -14h-252q-12 0 -17 14q-16 66 -37.5 136.5t-44.5 130.5l-381 1054q-6 18 -15 27.5t-30 9.5h-73q-17 1 -17 17z" />
<glyph unicode="W" horiz-adv-x="2140" d="M10 1389v69q0 16 17 17h587q16 0 17 -17v-69q0 -16 -17 -17h-176q-41 0 -32 -37l303 -1116l196 778q29 111 44.5 224.5t27.5 238.5q0 14 16 15h203q16 0 16 -15q14 -129 40 -237.5t55 -206.5l223 -797l287 1116q10 37 -29 37h-150q-16 0 -16 17v69q0 16 16 17h476 q16 0 16 -17v-69q0 -16 -16 -17h-80q-20 0 -29.5 -9t-15.5 -28l-258 -882q-33 -113 -61 -215.5t-50 -223.5q-4 -14 -16 -14h-261q-12 0 -16 14q-10 57 -25.5 122t-31 124t-28.5 109.5t-21 81.5l-164 585l-150 -581q-14 -55 -24.5 -107.5t-19.5 -105t-20.5 -108.5t-27.5 -120 q-4 -14 -16 -14h-279q-12 0 -16 14q-10 61 -25.5 126t-31 124.5t-30 108.5t-22.5 80l-250 882q-8 37 -45 37h-73q-17 1 -17 17z" />
<glyph unicode="X" horiz-adv-x="1458" d="M41 16v70q0 16 16 16h70q20 0 36.5 10.5t26.5 26.5l424 559l-421 637q-10 16 -21.5 26.5t-32.5 10.5h-82q-16 0 -16 17v69q0 16 16 17h574q18 0 18 -17v-69q0 -16 -16 -17h-121q-20 0 -27.5 -12t2.5 -29l283 -432l324 436q10 16 4 26.5t-27 10.5h-104q-16 0 -17 17v69 q0 16 17 17h432q18 0 18 -17v-69q0 -16 -16 -17h-60q-20 0 -35.5 -10t-25.5 -27l-426 -563l420 -633q10 -16 19.5 -26.5t29.5 -10.5h78q16 0 16 -16v-70q0 -16 -16 -16h-572q-18 0 -18 16v70q0 16 16 16h127q20 0 27.5 12.5t-2.5 28.5l-279 428l-323 -432q-10 -14 -4 -25.5 t26 -11.5h97q16 0 16 -16v-70q0 -16 -16 -16h-439q-16 0 -16 16z" />
<glyph unicode="Y" horiz-adv-x="1355" d="M10 1389v69q0 16 17 17h587q16 0 17 -17v-69q0 -16 -17 -17h-178q-16 0 -23 -11t1 -26l321 -610l316 610q20 37 -23 37h-131q-16 0 -16 17v69q0 16 16 17h422q16 0 16 -17v-69q0 -16 -16 -17h-47q-35 0 -55 -37l-418 -776v-420q0 -37 37 -37h217q16 0 16 -16v-70 q0 -16 -16 -16h-756q-16 0 -16 16v70q0 16 16 16h217q37 0 37 37v420l-418 776q-10 16 -20.5 26.5t-30.5 10.5h-55q-17 1 -17 17z" />
<glyph unicode="Z" d="M82 20v68l848 1262h-473q-29 0 -56.5 -2t-48 -14.5t-33 -40t-12.5 -79.5v-157q0 -16 -16 -17h-164q-16 0 -16 17l8 409q0 16 16 17q141 -4 269 -6t237 -2h582q16 0 16 -19v-67l-848 -1264h539q55 0 93 23.5t38 93.5v178q0 16 16 16h166q16 0 17 -16l-9 -404 q0 -16 -16 -16h-1139q-14 0 -14 20z" />
<glyph unicode="[" horiz-adv-x="692" d="M205 -295v1974q0 16 16 17h434q16 0 17 -17v-69q0 -16 -17 -17h-225v-1802h225q16 0 17 -16v-70q0 -16 -17 -16h-434q-16 0 -16 16z" />
<glyph unicode="\" horiz-adv-x="845" d="M12 1649q-6 14 11 20l90 31q18 6 22 -8l701 -1946q4 -14 -11 -20l-90 -31q-14 -6 -20 10z" />
<glyph unicode="]" horiz-adv-x="692" d="M20 -225q0 16 17 16h225v1802h-225q-16 0 -17 17v69q0 16 17 17h434q16 0 16 -17v-1974q0 -16 -16 -16h-434q-16 0 -17 16v70z" />
<glyph unicode="^" horiz-adv-x="937" d="M125 774l281 705l6 9q2 3 12 3h92q10 0 12 -3l7 -9l278 -705q8 -14 -8 -20l-94 -35q-14 -6 -23 8l-219 543l-219 -543q-6 -14 -23 -8l-94 35q-14 6 -8 20z" />
<glyph unicode="_" horiz-adv-x="1484" d="M123 -33q0 16 16 17h1207q16 0 16 -17v-86q0 -16 -16 -16h-1207q-16 0 -16 16v86z" />
<glyph unicode="`" horiz-adv-x="555" d="M64.5 1501q5.5 8 13.5 8h213q8 0 14 -10l187 -307q8 -10 1.5 -18.5t-16.5 -8.5h-92q-10 0 -18 9l-299 309q-9 10 -3.5 18z" />
<glyph unicode="a" horiz-adv-x="1200" d="M113 285q0 160 127 244.5t362 84.5q47 0 86 -1t88 -7v129q0 246 -203 246q-88 0 -141 -43t-53 -170q0 -16 -17 -16h-186q-16 0 -16 16q0 96 31.5 156.5t90 93.5t140.5 44t182 11q98 0 174 -14.5t126 -52t77 -103t27 -166.5v-598q0 -37 36 -37h109q16 0 16 -16v-70 q0 -16 -16 -16h-334q-14 0 -16 14l-27 109q-66 -66 -147.5 -102.5t-200.5 -36.5q-57 0 -113.5 12t-101.5 45t-72.5 91.5t-27.5 152.5zM358 301q0 -88 43 -134t121 -46q70 0 119 19.5t81 48t46 59.5t14 55q0 23 -1 39t-2 31.5t-2 32t-1 38.5v58q-49 12 -85 14t-85 2 q-121 0 -184.5 -56.5t-63.5 -160.5z" />
<glyph unicode="b" horiz-adv-x="1265" d="M51 1491v70q0 16 17 16h362q16 0 16 -16v-625q63 68 141.5 102.5t200.5 34.5q199 0 292.5 -132t93.5 -392q0 -129 -27 -233.5t-83 -178.5t-144.5 -113.5t-208.5 -39.5q-55 0 -97.5 8t-78 23.5t-67.5 35t-67 43.5q-14 8 -24 -4l-60 -82q-6 -8 -14 -8h-137q-6 0 -11 7 t-1 16q29 63 45 129.5t16 173.5v1112q0 37 -37 37h-110q-17 0 -17 16zM440 266q0 -23 9.5 -51.5t34 -54t66.5 -43t107 -17.5q141 0 206 106.5t65 323.5q0 78 -7.5 152t-31 131t-70.5 92t-127 35q-68 0 -115 -20.5t-77.5 -49t-45 -62.5t-14.5 -58q0 -23 1 -39.5t2 -31.5 t2 -31.5t1 -39.5v-200q0 -23 -1 -39.5t-2 -31.5t-2 -31.5t-1 -39.5z" />
<glyph unicode="c" horiz-adv-x="1093" d="M92 504q0 287 119 428t391 141q195 0 297 -77.5t102 -262.5q0 -16 -16 -16h-197q-16 0 -16 16q0 131 -51 185.5t-143 54.5q-57 0 -102.5 -18.5t-76 -67.5t-46 -134t-15.5 -216q0 -143 13.5 -232.5t41 -138.5t71.5 -65.5t103 -16.5q100 0 152.5 67.5t52.5 167.5 q0 16 16 17h197q16 0 16 -17q0 -158 -102 -246.5t-321 -88.5q-125 0 -216.5 25.5t-151.5 86t-89 159.5t-29 249z" />
<glyph unicode="d" horiz-adv-x="1263" d="M92 510q0 129 26.5 233.5t84 177t144.5 112.5t208 40q102 0 162.5 -25.5t101.5 -52.5v443q0 37 -37 37h-116q-16 0 -17 16v70q0 16 17 16h368q16 0 17 -16v-1422q0 -37 36 -37h109q16 0 16 -16v-70q0 -16 -16 -16h-334q-14 0 -16 14l-27 111q-63 -68 -141 -104.5 t-201 -36.5q-201 0 -293 135t-92 391zM338 528q0 -80 7 -153.5t31.5 -130t71 -90t125.5 -33.5q72 0 120 21.5t77 53t42 65.5t13 58q0 23 -1 39.5t-2 32t-2 31.5t-1 39v190q0 23 1 39.5t2 31.5t2 31.5t1 39.5q0 27 -11 56.5t-36.5 54t-67.5 39.5t-106 15 q-145 0 -205.5 -113.5t-60.5 -316.5z" />
<glyph unicode="e" horiz-adv-x="1142" d="M92 502q0 152 34 260t99.5 178t159.5 101.5t217 31.5q119 0 204 -23.5t139 -85t80 -168t26 -270.5q0 -16 -17 -16h-694q0 -137 19.5 -221t54.5 -130t82 -61.5t100 -15.5q61 0 102 21.5t67 55.5t37 72.5t11 71.5q0 16 16 16h197q16 0 16 -16q-4 -141 -114.5 -230 t-333.5 -89q-123 0 -217 23.5t-156.5 83t-95.5 158.5t-33 253zM342 606h467q0 117 -17.5 189.5t-47 112.5t-67.5 53.5t-81 13.5q-41 0 -84 -11.5t-79 -50.5t-60.5 -111.5t-30.5 -195.5z" />
<glyph unicode="f" horiz-adv-x="714" d="M51 16v70q0 16 17 16h110q37 0 37 37v815h-147q-16 0 -17 17v69q0 16 17 17h147v205q0 176 99.5 253.5t273.5 77.5q102 0 161.5 -25.5t89 -67.5t34.5 -95q2 -24 3 -48q0 -29 -4 -59q0 -16 -18 -16h-152q-20 0 -16 16q5 32 5 60q0 48 -15 86q-25 59 -115 59 q-84 0 -113.5 -42t-29.5 -105q0 -72 14 -123t14 -105v-71h195q16 0 16 -17v-69q0 -16 -16 -17h-195v-815q0 -37 37 -37h146q16 0 16 -16v-70q0 -16 -16 -16h-561q-17 0 -17 16z" />
<glyph unicode="g" horiz-adv-x="1202" d="M92 -147q0 45 15.5 81.5t41 67.5t56.5 55.5t61 44.5q-43 29 -58 67t-15 83q0 43 22.5 92t75.5 100q-84 33 -125 94.5t-41 184.5q0 172 107.5 261t330.5 89q104 0 162.5 -10t94.5 -22.5t61.5 -22.5t64.5 -10q53 0 100.5 14t79.5 27q8 4 16.5 -0.5t8.5 -14.5v-69 q0 -8 -6 -15q-43 -33 -87 -53t-73 -29q8 -29 11 -51t3 -59q0 -172 -101 -261t-339 -89q-55 0 -96 4t-70 8q-29 -48 -28 -86q0 -19 7 -36q22 -50 115 -50h193q115 0 193.5 -20.5t127 -60.5t70 -96.5t21.5 -127.5q0 -84 -42 -150.5t-116 -113t-173 -72t-214 -25.5 q-129 0 -217 20.5t-140.5 56.5t-75 85.5t-22.5 108.5zM301 -104q0 -98 63.5 -158t219.5 -60q154 0 225.5 63.5t71.5 152.5q0 92 -49.5 126.5t-165.5 34.5h-297q-31 -29 -49.5 -67.5t-18.5 -91.5zM348 752q0 -47 9.5 -92.5t33 -80t65.5 -55t107 -20.5q66 0 108 17.5t65.5 48 t32.5 70.5t9 85q0 53 -9 99t-33.5 80t-66.5 54.5t-108 20.5t-107.5 -18.5t-65 -49t-32 -71.5t-8.5 -88z" />
<glyph unicode="h" horiz-adv-x="1323" d="M51 16v70q0 16 17 16h110q37 0 37 37v1299q0 37 -37 37h-110q-16 0 -17 16v70q0 16 17 16h362q16 0 16 -16v-629q61 68 141.5 104.5t200.5 36.5q100 0 163 -25.5t98.5 -67.5t48 -95.5t12.5 -106.5v-639q0 -37 37 -37h108q16 0 17 -16v-70q0 -16 -17 -16h-505 q-16 0 -17 16v70q0 16 17 16h92q37 0 37 37v428v145q0 67 -14.5 116t-52.5 76.5t-116 27.5q-74 0 -124 -20.5t-78.5 -49t-41 -60.5t-12.5 -54q0 -23 1 -39.5t2 -31.5t2 -31.5t1 -39.5v-467q0 -37 37 -37h90q16 0 17 -16v-70q0 -16 -17 -16h-505q-17 0 -17 16z" />
<glyph unicode="i" horiz-adv-x="700" d="M92 16v70q0 16 17 16h110q37 0 37 37v779q0 37 -37 36h-110q-16 0 -17 17v69q0 16 17 17h362q16 0 16 -17v-901q0 -37 37 -37h109q16 0 16 -16v-70q0 -16 -16 -16h-524q-17 0 -17 16zM215 1358q0 59 41 100t100 41t100.5 -41t41.5 -100t-41 -100t-101 -41q-59 0 -100 41 t-41 100z" />
<glyph unicode="j" horiz-adv-x="681" d="M-10 -375q0 16 16 17q70 0 114 8t69.5 31.5t36 67.5t10.5 116v1053q0 37 -37 36h-111q-16 0 -16 17v69q0 16 16 17h363q16 0 16 -17v-1202q0 -84 -23.5 -144.5t-65.5 -100t-99.5 -58t-122.5 -18.5q-61 0 -91 4t-59 8q-16 4 -16 16v80zM195 1358q0 59 40.5 100t100.5 41 q59 0 100 -41t41 -100t-41 -100t-100 -41t-100 41t-41 100z" />
<glyph unicode="k" horiz-adv-x="1288" d="M51 16v70q0 16 17 16h110q37 0 37 37v1299q0 37 -37 37h-110q-16 0 -17 16v70q0 16 17 16h362q16 0 16 -16v-1018l373 381q12 12 6 21t-22 9h-125q-16 0 -16 17v69q0 16 16 17h502q16 0 16 -17v-69q0 -16 -16 -17h-142q-20 0 -30.5 -7t-26.5 -21l-258 -256l399 -531 q31 -37 76 -37h64q16 0 16 -16v-70q0 -16 -16 -16h-488q-16 0 -16 16v70q0 16 16 16h62q20 0 26 10.5t-6 24.5l-287 383l-123 -123v-258q0 -37 37 -37h78q16 0 17 -16v-70q0 -16 -17 -16h-493q-17 0 -17 16z" />
<glyph unicode="l" horiz-adv-x="659" d="M51 16v70q0 16 17 16h110q37 0 37 37v1299q0 37 -37 37h-110q-16 0 -17 16v70q0 16 17 16h362q16 0 16 -16v-1422q0 -37 37 -37h109q16 0 16 -16v-70q0 -16 -16 -16h-524q-17 0 -17 16z" />
<glyph unicode="m" horiz-adv-x="1888" d="M51 16v70q0 16 17 16h110q37 0 37 37v779q0 37 -37 36h-110q-16 0 -17 17v69q0 16 17 17h362q16 0 16 -17v-108q61 68 131 104.5t187 36.5q111 0 176.5 -33.5t95.5 -113.5q37 37 73 64.5t76 46t87 27.5t106 9q168 0 232.5 -74.5t64.5 -220.5v-639q0 -37 37 -37h109 q16 0 16 -16v-70q0 -16 -16 -16h-498q-16 0 -16 16v70q0 16 16 16h84q37 0 37 37v428q0 29 0.5 80t0.5 75q0 60 -11 105q-12 49 -45 77t-103 28q-72 0 -118 -20.5t-71.5 -49t-35.5 -60.5t-10 -54q0 -45 5 -70t5 -72v-467q0 -37 37 -37h86q16 0 16 -16v-70q0 -16 -16 -16 h-475q-16 0 -17 16v70q0 16 17 16h84q37 0 36 37v428q0 29 1 80t1 75q0 60 -12 105q-12 49 -45 77t-102 28q-72 0 -117 -20.5t-70.5 -49t-35 -60.5t-9.5 -54q0 -23 1 -39.5t2 -31.5t2 -31.5t1 -39.5v-467q0 -37 37 -37h86q16 0 17 -16v-70q0 -16 -17 -16h-501q-17 0 -17 16z " />
<glyph unicode="n" horiz-adv-x="1323" d="M51 16v70q0 16 17 16h110q37 0 37 37v779q0 37 -37 36h-110q-16 0 -17 17v69q0 16 17 17h362q16 0 16 -17v-108q61 68 141.5 104.5t200.5 36.5q100 0 163 -25.5t98.5 -67.5t48 -95.5t12.5 -106.5v-639q0 -37 37 -37h108q16 0 17 -16v-70q0 -16 -17 -16h-505q-16 0 -17 16 v70q0 16 17 16h92q37 0 37 37v428v145q0 67 -14.5 116t-52.5 76.5t-116 27.5q-74 0 -124 -20.5t-78.5 -49t-41 -60.5t-12.5 -54q0 -23 1 -39.5t2 -31.5t2 -31.5t1 -39.5v-467q0 -37 37 -37h90q16 0 17 -16v-70q0 -16 -17 -16h-505q-17 0 -17 16z" />
<glyph unicode="o" horiz-adv-x="1208" d="M92 502q0 279 125 425t387 146q141 0 239.5 -29.5t159 -92t87 -160t26.5 -232.5t-26.5 -241.5t-86 -181.5t-157.5 -113.5t-240 -38.5q-143 0 -241.5 28.5t-159 91t-87 161t-26.5 237.5zM338 543q0 -104 11 -190.5t41 -147t82 -94t136 -33.5t135.5 27.5t79 83t37.5 135 t10 184.5q0 111 -11 198t-41 147t-82 93t-136 33q-82 0 -133 -29.5t-80 -85t-39 -136.5t-10 -185z" />
<glyph unicode="p" horiz-adv-x="1265" d="M51 -381q0 16 17 16h110q37 0 37 37v1246q0 37 -37 36h-110q-16 0 -17 17v69q0 16 17 17h362q16 0 16 -17v-104q63 68 141.5 102.5t200.5 34.5q201 0 293.5 -134t92.5 -390q0 -131 -28 -235.5t-84 -178.5t-143.5 -112.5t-207.5 -38.5q-106 0 -166 27.5t-99 54.5v-394 q0 -37 37 -37h170q16 0 17 -16v-70q0 -16 -17 -16h-585q-16 0 -17 16v70zM440 266q0 -23 10.5 -51.5t35 -54t66.5 -43t105 -17.5q147 0 209 112t62 318q0 76 -6.5 149t-31 131t-70.5 94t-126 36q-68 0 -116 -20.5t-78.5 -49t-45 -62.5t-14.5 -58q0 -23 1 -39.5t2 -31.5 t2 -31.5t1 -39.5v-200q0 -23 -1 -38l-2 -31q-1 -15 -2 -31.5t-1 -41.5z" />
<glyph unicode="q" horiz-adv-x="1265" d="M92 504q0 131 26.5 236.5t83 179t144.5 113.5t209 40q59 0 102 -8t78 -22.5t65.5 -35t63.5 -44.5q14 -10 25 4l59 82q6 8 15 8h137q6 0 11 -7.5t1 -15.5q-29 -63 -45 -135t-16 -178v-1049q0 -37 36 -37h111q16 0 16 -16v-70q0 -16 -16 -16h-588q-16 0 -16 16v70 q0 16 16 16h172q37 0 37 37v437q-61 -59 -140 -92t-202 -33q-203 0 -294 136t-91 384zM338 528q0 -80 6 -155.5t30.5 -134t72 -93t126.5 -34.5q68 0 116 19.5t78 49t44 63t14 60.5q0 23 -1 39t-2 31.5t-2 32t-1 38.5v205q0 23 1 39.5t2 31.5t2 31.5t1 39.5q0 25 -10 53 t-34.5 53t-67.5 42t-109 17q-145 0 -205.5 -108.5t-60.5 -319.5z" />
<glyph unicode="r" horiz-adv-x="929" d="M51 16v70q0 16 17 16h110q37 0 37 37v779q0 37 -37 36h-110q-16 0 -17 17v69q0 16 17 17h362q16 0 16 -17v-108q63 68 128 104.5t165 36.5q82 0 123 -36t57 -87q13 -43 12 -89v-18q-3 -56 -11 -98q-4 -16 -19 -16h-176q-20 0 -16 16q3 26 3 49q0 56 -19 86q-26 42 -79 42 q-43 0 -75.5 -19.5t-54 -47.5t-33 -60.5t-11.5 -59.5q0 -23 1 -39t2 -31.5t2 -32t1 -38.5v-455q0 -37 37 -37h179q16 0 16 -16v-70q0 -16 -16 -16h-594q-17 0 -17 16z" />
<glyph unicode="s" horiz-adv-x="1021" d="M86 291q0 16 16 16h185q20 0 16 -16q-4 -23 -4 -43q0 -63 38 -106q50 -56 148 -56q131 0 185.5 45t54.5 123q0 33 -10 57.5t-39 46t-80 41t-133 43.5q-102 31 -171 62t-111 70.5t-59.5 90t-17.5 119.5q0 78 33 132.5t91.5 89t137 51t169.5 16.5q104 0 181 -13t126 -45 t70 -86q16 -39 16 -93q0 -20 -2 -43q0 -16 -17 -17h-184q-20 0 -16 17q3 18 3 34q0 23 -6 42q-11 34 -36 57.5t-62 37t-80 13.5q-100 0 -151 -36t-51 -114q0 -31 7 -55t31.5 -45.5t73.5 -43t133 -46.5q74 -20 140.5 -45t117 -61.5t81 -91t30.5 -134.5q0 -76 -24.5 -136 t-78 -101t-139.5 -62.5t-206 -21.5q-137 0 -221.5 23.5t-127.5 65.5t-54 98q-7 33 -6 68q0 25 3 52z" />
<glyph unicode="t" horiz-adv-x="800" d="M10 971v69q0 16 17 17q49 0 88 8t68.5 38t47 86t23.5 152q0 16 16 17h125q16 0 17 -17v-247q0 -37 37 -37h260q16 0 16 -17v-69q0 -16 -16 -17h-297v-688q0 -43 14 -74.5t51 -50t102 -23.5q25 -2 54 -2q48 0 110 5q16 0 19 -12l8 -78q0 -16 -12 -21q-88 -12 -158 -19 t-154 -7q-137 0 -201.5 70.5t-64.5 248.5v651h-153q-17 1 -17 17z" />
<glyph unicode="u" horiz-adv-x="1292" d="M20 971v69q0 16 17 17h362q16 0 17 -17v-551v-147q0 -68 15 -116t54 -74.5t119 -26.5q66 0 113 18.5t77.5 46t45 60.5t14.5 59q0 23 -1 39.5t-2 31.5t-2 31.5t-1 39.5v467q0 37 -37 36h-111q-16 0 -16 17v69q0 16 16 17h363q16 0 16 -17v-901q0 -37 37 -37h109 q16 0 16 -16v-70q0 -16 -16 -16h-334q-12 0 -17 16l-26 109q-63 -68 -141 -104.5t-201 -36.5q-100 0 -162.5 25.5t-97.5 67.5t-48.5 95t-13.5 107v639q0 37 -37 36h-110q-17 1 -17 17z" />
<glyph unicode="v" horiz-adv-x="1132" d="M20 971v69q0 16 17 17h475q16 0 16 -17v-69q0 -16 -16 -17h-125q-20 0 -24.5 -13t2.5 -30l276 -731l248 729q8 23 -3.5 34t-31.5 11h-111q-16 0 -16 17v69q0 16 16 17h353q16 0 16 -17v-69q0 -16 -16 -17h-31q-16 0 -28.5 -13t-18.5 -32l-324 -893q-4 -16 -16 -16h-205 q-6 0 -10 6t-6 10l-340 906q-12 33 -37 32h-43q-17 1 -17 17z" />
<glyph unicode="w" horiz-adv-x="1746" d="M20 971v69q0 16 17 17h465q16 0 16 -17v-69q0 -16 -16 -17h-125q-20 0 -23.5 -13t0.5 -30l244 -721l170 644q16 63 31.5 116.5t23.5 102.5q4 16 17 16h159q16 0 17 -16q4 -53 20.5 -106.5t34.5 -119.5l193 -634l233 716q6 20 -4 32.5t-31 12.5h-114q-16 0 -17 17v69 q0 16 17 17h362q16 0 16 -17v-69q0 -16 -16 -17h-33q-16 0 -28.5 -13t-18.5 -32l-311 -893q-4 -16 -21 -16h-186q-16 0 -22 16l-218 725l-208 -725q-4 -16 -21 -16h-197q-14 0 -20 16l-309 906q-12 33 -37 32h-43q-17 1 -17 17z" />
<glyph unicode="x" horiz-adv-x="1159" d="M31 16v70q0 16 16 16h43q16 0 24.5 5.5t24.5 23.5l332 375l-303 424q-10 16 -18.5 20t-22.5 4h-76q-16 0 -16 17v69q0 16 16 17h471q16 0 17 -17v-69q0 -16 -17 -17h-71q-12 0 -17.5 -8t0.5 -18l182 -256l222 256q8 10 3 18t-16 8h-77q-16 0 -17 17v69q0 16 17 17h364 q16 0 16 -17v-69q0 -16 -16 -17h-65q-20 0 -33 -9t-25 -23l-307 -347l317 -442q23 -31 45 -31h68q16 0 16 -16v-70q0 -16 -16 -16h-473q-16 0 -16 16v70q0 16 16 16h82q12 0 17 8.5t-1 18.5l-200 281l-244 -281q-10 -10 -5 -18.5t17 -8.5h107q16 0 16 -16v-70q0 -16 -16 -16 h-365q-16 0 -16 16z" />
<glyph unicode="y" horiz-adv-x="1134" d="M16 971v69q0 16 17 17h475q16 0 16 -17v-69q0 -16 -16 -17h-127q-20 0 -24.5 -13t1.5 -30l271 -716l266 714q6 20 -4 32.5t-31 12.5h-117q-16 0 -16 17v69q0 16 16 17h359q16 0 16 -17v-69q0 -16 -16 -17h-31q-16 0 -27.5 -13t-19.5 -32l-379 -989q-84 -219 -183.5 -311 t-232.5 -92q-53 0 -89 5t-68 13q-10 2 -11.5 4t0.5 10l50 166q2 14 18 11q63 -23 118 -33q22 -4 42 -4q31 0 59 9q47 15 87 62t75 140l-397 1022q-12 33 -37 32h-43q-17 1 -17 17z" />
<glyph unicode="z" horiz-adv-x="1050" d="M72 18v56l606 878h-303q-31 0 -55.5 -3t-43 -17t-27.5 -44t-9 -85v-60q0 -16 -17 -16h-123q-16 0 -16 16l8 306q0 16 17 16q66 -4 148.5 -6t160.5 -2h536q16 0 17 -19v-53l-609 -879h347q51 0 83.5 23t32.5 86v96q0 16 17 17h121q16 0 16 -17l-8 -295q0 -4 -5 -10t-12 -6 h-866q-16 0 -16 18z" />
<glyph unicode="{" horiz-adv-x="698" d="M41 649v86q0 16 16 17h76q43 0 64.5 24.5t21.5 89.5v424q0 90 22.5 165t74 128t136.5 83t210 30q16 0 16 -17v-69q0 -16 -16 -17q-70 0 -113 -26.5t-66.5 -73.5t-31 -112.5t-7.5 -143.5v-246q0 -125 -28.5 -192.5t-106.5 -106.5q78 -35 106.5 -104.5t28.5 -194.5v-246 q0 -78 7.5 -143t31 -112.5t66.5 -74t113 -26.5q16 0 16 -16v-70q0 -16 -16 -16q-125 0 -210 29.5t-136.5 83t-74 128t-22.5 164.5v424q0 66 -21.5 90.5t-64.5 24.5h-76q-16 0 -16 16z" />
<glyph unicode="|" horiz-adv-x="434" d="M143 -385v2064q0 16 17 17h114q16 0 17 -17v-2064q0 -16 -17 -16h-114q-17 0 -17 16z" />
<glyph unicode="}" horiz-adv-x="698" d="M20 -225q0 16 17 16q72 0 114 26.5t65.5 74t30.5 113t7 142.5v246q0 125 28.5 194.5t106.5 104.5q-78 39 -106.5 106.5t-28.5 192.5v246q0 78 -7 143.5t-30.5 112.5t-65.5 73.5t-114 26.5q-16 0 -17 17v69q0 16 17 17q125 0 210 -30t136 -83t73.5 -128t22.5 -165v-424 q0 -66 21.5 -90t64.5 -24h76q16 0 16 -17v-86q0 -16 -16 -16h-76q-43 0 -64.5 -24.5t-21.5 -90.5v-424q0 -90 -22.5 -164.5t-73.5 -128t-136 -83t-210 -29.5q-16 0 -17 16v70z" />
<glyph unicode="~" horiz-adv-x="1269" d="M102 608l15 80q23 129 98.5 181.5t175.5 52.5q43 0 79 -11.5t81 -29.5l242 -101q27 -10 64.5 -23.5t84.5 -13.5q37 0 65.5 21.5t43.5 69.5l14 49q2 6 7 11t13 3l68 -14q16 -4 14 -17l-14 -80q-20 -109 -87 -171t-183 -62q-43 0 -81 11t-83 30l-242 102q-27 10 -64.5 23.5 t-88.5 13.5q-78 0 -105 -90l-14 -51q-2 -6 -7 -11.5t-14 -2.5l-67 14q-17 4 -15 16z" />
<glyph d="M10 1065l8 401q0 16 17 17q76 -2 131 -3t104 -2l99 -2q49 -1 110 -1h363q61 0 115 1l109 2q54 1 112.5 2t128.5 3q16 0 16 -17l8 -401q0 -16 -16 -16h-164q-16 0 -16 16v137q0 80 -34 114t-114 34h-192v-1211q0 -37 36 -37h242q16 0 17 -16v-70q0 -16 -17 -16h-805 q-16 0 -16 16v70q0 16 16 16h242q37 0 37 37v1211h-193q-80 0 -113.5 -34t-33.5 -114v-137q0 -16 -17 -16h-163q-17 0 -17 16zM322.5 1835q5.5 8 15.5 8h188q8 0 19 -10l157 -193l154 193q6 10 14 10h127q8 0 12.5 -8t0.5 -14l-226 -260q-8 -8 -16 -9h-199q-8 0 -16 9 l-227 256q-9 10 -3.5 18z" />
<glyph unicode="&#x164;" d="M10 1065l8 401q0 16 17 17q76 -2 131 -3t104 -2l99 -2q49 -1 110 -1h363q61 0 115 1l109 2q54 1 112.5 2t128.5 3q16 0 16 -17l8 -401q0 -16 -16 -16h-164q-16 0 -16 16v137q0 80 -34 114t-114 34h-192v-1211q0 -37 36 -37h242q16 0 17 -16v-70q0 -16 -17 -16h-805 q-16 0 -16 16v70q0 16 16 16h242q37 0 37 37v1211h-193q-80 0 -113.5 -34t-33.5 -114v-137q0 -16 -17 -16h-163q-17 0 -17 16zM322.5 1835q5.5 8 15.5 8h188q8 0 19 -10l157 -193l154 193q6 10 14 10h127q8 0 12.5 -8t0.5 -14l-226 -260q-8 -8 -16 -9h-199q-8 0 -16 9 l-227 256q-9 10 -3.5 18z" />
<glyph d="M82 20v68l848 1262h-473q-29 0 -56.5 -2t-48 -14.5t-33 -40t-12.5 -79.5v-157q0 -16 -16 -17h-164q-16 0 -16 17l8 409q0 16 16 17q141 -4 269 -6t237 -2h582q16 0 16 -19v-67l-848 -1264h539q55 0 93 23.5t38 93.5v178q0 16 16 16h166q16 0 17 -16l-9 -404 q0 -16 -16 -16h-1139q-14 0 -14 20zM329 1835q5 8 15 8h188q8 0 19 -10l158 -193l153 193q6 10 15 10h127q8 0 12 -8t0 -14l-225 -260q-8 -8 -17 -9h-199q-8 0 -16 9l-227 256q-8 10 -3 18z" />
<glyph unicode="&#x17d;" d="M82 20v68l848 1262h-473q-29 0 -56.5 -2t-48 -14.5t-33 -40t-12.5 -79.5v-157q0 -16 -16 -17h-164q-16 0 -16 17l8 409q0 16 16 17q141 -4 269 -6t237 -2h582q16 0 16 -19v-67l-848 -1264h539q55 0 93 23.5t38 93.5v178q0 16 16 16h166q16 0 17 -16l-9 -404 q0 -16 -16 -16h-1139q-14 0 -14 20zM329 1835q5 8 15 8h188q8 0 19 -10l158 -193l153 193q6 10 15 10h127q8 0 12 -8t0 -14l-225 -260q-8 -8 -17 -9h-199q-8 0 -16 9l-227 256q-8 10 -3 18z" />
<glyph d="M82 20v68l848 1262h-473q-29 0 -56.5 -2t-48 -14.5t-33 -40t-12.5 -79.5v-157q0 -16 -16 -17h-164q-16 0 -16 17l8 409q0 16 16 17q141 -4 269 -6t237 -2h582q16 0 16 -19v-67l-848 -1264h539q55 0 93 23.5t38 93.5v178q0 16 16 16h166q16 0 17 -16l-9 -404 q0 -16 -16 -16h-1139q-14 0 -14 20zM549 1560.5q-6 8.5 2 18.5l188 254q6 10 19 10h227q8 0 14.5 -9t-4.5 -17l-311 -256q-4 -4 -8 -6.5t-10 -2.5h-101q-10 0 -16 8.5z" />
<glyph unicode="&#x179;" d="M82 20v68l848 1262h-473q-29 0 -56.5 -2t-48 -14.5t-33 -40t-12.5 -79.5v-157q0 -16 -16 -17h-164q-16 0 -16 17l8 409q0 16 16 17q141 -4 269 -6t237 -2h582q16 0 16 -19v-67l-848 -1264h539q55 0 93 23.5t38 93.5v178q0 16 16 16h166q16 0 17 -16l-9 -404 q0 -16 -16 -16h-1139q-14 0 -14 20zM549 1560.5q-6 8.5 2 18.5l188 254q6 10 19 10h227q8 0 14.5 -9t-4.5 -17l-311 -256q-4 -4 -8 -6.5t-10 -2.5h-101q-10 0 -16 8.5z" />
<glyph horiz-adv-x="800" d="M10 971v69q0 16 17 17q49 0 88 8t68.5 38t47 86t23.5 152q0 16 16 17h125q16 0 17 -17v-247q0 -37 37 -37h260q16 0 16 -17v-69q0 -16 -16 -17h-297v-688q0 -43 14 -74.5t51 -50t101.5 -23.5t164.5 3q16 0 19 -12l8 -78q0 -16 -12 -21q-88 -12 -158 -19t-154 -7 q-137 0 -201.5 70.5t-64.5 248.5v651h-153q-17 1 -17 17zM518 1174l23 323q4 43 29.5 61.5t72.5 18.5q68 0 83 -41t-1 -90l-121 -275q-2 -12 -16 -12h-56q-14 1 -14 15z" />
<glyph unicode="&#x165;" horiz-adv-x="800" d="M10 971v69q0 16 17 17q49 0 88 8t68.5 38t47 86t23.5 152q0 16 16 17h125q16 0 17 -17v-247q0 -37 37 -37h260q16 0 16 -17v-69q0 -16 -16 -17h-297v-688q0 -43 14 -74.5t51 -50t101.5 -23.5t164.5 3q16 0 19 -12l8 -78q0 -16 -12 -21q-88 -12 -158 -19t-154 -7 q-137 0 -201.5 70.5t-64.5 248.5v651h-153q-17 1 -17 17zM518 1174l23 323q4 43 29.5 61.5t72.5 18.5q68 0 83 -41t-1 -90l-121 -275q-2 -12 -16 -12h-56q-14 1 -14 15z" />
<glyph horiz-adv-x="1050" d="M72 18v56l606 878h-303q-31 0 -55.5 -3t-43 -17t-27.5 -44t-9 -85v-60q0 -16 -17 -16h-123q-16 0 -16 16l8 306q0 16 17 16q66 -4 148.5 -6t160.5 -2h536q16 0 17 -19v-53l-609 -879h347q51 0 83.5 23t32.5 86v96q0 16 17 17h121q16 0 16 -17l-8 -295q0 -4 -5 -10t-12 -6 h-866q-16 0 -16 18zM205 1501q6 8 16 8h176q10 0 15 -10l151 -242l150 242q6 10 14 10h111q8 0 14 -7t0 -15l-225 -313q-8 -8 -15 -9h-163q-10 0 -15 9l-227 309q-8 10 -2 18z" />
<glyph unicode="&#x17e;" horiz-adv-x="1050" d="M72 18v56l606 878h-303q-31 0 -55.5 -3t-43 -17t-27.5 -44t-9 -85v-60q0 -16 -17 -16h-123q-16 0 -16 16l8 306q0 16 17 16q66 -4 148.5 -6t160.5 -2h536q16 0 17 -19v-53l-609 -879h347q51 0 83.5 23t32.5 86v96q0 16 17 17h121q16 0 16 -17l-8 -295q0 -4 -5 -10t-12 -6 h-866q-16 0 -16 18zM205 1501q6 8 16 8h176q10 0 15 -10l151 -242l150 242q6 10 14 10h111q8 0 14 -7t0 -15l-225 -313q-8 -8 -15 -9h-163q-10 0 -15 9l-227 309q-8 10 -2 18z" />
<glyph unicode="&#xa1;" horiz-adv-x="774" d="M63.5 1501q6.5 8 16.5 8h176q10 0 14 -10l152 -242l149 242q6 10 15 10h110q8 0 14.5 -7t0.5 -15l-226 -313q-8 -8 -14 -9h-164q-10 0 -14 9l-227 309q-9 10 -2.5 18z" />
<glyph unicode="&#x2c7;" horiz-adv-x="774" d="M63.5 1501q6.5 8 16.5 8h176q10 0 14 -10l152 -242l149 242q6 10 15 10h110q8 0 14.5 -7t0.5 -15l-226 -313q-8 -8 -14 -9h-164q-10 0 -14 9l-227 309q-9 10 -2.5 18z" />
<glyph unicode="&#xa2;" horiz-adv-x="757" d="M61 1462q0 18 19 19h55q6 0 11.5 -6.5t7.5 -12.5q12 -84 61 -132t166 -48q115 0 164 49t61 131q2 6 6 12.5t13 6.5h55q16 0 16 -19q0 -68 -18.5 -126t-56 -102t-97 -69.5t-143.5 -25.5t-144.5 25.5t-99.5 69.5t-57.5 102t-18.5 126z" />
<glyph unicode="&#x2d8;" horiz-adv-x="757" d="M61 1462q0 18 19 19h55q6 0 11.5 -6.5t7.5 -12.5q12 -84 61 -132t166 -48q115 0 164 49t61 131q2 6 6 12.5t13 6.5h55q16 0 16 -19q0 -68 -18.5 -126t-56 -102t-97 -69.5t-143.5 -25.5t-144.5 25.5t-99.5 69.5t-57.5 102t-18.5 126z" />
<glyph unicode="&#xa3;" horiz-adv-x="1259" d="M29 426v96q0 16 12 25l192 88v700q0 37 -36 37h-129q-16 0 -17 17v69q0 16 17 17h682q16 0 16 -17v-69q0 -16 -16 -17h-232q-37 0 -37 -37v-585l396 186q6 4 14 1t8 -13v-95q0 -18 -10 -24l-408 -191v-489h260q106 0 165 8t87.5 25.5t34.5 46t8 67.5l13 232q0 16 16 16 h168q16 0 16 -16l-37 -504h-1144q-16 0 -17 16v70q0 16 17 16h129q37 0 36 37v361l-182 -86q-8 -4 -15 0t-7 12z" />
<glyph unicode="&#x141;" horiz-adv-x="1259" d="M29 426v96q0 16 12 25l192 88v700q0 37 -36 37h-129q-16 0 -17 17v69q0 16 17 17h682q16 0 16 -17v-69q0 -16 -16 -17h-232q-37 0 -37 -37v-585l396 186q6 4 14 1t8 -13v-95q0 -18 -10 -24l-408 -191v-489h260q106 0 165 8t87.5 25.5t34.5 46t8 67.5l13 232q0 16 16 16 h168q16 0 16 -16l-37 -504h-1144q-16 0 -17 16v70q0 16 17 16h129q37 0 36 37v361l-182 -86q-8 -4 -15 0t-7 12z" />
<glyph unicode="&#xa4;" horiz-adv-x="1445" d="M158 70q-10 12 0 22l153 156q-47 55 -70.5 135t-23.5 164q0 90 25.5 167t68.5 134l-153 151q-10 12 0 23l90 90q12 12 22 0l152 -154q59 47 139 72t164 25q98 0 176 -31t125 -66l152 154q12 12 22 0l88 -90q12 -10 0 -23l-151 -151q47 -61 69.5 -139t22.5 -162 q0 -94 -24.5 -167t-69.5 -134l153 -154q12 -10 0 -22l-88 -90q-10 -12 -22 0l-154 153q-61 -47 -142 -70.5t-159 -23.5q-104 0 -178 29.5t-123 64.5l-152 -153q-10 -12 -22 0zM393 543q0 -154 88 -246t242 -92t242 92t88 246q0 72 -23.5 135t-66.5 110.5t-103.5 75 t-134.5 27.5q-76 0 -137.5 -25.5t-104.5 -71.5t-66.5 -109.5t-23.5 -141.5z" />
<glyph unicode="&#xa5;" horiz-adv-x="1536" d="M10 16v70q0 16 17 16h77q20 0 28.5 9.5t17.5 27.5l335 879q41 111 76 212t68 230q4 14 16 15h254q12 0 16 -15q16 -66 38 -136.5t44 -129.5l394 -1055q8 -18 16 -27.5t29 -9.5h73q16 0 17 -16v-70q0 -16 -17 -16h-188q-37 -53 -57.5 -92t-31.5 -67.5t-14.5 -50 t-3.5 -42.5q0 -39 31 -59.5t72 -20.5q29 0 62.5 4t70.5 19q14 4 18 -8l17 -35q6 -10 -6 -19q-59 -35 -111.5 -50t-130.5 -15q-94 0 -141 44t-47 105q0 63 37.5 129t130.5 158h-236q-16 0 -16 16v70q0 16 16 16h113q45 0 32 37l-133 359h-549l-122 -359q-12 -37 28 -37h127 q16 0 17 -16v-70q0 -16 -17 -16h-450q-17 0 -17 16zM489 623h457l-237 641z" />
<glyph unicode="&#x104;" horiz-adv-x="1536" d="M10 16v70q0 16 17 16h77q20 0 28.5 9.5t17.5 27.5l335 879q41 111 76 212t68 230q4 14 16 15h254q12 0 16 -15q16 -66 38 -136.5t44 -129.5l394 -1055q8 -18 16 -27.5t29 -9.5h73q16 0 17 -16v-70q0 -16 -17 -16h-188q-37 -53 -57.5 -92t-31.5 -67.5t-14.5 -50 t-3.5 -42.5q0 -39 31 -59.5t72 -20.5q29 0 62.5 4t70.5 19q14 4 18 -8l17 -35q6 -10 -6 -19q-59 -35 -111.5 -50t-130.5 -15q-94 0 -141 44t-47 105q0 63 37.5 129t130.5 158h-236q-16 0 -16 16v70q0 16 16 16h113q45 0 32 37l-133 359h-549l-122 -359q-12 -37 28 -37h127 q16 0 17 -16v-70q0 -16 -17 -16h-450q-17 0 -17 16zM489 623h457l-237 641z" />
<glyph unicode="&#xa6;" horiz-adv-x="434" d="M143 360q0 16 17 17h114q16 0 17 -17v-745q0 -16 -17 -16h-114q-16 0 -17 16v745zM143 934v745q0 16 17 17h114q16 0 17 -17v-745q0 -16 -17 -16h-114q-17 0 -17 16z" />
<glyph unicode="&#xa7;" horiz-adv-x="1212" d="M106 -80q4 16 17 17h188q20 0 17 -17q-16 -119 54.5 -191.5t207.5 -72.5q76 0 129 17.5t88 48t51 70.5t16 83t-13 76t-46 59.5t-89 51t-142 49.5q-109 33 -194 65.5t-143.5 75.5t-88 103.5t-29.5 150.5q0 53 17.5 99t45 85t63.5 67.5t75 45.5q-104 49 -152.5 117.5 t-48.5 191.5q0 94 40 159.5t108.5 106.5t159.5 59.5t194 18.5q115 0 204 -17.5t149 -57.5t87 -106.5t16 -164.5q-4 -16 -16 -16h-190q-20 0 -17 16q16 111 -46 176.5t-191 65.5q-113 0 -187.5 -47.5t-74.5 -145.5q0 -45 19 -78.5t58 -61.5t98.5 -50.5t141.5 -46.5 q106 -31 185 -66t131.5 -79t78 -100t25.5 -132q0 -63 -15.5 -112.5t-41 -86.5t-59.5 -62.5t-73 -45.5q92 -53 144.5 -120t52.5 -179q0 -190 -124 -289t-398 -99q-150 0 -248 24t-153.5 70t-74 115.5t-6.5 159.5zM336 563q0 -49 17.5 -84t69.5 -65.5t145.5 -60t242.5 -70.5 q39 35 62.5 82t23.5 106q0 49 -24.5 86t-80 69.5t-145.5 64.5t-221 71q-43 -39 -66.5 -80t-23.5 -119z" />
<glyph unicode="&#xa8;" horiz-adv-x="827" d="M61 1354q0 53 36 88t87 35q53 0 88 -35t35 -88t-34.5 -88t-88.5 -35q-51 0 -87 35t-36 88zM520 1354q0 53 35 88t88 35t88 -35t35 -88t-35 -88t-88 -35t-88 35t-35 88z" />
<glyph unicode="&#xa9;" horiz-adv-x="1712" d="M102 737q0 176 44 315.5t136.5 236.5t234.5 149.5t339 52.5t339 -52.5t234.5 -149.5t136.5 -236.5t44 -315.5q0 -174 -44 -314t-136.5 -237.5t-234.5 -149.5t-339 -52t-339 52t-234.5 149.5t-136.5 237.5t-44 314zM225 737q0 -150 36 -269.5t113 -203.5t195.5 -129 t286.5 -45t287 45t195.5 129t112.5 204t36 269q0 150 -36 269.5t-112.5 203.5t-195.5 129t-287 45t-286.5 -45t-195.5 -129t-113 -203.5t-36 -269.5zM457 737q0 238 96 353.5t301 115.5q201 0 284 -72.5t83 -226.5q0 -10 -11 -10h-184q-10 0 -10 10q0 98 -35 144.5 t-133 46.5q-59 0 -96 -22.5t-57.5 -67.5t-28 -112t-7.5 -157q0 -104 11.5 -174.5t34 -111.5t57.5 -58.5t82 -17.5q55 0 89 13t52.5 38t24.5 60.5t6 78.5q0 10 10 11h184q10 0 11 -11q0 -59 -14.5 -113.5t-55.5 -95.5t-114.5 -65.5t-194.5 -24.5q-207 0 -296 113.5t-89 355.5 z" />
<glyph unicode="&#xaa;" horiz-adv-x="1271" d="M109 418q4 16 16 16h194q20 0 17 -16q-8 -76 2 -135.5t44 -101.5t92 -64.5t147 -22.5q86 0 143 23.5t92 60.5t49.5 85t14.5 97q0 53 -12.5 93.5t-47.5 73t-96.5 61t-159.5 57.5q-117 37 -205 71t-146 81t-88 117.5t-30 177.5q0 109 39 185.5t108.5 123.5t165 68.5 t207.5 21.5q125 0 222.5 -20.5t162 -68.5t92 -127t13.5 -196q-4 -16 -17 -16h-194q-16 0 -16 16q8 68 -1.5 123t-39 95t-85 61.5t-139.5 21.5q-127 0 -196.5 -57t-69.5 -176q0 -61 14.5 -100t50 -67t94 -49.5t144.5 -47.5q106 -33 195.5 -70t154 -87t100.5 -122t36 -176 q0 -211 -115 -321.5t-383 -120.5l-41 -92q51 0 94 -7.5t75 -26t49 -51t17 -81.5q0 -66 -61 -115t-166 -49q-37 0 -65.5 2t-55 8t-52.5 17.5t-54 29.5q-12 8 -6 19l12 30q4 12 20 6q39 -16 76 -19t68 -3q47 0 76.5 21.5t29.5 58.5q0 18 -6 34.5t-24.5 26.5t-53.5 16.5 t-94 6.5q-10 0 -15 7t-1 15l65 146q-119 2 -211 27.5t-152.5 77.5t-83.5 133t-9 194z" />
<glyph unicode="&#x15e;" horiz-adv-x="1271" d="M109 418q4 16 16 16h194q20 0 17 -16q-8 -76 2 -135.5t44 -101.5t92 -64.5t147 -22.5q86 0 143 23.5t92 60.5t49.5 85t14.5 97q0 53 -12.5 93.5t-47.5 73t-96.5 61t-159.5 57.5q-117 37 -205 71t-146 81t-88 117.5t-30 177.5q0 109 39 185.5t108.5 123.5t165 68.5 t207.5 21.5q125 0 222.5 -20.5t162 -68.5t92 -127t13.5 -196q-4 -16 -17 -16h-194q-16 0 -16 16q8 68 -1.5 123t-39 95t-85 61.5t-139.5 21.5q-127 0 -196.5 -57t-69.5 -176q0 -61 14.5 -100t50 -67t94 -49.5t144.5 -47.5q106 -33 195.5 -70t154 -87t100.5 -122t36 -176 q0 -211 -115 -321.5t-383 -120.5l-41 -92q51 0 94 -7.5t75 -26t49 -51t17 -81.5q0 -66 -61 -115t-166 -49q-37 0 -65.5 2t-55 8t-52.5 17.5t-54 29.5q-12 8 -6 19l12 30q4 12 20 6q39 -16 76 -19t68 -3q47 0 76.5 21.5t29.5 58.5q0 18 -6 34.5t-24.5 26.5t-53.5 16.5 t-94 6.5q-10 0 -15 7t-1 15l65 146q-119 2 -211 27.5t-152.5 77.5t-83.5 133t-9 194z" />
<glyph unicode="&#xab;" horiz-adv-x="1224" d="M102 532v74q0 14 11 23l456 401q12 8 25 -4l55 -55q10 -10 0 -21l-327 -381l325 -379q12 -12 4 -20l-57 -57q-12 -12 -25 -4l-456 401q-11 8 -11 22zM571 532v74q0 14 11 23l456 401q12 8 25 -4l55 -55q10 -10 0 -21l-327 -381l325 -379q12 -12 4 -20l-57 -57 q-12 -12 -25 -4l-456 401q-11 8 -11 22z" />
<glyph unicode="&#xad;" horiz-adv-x="647" d="M61 487v125q0 16 17 17h491q16 0 17 -17v-125q0 -16 -17 -16h-491q-17 0 -17 16z" />
<glyph unicode="&#xae;" horiz-adv-x="1712" d="M102 737q0 176 44 315.5t136.5 236.5t234.5 149.5t339 52.5t339 -52.5t234.5 -149.5t136.5 -236.5t44 -315.5q0 -174 -44 -314t-136.5 -237.5t-234.5 -149.5t-339 -52t-339 52t-234.5 149.5t-136.5 237.5t-44 314zM225 737q0 -150 36 -269.5t113 -203.5t195.5 -129 t286.5 -45t287 45t195.5 129t112.5 204t36 269q0 150 -36 269.5t-112.5 203.5t-195.5 129t-287 45t-286.5 -45t-195.5 -129t-113 -203.5t-36 -269.5zM551 289v897q0 10 10 10h266q78 0 144.5 -7t117 -31.5t79 -71t28.5 -125.5q0 -55 -18.5 -98.5t-49 -75t-71.5 -52 t-86 -26.5q53 -76 114.5 -175.5t133.5 -242.5q4 -12 -9 -12h-161q-8 0 -11 6q-53 111 -107 208t-124 197h-88v-401q0 -10 -10 -10h-148q-10 0 -10 10zM731 795h68q43 0 81 5t66.5 20.5t45 44t16.5 75.5q0 84 -39 113.5t-142 29.5h-73q-23 0 -23 -22v-266z" />
<glyph unicode="&#xaf;" d="M82 20v68l848 1262h-473q-29 0 -56.5 -2t-48 -14.5t-33 -40t-12.5 -79.5v-157q0 -16 -16 -17h-164q-16 0 -16 17l8 409q0 16 16 17q141 -4 269 -6t237 -2h582q16 0 16 -19v-67l-848 -1264h539q55 0 93 23.5t38 93.5v178q0 16 16 16h166q16 0 17 -16l-9 -404 q0 -16 -16 -16h-1139q-14 0 -14 20zM526 1722q0 59 41 100.5t101 41.5q59 0 100 -41t41 -101q0 -59 -41 -100t-100 -41t-100.5 41t-41.5 100z" />
<glyph unicode="&#x17b;" d="M82 20v68l848 1262h-473q-29 0 -56.5 -2t-48 -14.5t-33 -40t-12.5 -79.5v-157q0 -16 -16 -17h-164q-16 0 -16 17l8 409q0 16 16 17q141 -4 269 -6t237 -2h582q16 0 16 -19v-67l-848 -1264h539q55 0 93 23.5t38 93.5v178q0 16 16 16h166q16 0 17 -16l-9 -404 q0 -16 -16 -16h-1139q-14 0 -14 20zM526 1722q0 59 41 100.5t101 41.5q59 0 100 -41t41 -101q0 -59 -41 -100t-100 -41t-100.5 41t-41.5 100z" />
<glyph unicode="&#xb0;" horiz-adv-x="843" d="M102 1171q0 70 24 128.5t67 101.5t101 66.5t128 23.5t128 -23.5t101 -66.5t66.5 -101.5t23.5 -128.5q0 -68 -23.5 -126t-66.5 -101t-101 -67.5t-128 -24.5t-128 24.5t-101 67.5t-67 101t-24 126zM233 1171q0 -86 51.5 -143t137.5 -57t137 57t51 143t-51 145.5t-137 59.5 t-137.5 -59.5t-51.5 -145.5z" />
<glyph unicode="&#xb1;" horiz-adv-x="1146" d="M102 16v125q0 16 17 17h909q16 0 16 -17v-125q0 -16 -16 -16h-909q-17 0 -17 16zM102 688v125q0 16 17 16h377v363q0 16 16 16h125q16 0 16 -16v-363h375q16 0 16 -16v-125q0 -16 -16 -16h-375v-363q0 -16 -16 -16h-125q-16 0 -16 16v363h-377q-17 0 -17 16z" />
<glyph unicode="&#xb2;" horiz-adv-x="561" d="M61 -287q0 37 13.5 75t43 81t77 94t116.5 113h76q-55 -76 -87 -128t-48 -88t-20.5 -61.5t-4.5 -50.5q0 -39 31 -59.5t72 -20.5q29 0 62.5 4t70.5 19q14 4 18 -8l17 -35q6 -10 -6 -19q-59 -35 -111.5 -50t-130.5 -15q-94 0 -141.5 44t-47.5 105z" />
<glyph unicode="&#x2db;" horiz-adv-x="561" d="M61 -287q0 37 13.5 75t43 81t77 94t116.5 113h76q-55 -76 -87 -128t-48 -88t-20.5 -61.5t-4.5 -50.5q0 -39 31 -59.5t72 -20.5q29 0 62.5 4t70.5 19q14 4 18 -8l17 -35q6 -10 -6 -19q-59 -35 -111.5 -50t-130.5 -15q-94 0 -141.5 44t-47.5 105z" />
<glyph unicode="&#xb3;" horiz-adv-x="659" d="M10 604v98q0 18 13 23l192 90v623q0 37 -37 37h-110q-16 0 -17 16v70q0 16 17 16h362q16 0 16 -16v-639l185 86q6 4 13 1t7 -14v-94q0 -18 -8 -24l-197 -91v-647q0 -37 37 -37h109q16 0 16 -16v-70q0 -16 -16 -16h-524q-16 0 -17 16v70q0 16 17 16h110q37 0 37 37v539 l-182 -84q-8 -4 -15.5 -1t-7.5 11z" />
<glyph unicode="&#x142;" horiz-adv-x="659" d="M10 604v98q0 18 13 23l192 90v623q0 37 -37 37h-110q-16 0 -17 16v70q0 16 17 16h362q16 0 16 -16v-639l185 86q6 4 13 1t7 -14v-94q0 -18 -8 -24l-197 -91v-647q0 -37 37 -37h109q16 0 16 -16v-70q0 -16 -16 -16h-524q-16 0 -17 16v70q0 16 17 16h110q37 0 37 37v539 l-182 -84q-8 -4 -15.5 -1t-7.5 11z" />
<glyph unicode="&#xb4;" horiz-adv-x="555" d="M63.5 1173.5q-6.5 8.5 2.5 18.5l186 307q6 10 14 10h213q8 0 13.5 -8t-3.5 -18l-299 -309q-8 -8 -18 -9h-92q-10 0 -16.5 8.5z" />
<glyph unicode="&#xb5;" horiz-adv-x="1292" d="M20 971v69q0 16 17 17h362q16 0 17 -17v-610q0 -45 -2 -72.5t-2 -74.5q0 -23 5 -50.5t23.5 -51t57.5 -40t106 -16.5q66 0 113 18.5t77.5 46t45 60.5t14.5 59q0 23 -1 39.5t-2 31.5t-2 31.5t-1 39.5v467q0 37 -37 36h-111q-16 0 -16 17v69q0 16 16 17h363q16 0 16 -17 v-901q0 -37 37 -37h109q16 0 16 -16v-70q0 -16 -16 -16h-334q-12 0 -17 16l-26 109q-57 -66 -130 -103.5t-165 -37.5q-53 0 -84 13t-59 30q0 -37 3 -65t3 -50v-363q0 -16 -17 -16h-198q-16 0 -17 16v1369q0 37 -37 36h-110q-17 1 -17 17z" />
<glyph unicode="&#xb6;" horiz-adv-x="1210" d="M51 1047q0 117 36 198.5t99.5 133t150.5 74t189 22.5h672q12 0 12 -13v-78q0 -12 -12 -12h-98q-27 0 -27 -29v-1794q0 -16 -16 -16h-123q-16 0 -16 16v1786q0 37 -37 37h-111q-27 0 -27 -29v-1794q0 -16 -16 -16h-123q-16 0 -16 16v1102h-49q-488 1 -488 396z" />
<glyph unicode="&#xb7;" horiz-adv-x="749" d="M205 743q0 72 49 121t121 49q70 0 120 -49t50 -121t-50.5 -121t-119.5 -49q-72 0 -121 49t-49 121z" />
<glyph unicode="&#xb8;" horiz-adv-x="585" d="M63 -360l13 30q4 12 20 6q39 -16 76 -19t68 -3q47 0 76.5 21.5t29.5 58.5q0 18 -6 34.5t-24.5 26.5t-53.5 16.5t-94 6.5q-10 0 -15.5 7t-0.5 15l73 160h113l-49 -106q51 0 94 -7.5t74.5 -26t49 -51t17.5 -81.5q0 -66 -61.5 -115t-165.5 -49q-37 0 -65.5 2t-55 8 t-52.5 17.5t-54 29.5q-13 9 -7 19z" />
<glyph unicode="&#xb9;" horiz-adv-x="1200" d="M113 285q0 160 127 244.5t362 84.5q47 0 86 -1t88 -7v129q0 246 -203 246q-88 0 -141 -43t-53 -170q0 -16 -17 -16h-186q-16 0 -16 16q0 96 31.5 156.5t90 93.5t140.5 44t182 11q98 0 174 -14.5t126 -52t77 -103t27 -166.5v-598q0 -37 36 -37h109q16 0 16 -16v-70 q0 -16 -16 -16h-149q-37 -53 -57.5 -92t-32 -67.5t-14.5 -50t-3 -42.5q0 -39 30.5 -59.5t71.5 -20.5q29 0 63 4t71 19q14 4 18 -8l16 -35q6 -10 -6 -19q-59 -35 -111.5 -50t-129.5 -15q-94 0 -141.5 44t-47.5 105q0 63 38 129t130 158h-80q-14 0 -16 14l-27 109 q-66 -66 -147.5 -102.5t-200.5 -36.5q-57 0 -113.5 12t-101.5 45t-72.5 91.5t-27.5 152.5zM358 301q0 -88 43 -134t121 -46q70 0 119 19.5t81 48t46 59.5t14 55q0 23 -1 39t-2 31.5t-2 32t-1 38.5v58q-49 12 -85 14t-85 2q-121 0 -184.5 -56.5t-63.5 -160.5z" />
<glyph unicode="&#x105;" horiz-adv-x="1200" d="M113 285q0 160 127 244.5t362 84.5q47 0 86 -1t88 -7v129q0 246 -203 246q-88 0 -141 -43t-53 -170q0 -16 -17 -16h-186q-16 0 -16 16q0 96 31.5 156.5t90 93.5t140.5 44t182 11q98 0 174 -14.5t126 -52t77 -103t27 -166.5v-598q0 -37 36 -37h109q16 0 16 -16v-70 q0 -16 -16 -16h-149q-37 -53 -57.5 -92t-32 -67.5t-14.5 -50t-3 -42.5q0 -39 30.5 -59.5t71.5 -20.5q29 0 63 4t71 19q14 4 18 -8l16 -35q6 -10 -6 -19q-59 -35 -111.5 -50t-129.5 -15q-94 0 -141.5 44t-47.5 105q0 63 38 129t130 158h-80q-14 0 -16 14l-27 109 q-66 -66 -147.5 -102.5t-200.5 -36.5q-57 0 -113.5 12t-101.5 45t-72.5 91.5t-27.5 152.5zM358 301q0 -88 43 -134t121 -46q70 0 119 19.5t81 48t46 59.5t14 55q0 23 -1 39t-2 31.5t-2 32t-1 38.5v58q-49 12 -85 14t-85 2q-121 0 -184.5 -56.5t-63.5 -160.5z" />
<glyph unicode="&#xba;" horiz-adv-x="1021" d="M86 178q-8 53 0 113q0 16 16 16h185q20 0 16 -16q-16 -92 34 -148.5t148 -56.5q131 0 185.5 45t54.5 123q0 33 -10 57.5t-39 46t-80 41t-133 43.5q-102 31 -171 62t-111 70.5t-59.5 90t-17.5 119.5q0 78 33 132.5t91.5 89t137 51t169.5 16.5q104 0 181 -13t126 -45 t70.5 -86.5t13.5 -135.5q0 -16 -17 -17h-184q-20 0 -16 17q8 43 -3.5 76.5t-36 57t-61.5 37t-80 13.5q-100 0 -151 -36t-51 -114q0 -31 7 -55t31.5 -45.5t73.5 -43t133 -46.5q74 -20 140.5 -45t117 -61.5t81 -91t30.5 -134.5q0 -147 -95 -230t-317 -89l-41 -92 q51 0 94.5 -7.5t75 -26t49 -51t17.5 -81.5q0 -66 -61.5 -115t-165.5 -49q-37 0 -66 2t-55.5 8t-52 17.5t-54.5 29.5q-12 8 -6 19l12 30q4 12 21 6q39 -16 76 -19t67 -3q47 0 77 21.5t30 58.5q0 18 -6.5 34.5t-24.5 26.5t-53 16.5t-94 6.5q-10 0 -15.5 7t-1.5 15l66 146 q-113 6 -181.5 31.5t-104.5 66.5t-44 94z" />
<glyph unicode="&#x15f;" horiz-adv-x="1021" d="M86 178q-8 53 0 113q0 16 16 16h185q20 0 16 -16q-16 -92 34 -148.5t148 -56.5q131 0 185.5 45t54.5 123q0 33 -10 57.5t-39 46t-80 41t-133 43.5q-102 31 -171 62t-111 70.5t-59.5 90t-17.5 119.5q0 78 33 132.5t91.5 89t137 51t169.5 16.5q104 0 181 -13t126 -45 t70.5 -86.5t13.5 -135.5q0 -16 -17 -17h-184q-20 0 -16 17q8 43 -3.5 76.5t-36 57t-61.5 37t-80 13.5q-100 0 -151 -36t-51 -114q0 -31 7 -55t31.5 -45.5t73.5 -43t133 -46.5q74 -20 140.5 -45t117 -61.5t81 -91t30.5 -134.5q0 -147 -95 -230t-317 -89l-41 -92 q51 0 94.5 -7.5t75 -26t49 -51t17.5 -81.5q0 -66 -61.5 -115t-165.5 -49q-37 0 -66 2t-55.5 8t-52 17.5t-54.5 29.5q-12 8 -6 19l12 30q4 12 21 6q39 -16 76 -19t67 -3q47 0 77 21.5t30 58.5q0 18 -6.5 34.5t-24.5 26.5t-53 16.5t-94 6.5q-10 0 -15.5 7t-1.5 15l66 146 q-113 6 -181.5 31.5t-104.5 66.5t-44 94z" />
<glyph unicode="&#xbb;" horiz-adv-x="1226" d="M106 170q-8 8 5 20l327 379l-329 381q-10 10 0 21l57 55q12 12 24 4l455 -401q10 -8 10 -23v-74q0 -14 -10 -22l-455 -401q-12 -8 -24 4zM575 170q-8 8 5 20l325 379l-327 381q-10 10 0 21l55 55q12 12 24 4l457 -401q10 -8 10 -23v-74q0 -14 -10 -22l-457 -401 q-12 -8 -24 4z" />
<glyph unicode="&#xbc;" horiz-adv-x="1259" d="M51 16v70q0 16 17 16h129q37 0 36 37v1196q0 37 -36 37h-129q-16 0 -17 17v69q0 16 17 17h682q16 0 16 -17v-69q0 -16 -16 -17h-232q-37 0 -37 -37v-1210h260q106 0 165 8t87.5 25.5t34.5 46t8 67.5l13 232q0 16 16 16h168q16 0 16 -16l-37 -504h-1144q-17 0 -17 16z M860 1102l27 395q4 43 29.5 61.5t72.5 18.5q68 0 83 -41t-1 -90l-125 -346q-2 -12 -16 -13h-56q-14 1 -14 15z" />
<glyph unicode="&#x13d;" horiz-adv-x="1259" d="M51 16v70q0 16 17 16h129q37 0 36 37v1196q0 37 -36 37h-129q-16 0 -17 17v69q0 16 17 17h682q16 0 16 -17v-69q0 -16 -16 -17h-232q-37 0 -37 -37v-1210h260q106 0 165 8t87.5 25.5t34.5 46t8 67.5l13 232q0 16 16 16h168q16 0 16 -16l-37 -504h-1144q-17 0 -17 16z M860 1102l27 395q4 43 29.5 61.5t72.5 18.5q68 0 83 -41t-1 -90l-125 -346q-2 -12 -16 -13h-56q-14 1 -14 15z" />
<glyph unicode="&#xbd;" horiz-adv-x="813" d="M63.5 1173.5q-4.5 8.5 -0.5 18.5l125 307q4 10 15 10h182q8 0 13 -8t-3 -18l-229 -309q-8 -8 -19 -9h-69q-10 0 -14.5 8.5zM418 1173.5q-4 8.5 0 18.5l125 307q4 10 14 10h180q8 0 13.5 -8t-2.5 -18l-230 -309q-8 -8 -18 -9h-68q-10 0 -14 8.5z" />
<glyph unicode="&#x2dd;" horiz-adv-x="813" d="M63.5 1173.5q-4.5 8.5 -0.5 18.5l125 307q4 10 15 10h182q8 0 13 -8t-3 -18l-229 -309q-8 -8 -19 -9h-69q-10 0 -14.5 8.5zM418 1173.5q-4 8.5 0 18.5l125 307q4 10 14 10h180q8 0 13.5 -8t-2.5 -18l-230 -309q-8 -8 -18 -9h-68q-10 0 -14 8.5z" />
<glyph unicode="&#xbe;" horiz-adv-x="753" d="M51 16v70q0 16 17 16h110q37 0 37 37v1299q0 37 -37 37h-110q-16 0 -17 16v70q0 16 17 16h362q16 0 16 -16v-1422q0 -37 37 -37h109q16 0 16 -16v-70q0 -16 -16 -16h-524q-17 0 -17 16zM543 1102l26 395q4 43 30 61.5t73 18.5q68 0 83 -41t-1 -90l-125 -346 q-2 -12 -17 -13h-55q-14 1 -14 15z" />
<glyph unicode="&#x13e;" horiz-adv-x="753" d="M51 16v70q0 16 17 16h110q37 0 37 37v1299q0 37 -37 37h-110q-16 0 -17 16v70q0 16 17 16h362q16 0 16 -16v-1422q0 -37 37 -37h109q16 0 16 -16v-70q0 -16 -16 -16h-524q-17 0 -17 16zM543 1102l26 395q4 43 30 61.5t73 18.5q68 0 83 -41t-1 -90l-125 -346 q-2 -12 -17 -13h-55q-14 1 -14 15z" />
<glyph unicode="&#xbf;" horiz-adv-x="1050" d="M72 18v56l606 878h-303q-31 0 -55.5 -3t-43 -17t-27.5 -44t-9 -85v-60q0 -16 -17 -16h-123q-16 0 -16 16l8 306q0 16 17 16q66 -4 148.5 -6t160.5 -2h536q16 0 17 -19v-53l-609 -879h347q51 0 83.5 23t32.5 86v96q0 16 17 17h121q16 0 16 -17l-8 -295q0 -4 -5 -10t-12 -6 h-866q-16 0 -16 18zM387 1358q0 59 41 100t100 41t100.5 -41t41.5 -100t-41 -100t-101 -41q-59 0 -100 41t-41 100z" />
<glyph unicode="&#x17c;" horiz-adv-x="1050" d="M72 18v56l606 878h-303q-31 0 -55.5 -3t-43 -17t-27.5 -44t-9 -85v-60q0 -16 -17 -16h-123q-16 0 -16 16l8 306q0 16 17 16q66 -4 148.5 -6t160.5 -2h536q16 0 17 -19v-53l-609 -879h347q51 0 83.5 23t32.5 86v96q0 16 17 17h121q16 0 16 -17l-8 -295q0 -4 -5 -10t-12 -6 h-866q-16 0 -16 18zM387 1358q0 59 41 100t100 41t100.5 -41t41.5 -100t-41 -100t-101 -41q-59 0 -100 41t-41 100z" />
<glyph unicode="&#xc0;" horiz-adv-x="1406" d="M51 16v70q0 16 17 16h129q37 0 36 37v1196q0 37 -36 37h-129q-16 0 -17 17v69q0 16 17 17h583q133 0 243 -9.5t187.5 -47.5t120.5 -113.5t43 -206.5q0 -88 -29.5 -154.5t-76.5 -113t-108.5 -74t-125.5 -39.5q43 -59 88 -130t90 -146.5t87 -154.5t77 -153q12 -31 49 -31 h74q16 0 16 -16v-70q0 -16 -16 -16h-330q-12 0 -16 10q-76 178 -166 347t-201 333h-176v-551q0 -37 37 -37h129q16 0 17 -16v-70q0 -16 -17 -16h-579q-17 0 -17 16zM481 805h148q66 0 129 10t113.5 41t81 88t30.5 152q0 86 -19.5 138t-59.5 79.5t-100.5 37t-144.5 9.5h-141 q-37 0 -37 -37v-518zM516 1560.5q-6 8.5 2 18.5l189 254q6 10 18 10h227q8 0 14.5 -9t-3.5 -17l-312 -256q-4 -4 -8 -6.5t-10 -2.5h-101q-10 0 -16 8.5z" />
<glyph unicode="&#x154;" horiz-adv-x="1406" d="M51 16v70q0 16 17 16h129q37 0 36 37v1196q0 37 -36 37h-129q-16 0 -17 17v69q0 16 17 17h583q133 0 243 -9.5t187.5 -47.5t120.5 -113.5t43 -206.5q0 -88 -29.5 -154.5t-76.5 -113t-108.5 -74t-125.5 -39.5q43 -59 88 -130t90 -146.5t87 -154.5t77 -153q12 -31 49 -31 h74q16 0 16 -16v-70q0 -16 -16 -16h-330q-12 0 -16 10q-76 178 -166 347t-201 333h-176v-551q0 -37 37 -37h129q16 0 17 -16v-70q0 -16 -17 -16h-579q-17 0 -17 16zM481 805h148q66 0 129 10t113.5 41t81 88t30.5 152q0 86 -19.5 138t-59.5 79.5t-100.5 37t-144.5 9.5h-141 q-37 0 -37 -37v-518zM516 1560.5q-6 8.5 2 18.5l189 254q6 10 18 10h227q8 0 14.5 -9t-3.5 -17l-312 -256q-4 -4 -8 -6.5t-10 -2.5h-101q-10 0 -16 8.5z" />
<glyph unicode="&#xc1;" horiz-adv-x="1536" d="M10 16v70q0 16 17 16h77q20 0 28.5 9.5t17.5 27.5l335 879q41 111 76 212t68 230q4 14 16 15h254q12 0 16 -15q16 -66 38 -136.5t44 -129.5l394 -1055q8 -18 16 -27.5t29 -9.5h73q16 0 17 -16v-70q0 -16 -17 -16h-528q-16 0 -16 16v70q0 16 16 16h113q45 0 32 37 l-133 359h-549l-122 -359q-12 -37 28 -37h127q16 0 17 -16v-70q0 -16 -17 -16h-450q-17 0 -17 16zM489 623h457l-237 641zM694 1560.5q-6 8.5 2 18.5l189 254q6 10 18 10h227q8 0 14.5 -9t-3.5 -17l-312 -256q-4 -4 -8 -6.5t-10 -2.5h-100q-11 0 -17 8.5z" />
<glyph unicode="&#xc2;" horiz-adv-x="1536" d="M10 16v70q0 16 17 16h77q20 0 28.5 9.5t17.5 27.5l335 879q41 111 76 212t68 230q4 14 16 15h254q12 0 16 -15q16 -66 38 -136.5t44 -129.5l394 -1055q8 -18 16 -27.5t29 -9.5h73q16 0 17 -16v-70q0 -16 -17 -16h-528q-16 0 -16 16v70q0 16 16 16h113q45 0 32 37 l-133 359h-549l-122 -359q-12 -37 28 -37h127q16 0 17 -16v-70q0 -16 -17 -16h-450q-17 0 -17 16zM430 1560.5q-4 8.5 0 14.5l225 262q8 8 17 8h198q8 0 17 -8l227 -258q8 -10 3 -18.5t-15 -8.5h-189q-6 0 -10 3.5t-8 7.5l-158 192l-153 -192q-6 -10 -15 -11h-127 q-8 0 -12 8.5zM489 623h457l-237 641z" />
<glyph unicode="&#xc3;" horiz-adv-x="1536" d="M10 16v70q0 16 17 16h77q20 0 28.5 9.5t17.5 27.5l335 879q41 111 76 212t68 230q4 14 16 15h254q12 0 16 -15q16 -66 38 -136.5t44 -129.5l394 -1055q8 -18 16 -27.5t29 -9.5h73q16 0 17 -16v-70q0 -16 -17 -16h-528q-16 0 -16 16v70q0 16 16 16h113q45 0 32 37 l-133 359h-549l-122 -359q-12 -37 28 -37h127q16 0 17 -16v-70q0 -16 -17 -16h-450q-17 0 -17 16zM451 1831q0 16 18 16h53q14 0 19 -16q14 -72 69.5 -106.5t159.5 -34.5q203 0 227 141q4 16 17 16h55q16 0 16 -16q0 -63 -23.5 -115.5t-64.5 -89.5t-99 -57.5t-128 -20.5 q-145 0 -232 77t-87 206zM489 623h457l-237 641z" />
<glyph unicode="&#x102;" horiz-adv-x="1536" d="M10 16v70q0 16 17 16h77q20 0 28.5 9.5t17.5 27.5l335 879q41 111 76 212t68 230q4 14 16 15h254q12 0 16 -15q16 -66 38 -136.5t44 -129.5l394 -1055q8 -18 16 -27.5t29 -9.5h73q16 0 17 -16v-70q0 -16 -17 -16h-528q-16 0 -16 16v70q0 16 16 16h113q45 0 32 37 l-133 359h-549l-122 -359q-12 -37 28 -37h127q16 0 17 -16v-70q0 -16 -17 -16h-450q-17 0 -17 16zM451 1831q0 16 18 16h53q14 0 19 -16q14 -72 69.5 -106.5t159.5 -34.5q203 0 227 141q4 16 17 16h55q16 0 16 -16q0 -63 -23.5 -115.5t-64.5 -89.5t-99 -57.5t-128 -20.5 q-145 0 -232 77t-87 206zM489 623h457l-237 641z" />
<glyph unicode="&#xc4;" horiz-adv-x="1536" d="M10 16v70q0 16 17 16h77q20 0 28.5 9.5t17.5 27.5l335 879q41 111 76 212t68 230q4 14 16 15h254q12 0 16 -15q16 -66 38 -136.5t44 -129.5l394 -1055q8 -18 16 -27.5t29 -9.5h73q16 0 17 -16v-70q0 -16 -17 -16h-528q-16 0 -16 16v70q0 16 16 16h113q45 0 32 37 l-133 359h-549l-122 -359q-12 -37 28 -37h127q16 0 17 -16v-70q0 -16 -17 -16h-450q-17 0 -17 16zM383 1702q0 53 36 88t87 35q53 0 88 -35t35 -88t-35 -88t-88 -35q-51 0 -87 35t-36 88zM489 623h457l-237 641zM893 1702q0 53 35 88t88 35t88 -35t35 -88t-35 -88t-88 -35 t-88 35t-35 88z" />
<glyph unicode="&#xc5;" horiz-adv-x="1259" d="M51 16v70q0 16 17 16h129q37 0 36 37v1196q0 37 -36 37h-129q-16 0 -17 17v69q0 16 17 17h682q16 0 16 -17v-69q0 -16 -16 -17h-232q-37 0 -37 -37v-1210h260q106 0 165 8t87.5 25.5t34.5 46t8 67.5l13 232q0 16 16 16h168q16 0 16 -16l-37 -504h-1144q-17 0 -17 16z M256 1560.5q-6 8.5 2 18.5l188 254q6 10 19 10h227q8 0 14.5 -9t-4.5 -17l-311 -256q-4 -4 -8 -6.5t-10 -2.5h-101q-10 0 -16 8.5z" />
<glyph unicode="&#x139;" horiz-adv-x="1259" d="M51 16v70q0 16 17 16h129q37 0 36 37v1196q0 37 -36 37h-129q-16 0 -17 17v69q0 16 17 17h682q16 0 16 -17v-69q0 -16 -16 -17h-232q-37 0 -37 -37v-1210h260q106 0 165 8t87.5 25.5t34.5 46t8 67.5l13 232q0 16 16 16h168q16 0 16 -16l-37 -504h-1144q-17 0 -17 16z M256 1560.5q-6 8.5 2 18.5l188 254q6 10 19 10h227q8 0 14.5 -9t-4.5 -17l-311 -256q-4 -4 -8 -6.5t-10 -2.5h-101q-10 0 -16 8.5z" />
<glyph unicode="&#xc6;" horiz-adv-x="1402" d="M102 729q0 385 154 573.5t494 188.5q86 0 141 -11.5t90 -23.5t55.5 -23.5t36.5 -11.5q14 0 21 15l12 39q2 4 6 10t10 6h154q16 0 16 -16q-12 -139 -8 -272.5t8 -221.5q0 -16 -16 -16h-182q-16 0 -17 16q0 92 -8 166t-40 126t-94.5 80.5t-172.5 28.5q-119 0 -196 -51 t-120 -138t-59 -204t-16 -250q0 -141 11 -260t49 -205t110.5 -134t197.5 -48q102 0 167 35t101.5 88t50 119.5t13.5 130.5q0 16 16 16h195q16 0 16 -16q0 -94 -21.5 -182t-85 -154t-177 -105.5t-297.5 -39.5q-178 0 -297 45t-189.5 137t-99.5 232.5t-29 330.5zM573.5 1560.5 q-6.5 8.5 1.5 18.5l189 254q6 10 18 10h228q8 0 14 -9t-4 -17l-311 -256q-4 -4 -8.5 -6.5t-10.5 -2.5h-100q-10 0 -16.5 8.5z" />
<glyph unicode="&#x106;" horiz-adv-x="1402" d="M102 729q0 385 154 573.5t494 188.5q86 0 141 -11.5t90 -23.5t55.5 -23.5t36.5 -11.5q14 0 21 15l12 39q2 4 6 10t10 6h154q16 0 16 -16q-12 -139 -8 -272.5t8 -221.5q0 -16 -16 -16h-182q-16 0 -17 16q0 92 -8 166t-40 126t-94.5 80.5t-172.5 28.5q-119 0 -196 -51 t-120 -138t-59 -204t-16 -250q0 -141 11 -260t49 -205t110.5 -134t197.5 -48q102 0 167 35t101.5 88t50 119.5t13.5 130.5q0 16 16 16h195q16 0 16 -16q0 -94 -21.5 -182t-85 -154t-177 -105.5t-297.5 -39.5q-178 0 -297 45t-189.5 137t-99.5 232.5t-29 330.5zM573.5 1560.5 q-6.5 8.5 1.5 18.5l189 254q6 10 18 10h228q8 0 14 -9t-4 -17l-311 -256q-4 -4 -8.5 -6.5t-10.5 -2.5h-100q-10 0 -16.5 8.5z" />
<glyph unicode="&#xc7;" horiz-adv-x="1402" d="M102 729q0 385 154 573.5t494 188.5q86 0 141 -11.5t90 -23.5t55.5 -23.5t36.5 -11.5q14 0 21 15l12 39q2 4 6 10t10 6h154q16 0 16 -16q-12 -139 -8 -272.5t8 -221.5q0 -16 -16 -16h-182q-16 0 -17 16q0 92 -8 166t-40 126t-94.5 80.5t-172.5 28.5q-119 0 -196 -51 t-120 -138t-59 -204t-16 -250q0 -141 11 -260t49 -205t110.5 -134t197.5 -48q102 0 167 35t101.5 88t50 119.5t13.5 130.5q0 16 16 16h195q16 0 16 -16q0 -92 -20.5 -176t-76.5 -149.5t-158.5 -106.5t-268.5 -47l-41 -92q51 0 94 -7.5t75 -26t49.5 -51t17.5 -81.5 q0 -66 -61.5 -115t-166.5 -49q-37 0 -65.5 2t-55 8t-52 17.5t-54.5 29.5q-12 8 -6 19l12 30q4 12 21 6q39 -16 75.5 -19t67.5 -3q47 0 77 21.5t30 58.5q0 18 -6.5 34.5t-25 26.5t-53 16.5t-94.5 6.5q-10 0 -15 7t-1 15l66 146q-162 6 -269.5 54t-172 140t-91.5 228.5 t-27 320.5z" />
<glyph unicode="&#xc8;" horiz-adv-x="1402" d="M102 729q0 385 154 573.5t494 188.5q86 0 141 -11.5t90 -23.5t55.5 -23.5t36.5 -11.5q14 0 21 15l12 39q2 4 6 10t10 6h154q16 0 16 -16q-12 -139 -8 -272.5t8 -221.5q0 -16 -16 -16h-182q-16 0 -17 16q0 92 -8 166t-40 126t-94.5 80.5t-172.5 28.5q-119 0 -196 -51 t-120 -138t-59 -204t-16 -250q0 -141 11 -260t49 -205t110.5 -134t197.5 -48q102 0 167 35t101.5 88t50 119.5t13.5 130.5q0 16 16 16h195q16 0 16 -16q0 -94 -21.5 -182t-85 -154t-177 -105.5t-297.5 -39.5q-178 0 -297 45t-189.5 137t-99.5 232.5t-29 330.5zM400.5 1835 q5.5 8 15.5 8h188q8 0 19 -10l157 -193l154 193q6 10 14 10h127q8 0 12.5 -8t-0.5 -14l-225 -260q-8 -8 -16 -9h-199q-8 0 -16 9l-228 256q-8 10 -2.5 18z" />
<glyph unicode="&#x10c;" horiz-adv-x="1402" d="M102 729q0 385 154 573.5t494 188.5q86 0 141 -11.5t90 -23.5t55.5 -23.5t36.5 -11.5q14 0 21 15l12 39q2 4 6 10t10 6h154q16 0 16 -16q-12 -139 -8 -272.5t8 -221.5q0 -16 -16 -16h-182q-16 0 -17 16q0 92 -8 166t-40 126t-94.5 80.5t-172.5 28.5q-119 0 -196 -51 t-120 -138t-59 -204t-16 -250q0 -141 11 -260t49 -205t110.5 -134t197.5 -48q102 0 167 35t101.5 88t50 119.5t13.5 130.5q0 16 16 16h195q16 0 16 -16q0 -94 -21.5 -182t-85 -154t-177 -105.5t-297.5 -39.5q-178 0 -297 45t-189.5 137t-99.5 232.5t-29 330.5zM400.5 1835 q5.5 8 15.5 8h188q8 0 19 -10l157 -193l154 193q6 10 14 10h127q8 0 12.5 -8t-0.5 -14l-225 -260q-8 -8 -16 -9h-199q-8 0 -16 9l-228 256q-8 10 -2.5 18z" />
<glyph unicode="&#xc9;" horiz-adv-x="1357" d="M51 16v70q0 16 17 16h129q37 0 36 37v1196q0 37 -36 37h-129q-16 0 -17 17v69q0 16 17 17h671q59 0 114.5 1t112 2t116 2t128.5 3q16 0 17 -17l8 -385q0 -16 -16 -16h-164q-16 0 -17 16v121q0 80 -33.5 114t-113.5 34h-410v-529h207q41 0 57.5 16.5t16.5 57.5v82 q0 16 16 16h142q14 0 14 -16q-12 -217 0 -434q0 -16 -16 -17h-140q-16 0 -16 17v80q0 41 -16.5 57t-57.5 16h-207v-571h430q80 0 114 34t34 113v121q0 16 16 17h164q16 0 16 -17l-6 -377q0 -16 -16 -16h-1165q-17 0 -17 16zM543 1560.5q-6 8.5 2 18.5l188 254q6 10 19 10 h227q8 0 14 -9t-4 -17l-311 -256q-4 -4 -8 -6.5t-11 -2.5h-100q-10 0 -16 8.5z" />
<glyph unicode="&#xca;" horiz-adv-x="1357" d="M51 16v70q0 16 17 16h129q37 0 36 37v1196q0 37 -36 37h-129q-16 0 -17 17v69q0 16 17 17h671q59 0 114.5 1t112 2t116 2t128.5 3q16 0 17 -17l8 -385q0 -16 -16 -16h-164q-16 0 -17 16v121q0 80 -33.5 114t-113.5 34h-410v-529h207q41 0 57.5 16.5t16.5 57.5v82 q0 16 16 16h142q14 0 14 -16q-12 -217 0 -434q0 -16 -16 -17h-140q-16 0 -16 17v80q0 41 -16.5 57t-57.5 16h-207v-571h430q80 0 114 34t34 113v121q0 16 16 17h164q16 0 16 -17l-6 -377q0 -16 -16 -16h-148q-37 -53 -57 -92t-31.5 -67.5t-14.5 -50t-3 -42.5 q0 -39 30.5 -59.5t71.5 -20.5q29 0 63 4t70 19q14 4 19 -8l16 -35q6 -10 -6 -19q-59 -35 -111.5 -50t-130.5 -15q-94 0 -141 44t-47 105q0 63 38 129t130 158h-913q-17 0 -17 16z" />
<glyph unicode="&#x118;" horiz-adv-x="1357" d="M51 16v70q0 16 17 16h129q37 0 36 37v1196q0 37 -36 37h-129q-16 0 -17 17v69q0 16 17 17h671q59 0 114.5 1t112 2t116 2t128.5 3q16 0 17 -17l8 -385q0 -16 -16 -16h-164q-16 0 -17 16v121q0 80 -33.5 114t-113.5 34h-410v-529h207q41 0 57.5 16.5t16.5 57.5v82 q0 16 16 16h142q14 0 14 -16q-12 -217 0 -434q0 -16 -16 -17h-140q-16 0 -16 17v80q0 41 -16.5 57t-57.5 16h-207v-571h430q80 0 114 34t34 113v121q0 16 16 17h164q16 0 16 -17l-6 -377q0 -16 -16 -16h-148q-37 -53 -57 -92t-31.5 -67.5t-14.5 -50t-3 -42.5 q0 -39 30.5 -59.5t71.5 -20.5q29 0 63 4t70 19q14 4 19 -8l16 -35q6 -10 -6 -19q-59 -35 -111.5 -50t-130.5 -15q-94 0 -141 44t-47 105q0 63 38 129t130 158h-913q-17 0 -17 16z" />
<glyph unicode="&#xcb;" horiz-adv-x="1357" d="M51 16v70q0 16 17 16h129q37 0 36 37v1196q0 37 -36 37h-129q-16 0 -17 17v69q0 16 17 17h671q59 0 114.5 1t112 2t116 2t128.5 3q16 0 17 -17l8 -385q0 -16 -16 -16h-164q-16 0 -17 16v121q0 80 -33.5 114t-113.5 34h-410v-529h207q41 0 57.5 16.5t16.5 57.5v82 q0 16 16 16h142q14 0 14 -16q-12 -217 0 -434q0 -16 -16 -17h-140q-16 0 -16 17v80q0 41 -16.5 57t-57.5 16h-207v-571h430q80 0 114 34t34 113v121q0 16 16 17h164q16 0 16 -17l-6 -377q0 -16 -16 -16h-1165q-17 0 -17 16zM279 1702q0 53 35.5 88t86.5 35q53 0 88 -35 t35 -88t-34.5 -88t-88.5 -35q-51 0 -86.5 35t-35.5 88zM788 1702q0 53 35 88t88 35t88 -35t35 -88t-34.5 -88t-88.5 -35q-53 0 -88 35t-35 88z" />
<glyph unicode="&#xcc;" horiz-adv-x="1357" d="M51 16v70q0 16 17 16h129q37 0 36 37v1196q0 37 -36 37h-129q-16 0 -17 17v69q0 16 17 17h671q59 0 114.5 1t112 2t116 2t128.5 3q16 0 17 -17l8 -385q0 -16 -16 -16h-164q-16 0 -17 16v121q0 80 -33.5 114t-113.5 34h-410v-529h207q41 0 57.5 16.5t16.5 57.5v82 q0 16 16 16h142q14 0 14 -16q-12 -217 0 -434q0 -16 -16 -17h-140q-16 0 -16 17v80q0 41 -16.5 57t-57.5 16h-207v-571h430q80 0 114 34t34 113v121q0 16 16 17h164q16 0 16 -17l-6 -377q0 -16 -16 -16h-1165q-17 0 -17 16zM329 1835q5 8 15 8h188q8 0 19 -10l158 -193 l153 193q6 10 15 10h127q8 0 12 -8t0 -14l-225 -260q-8 -8 -17 -9h-199q-8 0 -16 9l-227 256q-8 10 -3 18z" />
<glyph unicode="&#x11a;" horiz-adv-x="1357" d="M51 16v70q0 16 17 16h129q37 0 36 37v1196q0 37 -36 37h-129q-16 0 -17 17v69q0 16 17 17h671q59 0 114.5 1t112 2t116 2t128.5 3q16 0 17 -17l8 -385q0 -16 -16 -16h-164q-16 0 -17 16v121q0 80 -33.5 114t-113.5 34h-410v-529h207q41 0 57.5 16.5t16.5 57.5v82 q0 16 16 16h142q14 0 14 -16q-12 -217 0 -434q0 -16 -16 -17h-140q-16 0 -16 17v80q0 41 -16.5 57t-57.5 16h-207v-571h430q80 0 114 34t34 113v121q0 16 16 17h164q16 0 16 -17l-6 -377q0 -16 -16 -16h-1165q-17 0 -17 16zM329 1835q5 8 15 8h188q8 0 19 -10l158 -193 l153 193q6 10 15 10h127q8 0 12 -8t0 -14l-225 -260q-8 -8 -17 -9h-199q-8 0 -16 9l-227 256q-8 10 -3 18z" />
<glyph unicode="&#xcd;" horiz-adv-x="714" d="M51 16v70q0 16 17 16h129q37 0 36 37v1196q0 37 -36 37h-129q-16 0 -17 17v69q0 16 17 17h579q16 0 17 -17v-69q0 -16 -17 -17h-129q-37 0 -37 -37v-1196q0 -37 37 -37h129q16 0 17 -16v-70q0 -16 -17 -16h-579q-17 0 -17 16zM262 1560.5q-6 8.5 2 18.5l189 254 q6 10 18 10h227q8 0 14.5 -9t-3.5 -17l-312 -256q-4 -4 -8 -6.5t-10 -2.5h-100q-11 0 -17 8.5z" />
<glyph unicode="&#xce;" horiz-adv-x="714" d="M18.5 1560.5q-4.5 8.5 -0.5 14.5l226 262q8 8 16 8h199q8 0 16 -8l227 -258q8 -10 3 -18.5t-15 -8.5h-188q-6 0 -10.5 3.5t-8.5 7.5l-157 192l-154 -192q-6 -10 -14 -11h-127q-8 0 -12.5 8.5zM51 16v70q0 16 17 16h129q37 0 36 37v1196q0 37 -36 37h-129q-16 0 -17 17v69 q0 16 17 17h579q16 0 17 -17v-69q0 -16 -17 -17h-129q-37 0 -37 -37v-1196q0 -37 37 -37h129q16 0 17 -16v-70q0 -16 -17 -16h-579q-17 0 -17 16z" />
<glyph unicode="&#xcf;" horiz-adv-x="1519" d="M51 16v70q0 16 17 16h129q37 0 36 37v1196q0 37 -36 37h-129q-16 0 -17 17v69q0 16 17 17h614q170 0 306 -26t231.5 -104.5t146.5 -227t51 -394.5q0 -236 -62.5 -378t-167 -219t-243.5 -101.5t-293 -24.5h-583q-17 0 -17 16zM341 1835q5 8 15 8h189q8 0 18 -10l158 -193 l153 193q6 10 15 10h127q8 0 12 -8t0 -14l-225 -260q-8 -8 -17 -9h-198q-8 0 -17 9l-227 256q-8 10 -3 18zM481 152q0 -37 37 -37h117q98 0 190.5 14t164 74.5t115.5 182.5t44 337q0 217 -32 344t-94 191.5t-154.5 83t-213.5 18.5h-137q-37 0 -37 -37v-1171z" />
<glyph unicode="&#x10e;" horiz-adv-x="1519" d="M51 16v70q0 16 17 16h129q37 0 36 37v1196q0 37 -36 37h-129q-16 0 -17 17v69q0 16 17 17h614q170 0 306 -26t231.5 -104.5t146.5 -227t51 -394.5q0 -236 -62.5 -378t-167 -219t-243.5 -101.5t-293 -24.5h-583q-17 0 -17 16zM341 1835q5 8 15 8h189q8 0 18 -10l158 -193 l153 193q6 10 15 10h127q8 0 12 -8t0 -14l-225 -260q-8 -8 -17 -9h-198q-8 0 -17 9l-227 256q-8 10 -3 18zM481 152q0 -37 37 -37h117q98 0 190.5 14t164 74.5t115.5 182.5t44 337q0 217 -32 344t-94 191.5t-154.5 83t-213.5 18.5h-137q-37 0 -37 -37v-1171z" />
<glyph unicode="&#xd0;" horiz-adv-x="1519" d="M51 16v70q0 16 17 16h129q37 0 36 37v541h-163q-18 0 -19 18v86q0 18 19 19h163v532q0 37 -36 37h-129q-16 0 -17 17v69q0 16 17 17h614q170 0 306 -26t231.5 -104.5t146.5 -227t51 -394.5q0 -236 -62.5 -378t-167 -219t-243.5 -101.5t-293 -24.5h-583q-17 0 -17 16z M481 152q0 -37 37 -37h117q98 0 190.5 14t164 74.5t115.5 182.5t44 337q0 217 -32 344t-94 191.5t-154.5 83t-213.5 18.5h-137q-37 0 -37 -37v-520h224q16 0 16 -19v-86q0 -18 -16 -18h-224v-528z" />
<glyph unicode="&#x110;" horiz-adv-x="1519" d="M51 16v70q0 16 17 16h129q37 0 36 37v541h-163q-18 0 -19 18v86q0 18 19 19h163v532q0 37 -36 37h-129q-16 0 -17 17v69q0 16 17 17h614q170 0 306 -26t231.5 -104.5t146.5 -227t51 -394.5q0 -236 -62.5 -378t-167 -219t-243.5 -101.5t-293 -24.5h-583q-17 0 -17 16z M481 152q0 -37 37 -37h117q98 0 190.5 14t164 74.5t115.5 182.5t44 337q0 217 -32 344t-94 191.5t-154.5 83t-213.5 18.5h-137q-37 0 -37 -37v-520h224q16 0 16 -19v-86q0 -18 -16 -18h-224v-528z" />
<glyph unicode="&#xd1;" horiz-adv-x="1581" d="M20 16v70q0 16 17 16h129q37 0 37 37v1196q0 37 -37 37h-129q-16 0 -17 17v69q0 16 17 17h434q10 0 21 -17q57 -100 124.5 -211.5t139.5 -222.5l477 -748v1059q0 37 -37 37h-129q-16 0 -16 17v69q0 16 16 17h477q16 0 17 -17v-69q0 -16 -17 -17h-129q-37 0 -37 -37v-1319 q0 -16 -16 -16h-248q-12 0 -18 12q-63 111 -134 224.5t-143 226.5l-469 737v-1061q0 -37 37 -37h129q16 0 16 -16v-70q0 -16 -16 -16h-479q-17 0 -17 16zM627 1560.5q-6 8.5 2 18.5l188 254q6 10 19 10h227q8 0 14 -9t-4 -17l-311 -256q-4 -4 -8 -6.5t-11 -2.5h-100 q-10 0 -16 8.5z" />
<glyph unicode="&#x143;" horiz-adv-x="1581" d="M20 16v70q0 16 17 16h129q37 0 37 37v1196q0 37 -37 37h-129q-16 0 -17 17v69q0 16 17 17h434q10 0 21 -17q57 -100 124.5 -211.5t139.5 -222.5l477 -748v1059q0 37 -37 37h-129q-16 0 -16 17v69q0 16 16 17h477q16 0 17 -17v-69q0 -16 -17 -17h-129q-37 0 -37 -37v-1319 q0 -16 -16 -16h-248q-12 0 -18 12q-63 111 -134 224.5t-143 226.5l-469 737v-1061q0 -37 37 -37h129q16 0 16 -16v-70q0 -16 -16 -16h-479q-17 0 -17 16zM627 1560.5q-6 8.5 2 18.5l188 254q6 10 19 10h227q8 0 14 -9t-4 -17l-311 -256q-4 -4 -8 -6.5t-11 -2.5h-100 q-10 0 -16 8.5z" />
<glyph unicode="&#xd2;" horiz-adv-x="1581" d="M20 16v70q0 16 17 16h129q37 0 37 37v1196q0 37 -37 37h-129q-16 0 -17 17v69q0 16 17 17h434q10 0 21 -17q57 -100 124.5 -211.5t139.5 -222.5l477 -748v1059q0 37 -37 37h-129q-16 0 -16 17v69q0 16 16 17h477q16 0 17 -17v-69q0 -16 -17 -17h-129q-37 0 -37 -37v-1319 q0 -16 -16 -16h-248q-12 0 -18 12q-63 111 -134 224.5t-143 226.5l-469 737v-1061q0 -37 37 -37h129q16 0 16 -16v-70q0 -16 -16 -16h-479q-17 0 -17 16zM425 1835q5 8 15 8h189q8 0 18 -10l158 -193l153 193q6 10 15 10h127q8 0 12 -8t0 -14l-225 -260q-8 -8 -17 -9h-198 q-8 0 -17 9l-227 256q-8 10 -3 18z" />
<glyph unicode="&#x147;" horiz-adv-x="1581" d="M20 16v70q0 16 17 16h129q37 0 37 37v1196q0 37 -37 37h-129q-16 0 -17 17v69q0 16 17 17h434q10 0 21 -17q57 -100 124.5 -211.5t139.5 -222.5l477 -748v1059q0 37 -37 37h-129q-16 0 -16 17v69q0 16 16 17h477q16 0 17 -17v-69q0 -16 -17 -17h-129q-37 0 -37 -37v-1319 q0 -16 -16 -16h-248q-12 0 -18 12q-63 111 -134 224.5t-143 226.5l-469 737v-1061q0 -37 37 -37h129q16 0 16 -16v-70q0 -16 -16 -16h-479q-17 0 -17 16zM425 1835q5 8 15 8h189q8 0 18 -10l158 -193l153 193q6 10 15 10h127q8 0 12 -8t0 -14l-225 -260q-8 -8 -17 -9h-198 q-8 0 -17 9l-227 256q-8 10 -3 18z" />
<glyph unicode="&#xd3;" horiz-adv-x="1542" d="M102 733q0 385 166 571.5t510 186.5q188 0 315.5 -46t204 -139.5t109.5 -232.5t33 -325t-36 -330t-116 -240t-209 -145t-317 -49q-186 0 -313 45t-204 137t-110 233t-33 334zM371 739q0 -152 14 -270.5t57 -201.5t120 -126t202 -43q127 0 206 42t124 123t60 200t15 274 q0 154 -15 273.5t-58 200.5t-121 123t-201 42q-127 0 -206 -43t-123 -125t-59 -199.5t-15 -269.5zM659.5 1560.5q-6.5 8.5 2.5 18.5l188 254q6 10 18 10h228q8 0 14 -9t-4 -17l-311 -256q-4 -4 -8.5 -6.5t-10.5 -2.5h-100q-10 0 -16.5 8.5z" />
<glyph unicode="&#xd4;" horiz-adv-x="1542" d="M102 733q0 385 166 571.5t510 186.5q188 0 315.5 -46t204 -139.5t109.5 -232.5t33 -325t-36 -330t-116 -240t-209 -145t-317 -49q-186 0 -313 45t-204 137t-110 233t-33 334zM371 739q0 -152 14 -270.5t57 -201.5t120 -126t202 -43q127 0 206 42t124 123t60 200t15 274 q0 154 -15 273.5t-58 200.5t-121 123t-201 42q-127 0 -206 -43t-123 -125t-59 -199.5t-15 -269.5zM444.5 1560.5q-4.5 8.5 -0.5 14.5l226 262q8 8 16 8h199q8 0 16 -8l227 -258q8 -10 3 -18.5t-15 -8.5h-188q-6 0 -10.5 3.5t-8.5 7.5l-157 192l-154 -192q-6 -10 -14 -11 h-127q-8 0 -12.5 8.5z" />
<glyph unicode="&#xd5;" horiz-adv-x="1542" d="M102 733q0 385 166 571.5t510 186.5q188 0 315.5 -46t204 -139.5t109.5 -232.5t33 -325t-36 -330t-116 -240t-209 -145t-317 -49q-186 0 -313 45t-204 137t-110 233t-33 334zM371 739q0 -152 14 -270.5t57 -201.5t120 -126t202 -43q127 0 206 42t124 123t60 200t15 274 q0 154 -15 273.5t-58 200.5t-121 123t-201 42q-127 0 -206 -43t-123 -125t-59 -199.5t-15 -269.5zM441 1560.5q-5 8.5 1 18.5l150 254q6 10 16 10h207q8 0 14.5 -8t-4.5 -18l-272 -256q-8 -8 -18 -9h-78q-11 0 -16 8.5zM834.5 1560.5q-5.5 8.5 1.5 18.5l149 254q6 10 16 10 h207q8 0 14.5 -8t-3.5 -18l-273 -256q-8 -8 -18 -9h-78q-10 0 -15.5 8.5z" />
<glyph unicode="&#x150;" horiz-adv-x="1542" d="M102 733q0 385 166 571.5t510 186.5q188 0 315.5 -46t204 -139.5t109.5 -232.5t33 -325t-36 -330t-116 -240t-209 -145t-317 -49q-186 0 -313 45t-204 137t-110 233t-33 334zM371 739q0 -152 14 -270.5t57 -201.5t120 -126t202 -43q127 0 206 42t124 123t60 200t15 274 q0 154 -15 273.5t-58 200.5t-121 123t-201 42q-127 0 -206 -43t-123 -125t-59 -199.5t-15 -269.5zM441 1560.5q-5 8.5 1 18.5l150 254q6 10 16 10h207q8 0 14.5 -8t-4.5 -18l-272 -256q-8 -8 -18 -9h-78q-11 0 -16 8.5zM834.5 1560.5q-5.5 8.5 1.5 18.5l149 254q6 10 16 10 h207q8 0 14.5 -8t-3.5 -18l-273 -256q-8 -8 -18 -9h-78q-10 0 -15.5 8.5z" />
<glyph unicode="&#xd6;" horiz-adv-x="1542" d="M102 733q0 385 166 571.5t510 186.5q188 0 315.5 -46t204 -139.5t109.5 -232.5t33 -325t-36 -330t-116 -240t-209 -145t-317 -49q-186 0 -313 45t-204 137t-110 233t-33 334zM371 739q0 -152 14 -270.5t57 -201.5t120 -126t202 -43q127 0 206 42t124 123t60 200t15 274 q0 154 -15 273.5t-58 200.5t-121 123t-201 42q-127 0 -206 -43t-123 -125t-59 -199.5t-15 -269.5zM385 1702q0 53 36 88t87 35q53 0 88 -35t35 -88t-35 -88t-88 -35q-51 0 -87 35t-36 88zM895 1702q0 53 35 88t88 35t88 -35t35 -88t-35 -88t-88 -35t-88 35t-35 88z" />
<glyph unicode="&#xd7;" horiz-adv-x="970" d="M109 449q-12 12 0 22l266 266l-266 267q-12 10 0 22l88 88q12 12 24 0l264 -266l267 266q10 12 22 0l88 -88q12 -12 0 -25l-264 -264l264 -264q12 -12 0 -24l-88 -89q-12 -12 -22 0l-267 267l-264 -267q-12 -12 -24 0z" />
<glyph unicode="&#xd8;" horiz-adv-x="1406" d="M51 16v70q0 16 17 16h129q37 0 36 37v1196q0 37 -36 37h-129q-16 0 -17 17v69q0 16 17 17h583q133 0 243 -9.5t187.5 -47.5t120.5 -113.5t43 -206.5q0 -88 -29.5 -154.5t-76.5 -113t-108.5 -74t-125.5 -39.5q43 -59 88 -130t90 -146.5t87 -154.5t77 -153q12 -31 49 -31 h74q16 0 16 -16v-70q0 -16 -16 -16h-330q-12 0 -16 10q-76 178 -166 347t-201 333h-176v-551q0 -37 37 -37h129q16 0 17 -16v-70q0 -16 -17 -16h-579q-17 0 -17 16zM312 1835q5 8 16 8h188q8 0 19 -10l157 -193l154 193q6 10 14 10h127q8 0 12.5 -8t-0.5 -14l-225 -260 q-8 -8 -16 -9h-199q-8 0 -16 9l-228 256q-8 10 -3 18zM481 805h148q66 0 129 10t113.5 41t81 88t30.5 152q0 86 -19.5 138t-59.5 79.5t-100.5 37t-144.5 9.5h-141q-37 0 -37 -37v-518z" />
<glyph unicode="&#x158;" horiz-adv-x="1406" d="M51 16v70q0 16 17 16h129q37 0 36 37v1196q0 37 -36 37h-129q-16 0 -17 17v69q0 16 17 17h583q133 0 243 -9.5t187.5 -47.5t120.5 -113.5t43 -206.5q0 -88 -29.5 -154.5t-76.5 -113t-108.5 -74t-125.5 -39.5q43 -59 88 -130t90 -146.5t87 -154.5t77 -153q12 -31 49 -31 h74q16 0 16 -16v-70q0 -16 -16 -16h-330q-12 0 -16 10q-76 178 -166 347t-201 333h-176v-551q0 -37 37 -37h129q16 0 17 -16v-70q0 -16 -17 -16h-579q-17 0 -17 16zM312 1835q5 8 16 8h188q8 0 19 -10l157 -193l154 193q6 10 14 10h127q8 0 12.5 -8t-0.5 -14l-225 -260 q-8 -8 -16 -9h-199q-8 0 -16 9l-228 256q-8 10 -3 18zM481 805h148q66 0 129 10t113.5 41t81 88t30.5 152q0 86 -19.5 138t-59.5 79.5t-100.5 37t-144.5 9.5h-141q-37 0 -37 -37v-518z" />
<glyph unicode="&#xd9;" horiz-adv-x="1538" d="M51 1389v69q0 16 17 17h579q16 0 17 -17v-69q0 -16 -17 -17h-129q-37 0 -37 -37v-843q0 -88 16.5 -159t55.5 -118t105.5 -72.5t166.5 -25.5q104 0 175 25.5t114 72.5t61.5 117.5t18.5 159.5v843q0 37 -37 37h-125q-16 0 -16 17v69q0 16 16 17h469q16 0 17 -17v-69 q0 -16 -17 -17h-123q-37 0 -37 -37v-837q0 -141 -34.5 -239.5t-104 -160t-173 -88t-238.5 -26.5q-137 0 -242 24.5t-174.5 81.5t-105.5 152.5t-36 238.5v854q0 37 -36 37h-129q-17 1 -17 17zM621 1681q0 80 51 134.5t137 54.5t137 -54.5t51 -134.5t-51 -135t-137 -55 t-137 55t-51 135zM711 1681q0 -41 26.5 -70.5t71.5 -29.5t71.5 29.5t26.5 70.5t-26.5 71t-71.5 30t-71.5 -30t-26.5 -71z" />
<glyph unicode="&#x16e;" horiz-adv-x="1538" d="M51 1389v69q0 16 17 17h579q16 0 17 -17v-69q0 -16 -17 -17h-129q-37 0 -37 -37v-843q0 -88 16.5 -159t55.5 -118t105.5 -72.5t166.5 -25.5q104 0 175 25.5t114 72.5t61.5 117.5t18.5 159.5v843q0 37 -37 37h-125q-16 0 -16 17v69q0 16 16 17h469q16 0 17 -17v-69 q0 -16 -17 -17h-123q-37 0 -37 -37v-837q0 -141 -34.5 -239.5t-104 -160t-173 -88t-238.5 -26.5q-137 0 -242 24.5t-174.5 81.5t-105.5 152.5t-36 238.5v854q0 37 -36 37h-129q-17 1 -17 17zM621 1681q0 80 51 134.5t137 54.5t137 -54.5t51 -134.5t-51 -135t-137 -55 t-137 55t-51 135zM711 1681q0 -41 26.5 -70.5t71.5 -29.5t71.5 29.5t26.5 70.5t-26.5 71t-71.5 30t-71.5 -30t-26.5 -71z" />
<glyph unicode="&#xda;" horiz-adv-x="1538" d="M51 1389v69q0 16 17 17h579q16 0 17 -17v-69q0 -16 -17 -17h-129q-37 0 -37 -37v-843q0 -88 16.5 -159t55.5 -118t105.5 -72.5t166.5 -25.5q104 0 175 25.5t114 72.5t61.5 117.5t18.5 159.5v843q0 37 -37 37h-125q-16 0 -16 17v69q0 16 16 17h469q16 0 17 -17v-69 q0 -16 -17 -17h-123q-37 0 -37 -37v-837q0 -141 -34.5 -239.5t-104 -160t-173 -88t-238.5 -26.5q-137 0 -242 24.5t-174.5 81.5t-105.5 152.5t-36 238.5v854q0 37 -36 37h-129q-17 1 -17 17zM715 1560.5q-6 8.5 2 18.5l188 254q6 10 19 10h227q8 0 14 -9t-4 -17l-311 -256 q-4 -4 -8 -6.5t-11 -2.5h-100q-10 0 -16 8.5z" />
<glyph unicode="&#xdb;" horiz-adv-x="1538" d="M51 1389v69q0 16 17 17h579q16 0 17 -17v-69q0 -16 -17 -17h-129q-37 0 -37 -37v-843q0 -88 16.5 -159t55.5 -118t105.5 -72.5t166.5 -25.5q104 0 175 25.5t114 72.5t61.5 117.5t18.5 159.5v843q0 37 -37 37h-125q-16 0 -16 17v69q0 16 16 17h469q16 0 17 -17v-69 q0 -16 -17 -17h-123q-37 0 -37 -37v-837q0 -141 -34.5 -239.5t-104 -160t-173 -88t-238.5 -26.5q-137 0 -242 24.5t-174.5 81.5t-105.5 152.5t-36 238.5v854q0 37 -36 37h-129q-17 1 -17 17zM454 1560.5q-5 8.5 1 18.5l149 254q6 10 17 10h206q8 0 14.5 -8t-3.5 -18 l-273 -256q-8 -8 -18 -9h-78q-10 0 -15 8.5zM847 1560.5q-5 8.5 1 18.5l149 254q6 10 17 10h207q8 0 14 -8t-4 -18l-273 -256q-8 -8 -18 -9h-78q-10 0 -15 8.5z" />
<glyph unicode="&#x170;" horiz-adv-x="1538" d="M51 1389v69q0 16 17 17h579q16 0 17 -17v-69q0 -16 -17 -17h-129q-37 0 -37 -37v-843q0 -88 16.5 -159t55.5 -118t105.5 -72.5t166.5 -25.5q104 0 175 25.5t114 72.5t61.5 117.5t18.5 159.5v843q0 37 -37 37h-125q-16 0 -16 17v69q0 16 16 17h469q16 0 17 -17v-69 q0 -16 -17 -17h-123q-37 0 -37 -37v-837q0 -141 -34.5 -239.5t-104 -160t-173 -88t-238.5 -26.5q-137 0 -242 24.5t-174.5 81.5t-105.5 152.5t-36 238.5v854q0 37 -36 37h-129q-17 1 -17 17zM454 1560.5q-5 8.5 1 18.5l149 254q6 10 17 10h206q8 0 14.5 -8t-3.5 -18 l-273 -256q-8 -8 -18 -9h-78q-10 0 -15 8.5zM847 1560.5q-5 8.5 1 18.5l149 254q6 10 17 10h207q8 0 14 -8t-4 -18l-273 -256q-8 -8 -18 -9h-78q-10 0 -15 8.5z" />
<glyph unicode="&#xdc;" horiz-adv-x="1538" d="M51 1389v69q0 16 17 17h579q16 0 17 -17v-69q0 -16 -17 -17h-129q-37 0 -37 -37v-843q0 -88 16.5 -159t55.5 -118t105.5 -72.5t166.5 -25.5q104 0 175 25.5t114 72.5t61.5 117.5t18.5 159.5v843q0 37 -37 37h-125q-16 0 -16 17v69q0 16 16 17h469q16 0 17 -17v-69 q0 -16 -17 -17h-123q-37 0 -37 -37v-837q0 -141 -34.5 -239.5t-104 -160t-173 -88t-238.5 -26.5q-137 0 -242 24.5t-174.5 81.5t-105.5 152.5t-36 238.5v854q0 37 -36 37h-129q-17 1 -17 17zM436 1702q0 53 36 88t87 35q53 0 88 -35t35 -88t-35 -88t-88 -35q-51 0 -87 35 t-36 88zM946 1702q0 53 35 88t88 35t88 -35t35 -88t-35 -88t-88 -35t-88 35t-35 88z" />
<glyph unicode="&#xdd;" horiz-adv-x="1355" d="M10 1389v69q0 16 17 17h587q16 0 17 -17v-69q0 -16 -17 -17h-178q-16 0 -23 -11t1 -26l321 -610l316 610q20 37 -23 37h-131q-16 0 -16 17v69q0 16 16 17h422q16 0 16 -17v-69q0 -16 -16 -17h-47q-35 0 -55 -37l-418 -776v-420q0 -37 37 -37h217q16 0 16 -16v-70 q0 -16 -16 -16h-756q-16 0 -16 16v70q0 16 16 16h217q37 0 37 37v420l-418 776q-10 16 -20.5 26.5t-30.5 10.5h-55q-17 1 -17 17zM600 1560.5q-6 8.5 2 18.5l189 254q6 10 18 10h227q8 0 14.5 -9t-3.5 -17l-312 -256q-4 -4 -8 -6.5t-10 -2.5h-101q-10 0 -16 8.5z" />
<glyph unicode="&#xde;" d="M10 1065l8 401q0 16 17 17q76 -2 131 -3t104 -2l99 -2q49 -1 110 -1h363q61 0 115 1l109 2q54 1 112.5 2t128.5 3q16 0 16 -17l8 -401q0 -16 -16 -16h-164q-16 0 -16 16v137q0 80 -34 114t-114 34h-192v-1211q0 -37 36 -37h242q16 0 17 -16v-70q0 -16 -17 -16h-805 q-16 0 -16 16v70q0 16 16 16h242q37 0 37 37v1211h-193q-80 0 -113.5 -34t-33.5 -114v-137q0 -16 -17 -16h-163q-17 0 -17 16zM543 -233q18 72 53 95t74 23q47 0 82.5 -27.5t35.5 -86.5q0 -72 -35.5 -130.5t-97.5 -117.5q-6 -8 -14 -6l-51 26q-10 6 -4 19q49 78 36 128 t-79 77z" />
<glyph unicode="&#x162;" d="M10 1065l8 401q0 16 17 17q76 -2 131 -3t104 -2l99 -2q49 -1 110 -1h363q61 0 115 1l109 2q54 1 112.5 2t128.5 3q16 0 16 -17l8 -401q0 -16 -16 -16h-164q-16 0 -16 16v137q0 80 -34 114t-114 34h-192v-1211q0 -37 36 -37h242q16 0 17 -16v-70q0 -16 -17 -16h-805 q-16 0 -16 16v70q0 16 16 16h242q37 0 37 37v1211h-193q-80 0 -113.5 -34t-33.5 -114v-137q0 -16 -17 -16h-163q-17 0 -17 16zM543 -233q18 72 53 95t74 23q47 0 82.5 -27.5t35.5 -86.5q0 -72 -35.5 -130.5t-97.5 -117.5q-6 -8 -14 -6l-51 26q-10 6 -4 19q49 78 36 128 t-79 77z" />
<glyph unicode="&#xdf;" horiz-adv-x="1361" d="M51 16v70q0 16 17 16h108q39 0 39 37v983q0 209 135 318.5t406 109.5q369 0 368 -262q0 -84 -35.5 -132t-79.5 -90t-80 -96.5t-36 -150.5q0 -66 38 -103.5t103 -78.5q53 -33 102.5 -64.5t87.5 -69.5t60.5 -87t22.5 -117q0 -152 -97.5 -233.5t-304.5 -81.5 q-115 0 -185.5 23.5t-109.5 65.5t-49 98t-2 120q0 16 16 16h177q20 0 16 -16q-16 -92 21.5 -148.5t125.5 -56.5q180 0 181 162q0 70 -57.5 115t-145.5 90q-61 35 -105.5 64.5t-72 64t-40.5 81t-13 111.5q0 84 37.5 143.5t82.5 111.5t83 108.5t38 132.5q0 72 -41 118t-149 46 q-135 0 -204 -56.5t-69 -156.5q0 -37 1 -68t2 -64.5t2 -75.5t1 -98v-899q0 -16 -18 -16h-360q-17 0 -17 16z" />
<glyph unicode="&#xe0;" horiz-adv-x="929" d="M51 16v70q0 16 17 16h110q37 0 37 37v779q0 37 -37 36h-110q-16 0 -17 17v69q0 16 17 17h362q16 0 16 -17v-108q63 68 128 104.5t165 36.5q82 0 123 -36t56.5 -87t12.5 -107.5t-11 -97.5q-4 -16 -19 -16h-176q-20 0 -16 16q10 92 -15.5 134.5t-79.5 42.5 q-43 0 -75.5 -19.5t-54 -47.5t-33 -60.5t-11.5 -59.5q0 -23 1 -39t2 -31.5t2 -32t1 -38.5v-455q0 -37 37 -37h179q16 0 16 -16v-70q0 -16 -16 -16h-594q-17 0 -17 16zM323.5 1173.5q-6.5 8.5 2.5 18.5l186 307q6 10 14 10h213q8 0 13.5 -8t-2.5 -18l-299 -309q-8 -8 -19 -9 h-92q-10 0 -16.5 8.5z" />
<glyph unicode="&#x155;" horiz-adv-x="929" d="M51 16v70q0 16 17 16h110q37 0 37 37v779q0 37 -37 36h-110q-16 0 -17 17v69q0 16 17 17h362q16 0 16 -17v-108q63 68 128 104.5t165 36.5q82 0 123 -36t56.5 -87t12.5 -107.5t-11 -97.5q-4 -16 -19 -16h-176q-20 0 -16 16q10 92 -15.5 134.5t-79.5 42.5 q-43 0 -75.5 -19.5t-54 -47.5t-33 -60.5t-11.5 -59.5q0 -23 1 -39t2 -31.5t2 -32t1 -38.5v-455q0 -37 37 -37h179q16 0 16 -16v-70q0 -16 -16 -16h-594q-17 0 -17 16zM323.5 1173.5q-6.5 8.5 2.5 18.5l186 307q6 10 14 10h213q8 0 13.5 -8t-2.5 -18l-299 -309q-8 -8 -19 -9 h-92q-10 0 -16.5 8.5z" />
<glyph unicode="&#xe1;" horiz-adv-x="1200" d="M113 285q0 160 127 244.5t362 84.5q47 0 86 -1t88 -7v129q0 246 -203 246q-88 0 -141 -43t-53 -170q0 -16 -17 -16h-186q-16 0 -16 16q0 96 31.5 156.5t90 93.5t140.5 44t182 11q98 0 174 -14.5t126 -52t77 -103t27 -166.5v-598q0 -37 36 -37h109q16 0 16 -16v-70 q0 -16 -16 -16h-334q-14 0 -16 14l-27 109q-66 -66 -147.5 -102.5t-200.5 -36.5q-57 0 -113.5 12t-101.5 45t-72.5 91.5t-27.5 152.5zM358 301q0 -88 43 -134t121 -46q70 0 119 19.5t81 48t46 59.5t14 55q0 23 -1 39t-2 31.5t-2 32t-1 38.5v58q-49 12 -85 14t-85 2 q-121 0 -184.5 -56.5t-63.5 -160.5zM459 1173.5q-6 8.5 2 18.5l186 307q6 10 15 10h212q8 0 13.5 -8t-2.5 -18l-299 -309q-8 -8 -19 -9h-92q-10 0 -16 8.5z" />
<glyph unicode="&#xe2;" horiz-adv-x="1200" d="M113 285q0 160 127 244.5t362 84.5q47 0 86 -1t88 -7v129q0 246 -203 246q-88 0 -141 -43t-53 -170q0 -16 -17 -16h-186q-16 0 -16 16q0 96 31.5 156.5t90 93.5t140.5 44t182 11q98 0 174 -14.5t126 -52t77 -103t27 -166.5v-598q0 -37 36 -37h109q16 0 16 -16v-70 q0 -16 -16 -16h-334q-14 0 -16 14l-27 109q-66 -66 -147.5 -102.5t-200.5 -36.5q-57 0 -113.5 12t-101.5 45t-72.5 91.5t-27.5 152.5zM279 1188l225 313q8 8 14 8h164q10 0 14 -8l228 -309q8 -10 2 -18.5t-17 -8.5h-176q-4 0 -7 3l-7 8l-152 239l-149 -239q-6 -10 -15 -11 h-110q-8 0 -13 7.5t-1 15.5zM358 301q0 -88 43 -134t121 -46q70 0 119 19.5t81 48t46 59.5t14 55q0 23 -1 39t-2 31.5t-2 32t-1 38.5v58q-49 12 -85 14t-85 2q-121 0 -184.5 -56.5t-63.5 -160.5z" />
<glyph unicode="&#xe3;" horiz-adv-x="1200" d="M113 285q0 160 127 244.5t362 84.5q47 0 86 -1t88 -7v129q0 246 -203 246q-88 0 -141 -43t-53 -170q0 -16 -17 -16h-186q-16 0 -16 16q0 96 31.5 156.5t90 93.5t140.5 44t182 11q98 0 174 -14.5t126 -52t77 -103t27 -166.5v-598q0 -37 36 -37h109q16 0 16 -16v-70 q0 -16 -16 -16h-334q-14 0 -16 14l-27 109q-66 -66 -147.5 -102.5t-200.5 -36.5q-57 0 -113.5 12t-101.5 45t-72.5 91.5t-27.5 152.5zM266 1462q0 18 19 19h55q6 0 11 -6.5t7 -12.5q12 -84 61.5 -132t166.5 -48q115 0 164 49t61 131q2 6 6 12.5t12 6.5h56q16 0 16 -19 q0 -68 -18.5 -126t-56.5 -102t-97 -69.5t-143 -25.5t-144.5 25.5t-99.5 69.5t-57.5 102t-18.5 126zM358 301q0 -88 43 -134t121 -46q70 0 119 19.5t81 48t46 59.5t14 55q0 23 -1 39t-2 31.5t-2 32t-1 38.5v58q-49 12 -85 14t-85 2q-121 0 -184.5 -56.5t-63.5 -160.5z" />
<glyph unicode="&#x103;" horiz-adv-x="1200" d="M113 285q0 160 127 244.5t362 84.5q47 0 86 -1t88 -7v129q0 246 -203 246q-88 0 -141 -43t-53 -170q0 -16 -17 -16h-186q-16 0 -16 16q0 96 31.5 156.5t90 93.5t140.5 44t182 11q98 0 174 -14.5t126 -52t77 -103t27 -166.5v-598q0 -37 36 -37h109q16 0 16 -16v-70 q0 -16 -16 -16h-334q-14 0 -16 14l-27 109q-66 -66 -147.5 -102.5t-200.5 -36.5q-57 0 -113.5 12t-101.5 45t-72.5 91.5t-27.5 152.5zM266 1462q0 18 19 19h55q6 0 11 -6.5t7 -12.5q12 -84 61.5 -132t166.5 -48q115 0 164 49t61 131q2 6 6 12.5t12 6.5h56q16 0 16 -19 q0 -68 -18.5 -126t-56.5 -102t-97 -69.5t-143 -25.5t-144.5 25.5t-99.5 69.5t-57.5 102t-18.5 126zM358 301q0 -88 43 -134t121 -46q70 0 119 19.5t81 48t46 59.5t14 55q0 23 -1 39t-2 31.5t-2 32t-1 38.5v58q-49 12 -85 14t-85 2q-121 0 -184.5 -56.5t-63.5 -160.5z" />
<glyph unicode="&#xe4;" horiz-adv-x="1200" d="M113 285q0 160 127 244.5t362 84.5q47 0 86 -1t88 -7v129q0 246 -203 246q-88 0 -141 -43t-53 -170q0 -16 -17 -16h-186q-16 0 -16 16q0 96 31.5 156.5t90 93.5t140.5 44t182 11q98 0 174 -14.5t126 -52t77 -103t27 -166.5v-598q0 -37 36 -37h109q16 0 16 -16v-70 q0 -16 -16 -16h-334q-14 0 -16 14l-27 109q-66 -66 -147.5 -102.5t-200.5 -36.5q-57 0 -113.5 12t-101.5 45t-72.5 91.5t-27.5 152.5zM244 1354q0 53 35.5 88t87.5 35q53 0 87.5 -35t34.5 -88t-34.5 -88t-87.5 -35q-51 0 -87 35t-36 88zM358 301q0 -88 43 -134t121 -46 q70 0 119 19.5t81 48t46 59.5t14 55q0 23 -1 39t-2 31.5t-2 32t-1 38.5v58q-49 12 -85 14t-85 2q-121 0 -184.5 -56.5t-63.5 -160.5zM702 1354q0 53 35 88t88 35t88 -35t35 -88t-34.5 -88t-88.5 -35q-53 0 -88 35t-35 88z" />
<glyph unicode="&#xe5;" horiz-adv-x="659" d="M51 16v70q0 16 17 16h110q37 0 37 37v1299q0 37 -37 37h-110q-16 0 -17 16v70q0 16 17 16h362q16 0 16 -16v-1422q0 -37 37 -37h109q16 0 16 -16v-70q0 -16 -16 -16h-524q-17 0 -17 16zM225 1653q-6 8 2 18l189 254q6 10 18 10h228q8 0 14 -9t-4 -17l-312 -256 q-4 -4 -8 -6t-10 -2h-100q-11 0 -17 8z" />
<glyph unicode="&#x13a;" horiz-adv-x="659" d="M51 16v70q0 16 17 16h110q37 0 37 37v1299q0 37 -37 37h-110q-16 0 -17 16v70q0 16 17 16h362q16 0 16 -16v-1422q0 -37 37 -37h109q16 0 16 -16v-70q0 -16 -16 -16h-524q-17 0 -17 16zM225 1653q-6 8 2 18l189 254q6 10 18 10h228q8 0 14 -9t-4 -17l-312 -256 q-4 -4 -8 -6t-10 -2h-100q-11 0 -17 8z" />
<glyph unicode="&#xe6;" horiz-adv-x="1093" d="M92 504q0 287 119 428t391 141q195 0 297 -77.5t102 -262.5q0 -16 -16 -16h-197q-16 0 -16 16q0 131 -51 185.5t-143 54.5q-57 0 -102.5 -18.5t-76 -67.5t-46 -134t-15.5 -216q0 -143 13.5 -232.5t41 -138.5t71.5 -65.5t103 -16.5q100 0 152.5 67.5t52.5 167.5 q0 16 16 17h197q16 0 16 -17q0 -158 -102 -246.5t-321 -88.5q-125 0 -216.5 25.5t-151.5 86t-89 159.5t-29 249zM434 1173.5q-6 8.5 2 18.5l187 307q6 10 14 10h213q8 0 13 -8t-3 -18l-299 -309q-8 -8 -18 -9h-92q-11 0 -17 8.5z" />
<glyph unicode="&#x107;" horiz-adv-x="1093" d="M92 504q0 287 119 428t391 141q195 0 297 -77.5t102 -262.5q0 -16 -16 -16h-197q-16 0 -16 16q0 131 -51 185.5t-143 54.5q-57 0 -102.5 -18.5t-76 -67.5t-46 -134t-15.5 -216q0 -143 13.5 -232.5t41 -138.5t71.5 -65.5t103 -16.5q100 0 152.5 67.5t52.5 167.5 q0 16 16 17h197q16 0 16 -17q0 -158 -102 -246.5t-321 -88.5q-125 0 -216.5 25.5t-151.5 86t-89 159.5t-29 249zM434 1173.5q-6 8.5 2 18.5l187 307q6 10 14 10h213q8 0 13 -8t-3 -18l-299 -309q-8 -8 -18 -9h-92q-11 0 -17 8.5z" />
<glyph unicode="&#xe7;" horiz-adv-x="1093" d="M92 504q0 287 119 428t391 141q195 0 297 -77.5t102 -262.5q0 -16 -16 -16h-197q-16 0 -16 16q0 131 -51 185.5t-143 54.5q-57 0 -102.5 -18.5t-76 -67.5t-46 -134t-15.5 -216q0 -143 13.5 -232.5t41 -138.5t71.5 -65.5t103 -16.5q100 0 152.5 67.5t52.5 167.5 q0 16 16 17h197q16 0 16 -17q0 -152 -95 -239.5t-298 -95.5l-41 -90q51 0 94.5 -7.5t75 -26t49 -51t17.5 -81.5q0 -66 -61.5 -115t-166.5 -49q-37 0 -65.5 2t-55 8t-52 17.5t-54.5 29.5q-12 8 -6 19l12 30q4 12 21 6q39 -16 75.5 -19t67.5 -3q47 0 77 21.5t30 58.5 q0 18 -6.5 34.5t-25 26.5t-53 16.5t-94.5 6.5q-10 0 -15 7t-1 15l68 148q-104 6 -181 36.5t-126.5 91t-74 156t-24.5 232.5z" />
<glyph unicode="&#xe8;" horiz-adv-x="1093" d="M92 504q0 287 119 428t391 141q195 0 297 -77.5t102 -262.5q0 -16 -16 -16h-197q-16 0 -16 16q0 131 -51 185.5t-143 54.5q-57 0 -102.5 -18.5t-76 -67.5t-46 -134t-15.5 -216q0 -143 13.5 -232.5t41 -138.5t71.5 -65.5t103 -16.5q100 0 152.5 67.5t52.5 167.5 q0 16 16 17h197q16 0 16 -17q0 -158 -102 -246.5t-321 -88.5q-125 0 -216.5 25.5t-151.5 86t-89 159.5t-29 249zM233.5 1501q6.5 8 16.5 8h176q10 0 14 -10l152 -242l149 242q6 10 15 10h110q8 0 14.5 -7t0.5 -15l-226 -313q-8 -8 -14 -9h-164q-10 0 -14 9l-227 309 q-9 10 -2.5 18z" />
<glyph unicode="&#x10d;" horiz-adv-x="1093" d="M92 504q0 287 119 428t391 141q195 0 297 -77.5t102 -262.5q0 -16 -16 -16h-197q-16 0 -16 16q0 131 -51 185.5t-143 54.5q-57 0 -102.5 -18.5t-76 -67.5t-46 -134t-15.5 -216q0 -143 13.5 -232.5t41 -138.5t71.5 -65.5t103 -16.5q100 0 152.5 67.5t52.5 167.5 q0 16 16 17h197q16 0 16 -17q0 -158 -102 -246.5t-321 -88.5q-125 0 -216.5 25.5t-151.5 86t-89 159.5t-29 249zM233.5 1501q6.5 8 16.5 8h176q10 0 14 -10l152 -242l149 242q6 10 15 10h110q8 0 14.5 -7t0.5 -15l-226 -313q-8 -8 -14 -9h-164q-10 0 -14 9l-227 309 q-9 10 -2.5 18z" />
<glyph unicode="&#xe9;" horiz-adv-x="1142" d="M92 502q0 152 34 260t99.5 178t159.5 101.5t217 31.5q119 0 204 -23.5t139 -85t80 -168t26 -270.5q0 -16 -17 -16h-694q0 -137 19.5 -221t54.5 -130t82 -61.5t100 -15.5q61 0 102 21.5t67 55.5t37 72.5t11 71.5q0 16 16 16h197q16 0 16 -16q-4 -141 -114.5 -230 t-333.5 -89q-123 0 -217 23.5t-156.5 83t-95.5 158.5t-33 253zM342 606h467q0 117 -17.5 189.5t-47 112.5t-67.5 53.5t-81 13.5q-41 0 -84 -11.5t-79 -50.5t-60.5 -111.5t-30.5 -195.5zM450.5 1173.5q-6.5 8.5 2.5 18.5l186 307q6 10 14 10h213q8 0 13.5 -8t-2.5 -18 l-299 -309q-8 -8 -19 -9h-92q-10 0 -16.5 8.5z" />
<glyph unicode="&#xea;" horiz-adv-x="1142" d="M92 502q0 152 34 260t99.5 178t159.5 101.5t217 31.5q119 0 204 -23.5t139 -85t80 -168t26 -270.5q0 -16 -17 -16h-694q0 -137 19.5 -221t54.5 -130t82 -61.5t100 -15.5q61 0 102 21.5t67 55.5t37 72.5t11 71.5q0 16 16 16h197q16 0 16 -16q-4 -145 -114 -231 q-53 -74 -85 -125t-48.5 -87t-20.5 -61.5t-4 -50.5q0 -39 30.5 -59.5t71.5 -20.5q29 0 63 4t71 19q14 4 18 -8l16 -35q6 -10 -6 -19q-59 -35 -111.5 -50t-129.5 -15q-94 0 -141.5 44t-47.5 105q0 66 39 132.5t135 158.5q-41 -10 -86 -15t-98 -5q-123 0 -217 23.5t-156.5 83 t-95.5 158.5t-33 253zM342 606h467q0 117 -17.5 189.5t-47 112.5t-67.5 53.5t-81 13.5q-41 0 -84 -11.5t-79 -50.5t-60.5 -111.5t-30.5 -195.5z" />
<glyph unicode="&#x119;" horiz-adv-x="1142" d="M92 502q0 152 34 260t99.5 178t159.5 101.5t217 31.5q119 0 204 -23.5t139 -85t80 -168t26 -270.5q0 -16 -17 -16h-694q0 -137 19.5 -221t54.5 -130t82 -61.5t100 -15.5q61 0 102 21.5t67 55.5t37 72.5t11 71.5q0 16 16 16h197q16 0 16 -16q-4 -145 -114 -231 q-53 -74 -85 -125t-48.5 -87t-20.5 -61.5t-4 -50.5q0 -39 30.5 -59.5t71.5 -20.5q29 0 63 4t71 19q14 4 18 -8l16 -35q6 -10 -6 -19q-59 -35 -111.5 -50t-129.5 -15q-94 0 -141.5 44t-47.5 105q0 66 39 132.5t135 158.5q-41 -10 -86 -15t-98 -5q-123 0 -217 23.5t-156.5 83 t-95.5 158.5t-33 253zM342 606h467q0 117 -17.5 189.5t-47 112.5t-67.5 53.5t-81 13.5q-41 0 -84 -11.5t-79 -50.5t-60.5 -111.5t-30.5 -195.5z" />
<glyph unicode="&#xeb;" horiz-adv-x="1142" d="M92 502q0 152 34 260t99.5 178t159.5 101.5t217 31.5q119 0 204 -23.5t139 -85t80 -168t26 -270.5q0 -16 -17 -16h-694q0 -137 19.5 -221t54.5 -130t82 -61.5t100 -15.5q61 0 102 21.5t67 55.5t37 72.5t11 71.5q0 16 16 16h197q16 0 16 -16q-4 -141 -114.5 -230 t-333.5 -89q-123 0 -217 23.5t-156.5 83t-95.5 158.5t-33 253zM246 1354q0 53 35.5 88t87.5 35q53 0 88 -35t35 -88t-35 -88t-88 -35q-51 0 -87 35t-36 88zM342 606h467q0 117 -17.5 189.5t-47 112.5t-67.5 53.5t-81 13.5q-41 0 -84 -11.5t-79 -50.5t-60.5 -111.5 t-30.5 -195.5zM705 1354q0 53 34.5 88t87.5 35t88 -35t35 -88t-34.5 -88t-88.5 -35q-53 0 -87.5 35t-34.5 88z" />
<glyph unicode="&#xec;" horiz-adv-x="1142" d="M92 502q0 152 34 260t99.5 178t159.5 101.5t217 31.5q119 0 204 -23.5t139 -85t80 -168t26 -270.5q0 -16 -17 -16h-694q0 -137 19.5 -221t54.5 -130t82 -61.5t100 -15.5q61 0 102 21.5t67 55.5t37 72.5t11 71.5q0 16 16 16h197q16 0 16 -16q-4 -141 -114.5 -230 t-333.5 -89q-123 0 -217 23.5t-156.5 83t-95.5 158.5t-33 253zM248 1501q6 8 16 8h176q10 0 15 -10l151 -242l150 242q6 10 14 10h111q8 0 14 -7t0 -15l-225 -313q-8 -8 -15 -9h-163q-10 0 -15 9l-227 309q-8 10 -2 18zM342 606h467q0 117 -17.5 189.5t-47 112.5t-67.5 53.5 t-81 13.5q-41 0 -84 -11.5t-79 -50.5t-60.5 -111.5t-30.5 -195.5z" />
<glyph unicode="&#x11b;" horiz-adv-x="1142" d="M92 502q0 152 34 260t99.5 178t159.5 101.5t217 31.5q119 0 204 -23.5t139 -85t80 -168t26 -270.5q0 -16 -17 -16h-694q0 -137 19.5 -221t54.5 -130t82 -61.5t100 -15.5q61 0 102 21.5t67 55.5t37 72.5t11 71.5q0 16 16 16h197q16 0 16 -16q-4 -141 -114.5 -230 t-333.5 -89q-123 0 -217 23.5t-156.5 83t-95.5 158.5t-33 253zM248 1501q6 8 16 8h176q10 0 15 -10l151 -242l150 242q6 10 14 10h111q8 0 14 -7t0 -15l-225 -313q-8 -8 -15 -9h-163q-10 0 -15 9l-227 309q-8 10 -2 18zM342 606h467q0 117 -17.5 189.5t-47 112.5t-67.5 53.5 t-81 13.5q-41 0 -84 -11.5t-79 -50.5t-60.5 -111.5t-30.5 -195.5z" />
<glyph unicode="&#xed;" horiz-adv-x="700" d="M92 16v70q0 16 17 16h110q37 0 37 37v779q0 37 -37 36h-110q-16 0 -17 17v69q0 16 17 17h362q16 0 16 -17v-901q0 -37 37 -37h109q16 0 16 -16v-70q0 -16 -16 -16h-524q-17 0 -17 16zM258 1173.5q-6 8.5 2 18.5l186 307q6 10 15 10h213q8 0 13 -8t-3 -18l-299 -309 q-8 -8 -18 -9h-93q-10 0 -16 8.5z" />
<glyph unicode="&#xee;" horiz-adv-x="700" d="M33 1188l225 313q8 8 14 8h164q10 0 15 -8l227 -309q8 -10 2 -18.5t-16 -8.5h-177q-4 0 -7 3l-7 8l-151 239l-150 -239q-6 -10 -14 -11h-111q-8 0 -13 7.5t-1 15.5zM92 16v70q0 16 17 16h110q37 0 37 37v779q0 37 -37 36h-110q-16 0 -17 17v69q0 16 17 17h362 q16 0 16 -17v-901q0 -37 37 -37h109q16 0 16 -16v-70q0 -16 -16 -16h-524q-17 0 -17 16z" />
<glyph unicode="&#xef;" horiz-adv-x="1372" d="M92 510q0 129 26.5 233.5t84 177t144.5 112.5t208 40q102 0 162.5 -25.5t101.5 -52.5v443q0 37 -37 37h-116q-16 0 -17 16v70q0 16 17 16h368q16 0 17 -16v-1422q0 -37 36 -37h109q16 0 16 -16v-70q0 -16 -16 -16h-334q-14 0 -16 14l-27 111q-63 -68 -141 -104.5 t-201 -36.5q-201 0 -293 135t-92 391zM338 528q0 -80 7 -153.5t31.5 -130t71 -90t125.5 -33.5q72 0 120 21.5t77 53t42 65.5t13 58q0 23 -1 39.5t-2 32t-2 31.5t-1 39v190q0 23 1 39.5t2 31.5t2 31.5t1 39.5q0 27 -11 56.5t-36.5 54t-67.5 39.5t-106 15 q-145 0 -205.5 -113.5t-60.5 -316.5zM1149 1102l27 395q4 43 29.5 61.5t72.5 18.5q68 0 83 -41t-1 -90l-125 -346q-2 -12 -16 -13h-56q-14 1 -14 15z" />
<glyph unicode="&#x10f;" horiz-adv-x="1372" d="M92 510q0 129 26.5 233.5t84 177t144.5 112.5t208 40q102 0 162.5 -25.5t101.5 -52.5v443q0 37 -37 37h-116q-16 0 -17 16v70q0 16 17 16h368q16 0 17 -16v-1422q0 -37 36 -37h109q16 0 16 -16v-70q0 -16 -16 -16h-334q-14 0 -16 14l-27 111q-63 -68 -141 -104.5 t-201 -36.5q-201 0 -293 135t-92 391zM338 528q0 -80 7 -153.5t31.5 -130t71 -90t125.5 -33.5q72 0 120 21.5t77 53t42 65.5t13 58q0 23 -1 39.5t-2 32t-2 31.5t-1 39v190q0 23 1 39.5t2 31.5t2 31.5t1 39.5q0 27 -11 56.5t-36.5 54t-67.5 39.5t-106 15 q-145 0 -205.5 -113.5t-60.5 -316.5zM1149 1102l27 395q4 43 29.5 61.5t72.5 18.5q68 0 83 -41t-1 -90l-125 -346q-2 -12 -16 -13h-56q-14 1 -14 15z" />
<glyph unicode="&#xf0;" horiz-adv-x="1263" d="M92 510q0 129 26.5 233.5t84 177t144.5 112.5t208 40q102 0 162.5 -25.5t101.5 -52.5v199h-254q-18 0 -18 18v86q0 18 18 19h254v121q0 37 -37 37h-116q-16 0 -17 16v70q0 16 17 16h368q16 0 17 -16v-244h149q16 0 17 -19v-86q0 -18 -17 -18h-149v-1055q0 -37 36 -37h109 q16 0 16 -16v-70q0 -16 -16 -16h-334q-14 0 -16 14l-27 111q-63 -68 -141 -104.5t-201 -36.5q-201 0 -293 135t-92 391zM338 528q0 -80 7 -153.5t31.5 -130t71 -90t125.5 -33.5q72 0 120 21.5t77 53t42 65.5t13 58q0 23 -1 39.5t-2 32t-2 31.5t-1 39v190q0 23 1 39.5t2 31.5 t2 31.5t1 39.5q0 27 -11 56.5t-36.5 54t-67.5 39.5t-106 15q-145 0 -205.5 -113.5t-60.5 -316.5z" />
<glyph unicode="&#x111;" horiz-adv-x="1263" d="M92 510q0 129 26.5 233.5t84 177t144.5 112.5t208 40q102 0 162.5 -25.5t101.5 -52.5v199h-254q-18 0 -18 18v86q0 18 18 19h254v121q0 37 -37 37h-116q-16 0 -17 16v70q0 16 17 16h368q16 0 17 -16v-244h149q16 0 17 -19v-86q0 -18 -17 -18h-149v-1055q0 -37 36 -37h109 q16 0 16 -16v-70q0 -16 -16 -16h-334q-14 0 -16 14l-27 111q-63 -68 -141 -104.5t-201 -36.5q-201 0 -293 135t-92 391zM338 528q0 -80 7 -153.5t31.5 -130t71 -90t125.5 -33.5q72 0 120 21.5t77 53t42 65.5t13 58q0 23 -1 39.5t-2 32t-2 31.5t-1 39v190q0 23 1 39.5t2 31.5 t2 31.5t1 39.5q0 27 -11 56.5t-36.5 54t-67.5 39.5t-106 15q-145 0 -205.5 -113.5t-60.5 -316.5z" />
<glyph unicode="&#xf1;" horiz-adv-x="1323" d="M51 16v70q0 16 17 16h110q37 0 37 37v779q0 37 -37 36h-110q-16 0 -17 17v69q0 16 17 17h362q16 0 16 -17v-108q61 68 141.5 104.5t200.5 36.5q100 0 163 -25.5t98.5 -67.5t48 -95.5t12.5 -106.5v-639q0 -37 37 -37h108q16 0 17 -16v-70q0 -16 -17 -16h-505q-16 0 -17 16 v70q0 16 17 16h92q37 0 37 37v428v145q0 67 -14.5 116t-52.5 76.5t-116 27.5q-74 0 -124 -20.5t-78.5 -49t-41 -60.5t-12.5 -54q0 -23 1 -39.5t2 -31.5t2 -31.5t1 -39.5v-467q0 -37 37 -37h90q16 0 17 -16v-70q0 -16 -17 -16h-505q-17 0 -17 16zM514 1173.5q-6 8.5 2 18.5 l186 307q6 10 15 10h213q8 0 13 -8t-3 -18l-299 -309q-8 -8 -18 -9h-93q-10 0 -16 8.5z" />
<glyph unicode="&#x144;" horiz-adv-x="1323" d="M51 16v70q0 16 17 16h110q37 0 37 37v779q0 37 -37 36h-110q-16 0 -17 17v69q0 16 17 17h362q16 0 16 -17v-108q61 68 141.5 104.5t200.5 36.5q100 0 163 -25.5t98.5 -67.5t48 -95.5t12.5 -106.5v-639q0 -37 37 -37h108q16 0 17 -16v-70q0 -16 -17 -16h-505q-16 0 -17 16 v70q0 16 17 16h92q37 0 37 37v428v145q0 67 -14.5 116t-52.5 76.5t-116 27.5q-74 0 -124 -20.5t-78.5 -49t-41 -60.5t-12.5 -54q0 -23 1 -39.5t2 -31.5t2 -31.5t1 -39.5v-467q0 -37 37 -37h90q16 0 17 -16v-70q0 -16 -17 -16h-505q-17 0 -17 16zM514 1173.5q-6 8.5 2 18.5 l186 307q6 10 15 10h213q8 0 13 -8t-3 -18l-299 -309q-8 -8 -18 -9h-93q-10 0 -16 8.5z" />
<glyph unicode="&#xf2;" horiz-adv-x="1323" d="M51 16v70q0 16 17 16h110q37 0 37 37v779q0 37 -37 36h-110q-16 0 -17 17v69q0 16 17 17h362q16 0 16 -17v-108q61 68 141.5 104.5t200.5 36.5q100 0 163 -25.5t98.5 -67.5t48 -95.5t12.5 -106.5v-639q0 -37 37 -37h108q16 0 17 -16v-70q0 -16 -17 -16h-505q-16 0 -17 16 v70q0 16 17 16h92q37 0 37 37v428v145q0 67 -14.5 116t-52.5 76.5t-116 27.5q-74 0 -124 -20.5t-78.5 -49t-41 -60.5t-12.5 -54q0 -23 1 -39.5t2 -31.5t2 -31.5t1 -39.5v-467q0 -37 37 -37h90q16 0 17 -16v-70q0 -16 -17 -16h-505q-17 0 -17 16zM299 1501q6 8 16 8h177 q10 0 14 -10l151 -242l150 242q6 10 14 10h111q8 0 14 -7t0 -15l-225 -313q-8 -8 -14 -9h-164q-10 0 -15 9l-227 309q-8 10 -2 18z" />
<glyph unicode="&#x148;" horiz-adv-x="1323" d="M51 16v70q0 16 17 16h110q37 0 37 37v779q0 37 -37 36h-110q-16 0 -17 17v69q0 16 17 17h362q16 0 16 -17v-108q61 68 141.5 104.5t200.5 36.5q100 0 163 -25.5t98.5 -67.5t48 -95.5t12.5 -106.5v-639q0 -37 37 -37h108q16 0 17 -16v-70q0 -16 -17 -16h-505q-16 0 -17 16 v70q0 16 17 16h92q37 0 37 37v428v145q0 67 -14.5 116t-52.5 76.5t-116 27.5q-74 0 -124 -20.5t-78.5 -49t-41 -60.5t-12.5 -54q0 -23 1 -39.5t2 -31.5t2 -31.5t1 -39.5v-467q0 -37 37 -37h90q16 0 17 -16v-70q0 -16 -17 -16h-505q-17 0 -17 16zM299 1501q6 8 16 8h177 q10 0 14 -10l151 -242l150 242q6 10 14 10h111q8 0 14 -7t0 -15l-225 -313q-8 -8 -14 -9h-164q-10 0 -15 9l-227 309q-8 10 -2 18z" />
<glyph unicode="&#xf3;" horiz-adv-x="1208" d="M92 502q0 279 125 425t387 146q141 0 239.5 -29.5t159 -92t87 -160t26.5 -232.5t-26.5 -241.5t-86 -181.5t-157.5 -113.5t-240 -38.5q-143 0 -241.5 28.5t-159 91t-87 161t-26.5 237.5zM338 543q0 -104 11 -190.5t41 -147t82 -94t136 -33.5t135.5 27.5t79 83t37.5 135 t10 184.5q0 111 -11 198t-41 147t-82 93t-136 33q-82 0 -133 -29.5t-80 -85t-39 -136.5t-10 -185zM500 1173.5q-6 8.5 2 18.5l186 307q6 10 14 10h213q8 0 13.5 -8t-2.5 -18l-299 -309q-8 -8 -19 -9h-92q-10 0 -16 8.5z" />
<glyph unicode="&#xf4;" horiz-adv-x="1208" d="M92 502q0 279 125 425t387 146q141 0 239.5 -29.5t159 -92t87 -160t26.5 -232.5t-26.5 -241.5t-86 -181.5t-157.5 -113.5t-240 -38.5q-143 0 -241.5 28.5t-159 91t-87 161t-26.5 237.5zM276 1188l226 313q8 8 14 8h164q10 0 14 -8l228 -309q8 -10 2 -18.5t-17 -8.5h-176 q-4 0 -7 3l-7 8l-152 239l-149 -239q-6 -10 -15 -11h-110q-8 0 -13.5 7.5t-1.5 15.5zM338 543q0 -104 11 -190.5t41 -147t82 -94t136 -33.5t135.5 27.5t79 83t37.5 135t10 184.5q0 111 -11 198t-41 147t-82 93t-136 33q-82 0 -133 -29.5t-80 -85t-39 -136.5t-10 -185z" />
<glyph unicode="&#xf5;" horiz-adv-x="1208" d="M92 502q0 279 125 425t387 146q141 0 239.5 -29.5t159 -92t87 -160t26.5 -232.5t-26.5 -241.5t-86 -181.5t-157.5 -113.5t-240 -38.5q-143 0 -241.5 28.5t-159 91t-87 161t-26.5 237.5zM319.5 1173.5q-4.5 8.5 -0.5 18.5l125 307q4 10 15 10h182q8 0 13 -8t-3 -18 l-229 -309q-8 -8 -19 -9h-69q-10 0 -14.5 8.5zM338 543q0 -104 11 -190.5t41 -147t82 -94t136 -33.5t135.5 27.5t79 83t37.5 135t10 184.5q0 111 -11 198t-41 147t-82 93t-136 33q-82 0 -133 -29.5t-80 -85t-39 -136.5t-10 -185zM674 1173.5q-4 8.5 0 18.5l125 307 q4 10 14 10h180q8 0 13.5 -8t-2.5 -18l-230 -309q-8 -8 -18 -9h-68q-10 0 -14 8.5z" />
<glyph unicode="&#x151;" horiz-adv-x="1208" d="M92 502q0 279 125 425t387 146q141 0 239.5 -29.5t159 -92t87 -160t26.5 -232.5t-26.5 -241.5t-86 -181.5t-157.5 -113.5t-240 -38.5q-143 0 -241.5 28.5t-159 91t-87 161t-26.5 237.5zM319.5 1173.5q-4.5 8.5 -0.5 18.5l125 307q4 10 15 10h182q8 0 13 -8t-3 -18 l-229 -309q-8 -8 -19 -9h-69q-10 0 -14.5 8.5zM338 543q0 -104 11 -190.5t41 -147t82 -94t136 -33.5t135.5 27.5t79 83t37.5 135t10 184.5q0 111 -11 198t-41 147t-82 93t-136 33q-82 0 -133 -29.5t-80 -85t-39 -136.5t-10 -185zM674 1173.5q-4 8.5 0 18.5l125 307 q4 10 14 10h180q8 0 13.5 -8t-2.5 -18l-230 -309q-8 -8 -18 -9h-68q-10 0 -14 8.5z" />
<glyph unicode="&#xf6;" horiz-adv-x="1208" d="M92 502q0 279 125 425t387 146q141 0 239.5 -29.5t159 -92t87 -160t26.5 -232.5t-26.5 -241.5t-86 -181.5t-157.5 -113.5t-240 -38.5q-143 0 -241.5 28.5t-159 91t-87 161t-26.5 237.5zM242 1354q0 53 35.5 88t87.5 35q53 0 87.5 -35t34.5 -88t-34.5 -88t-87.5 -35 q-51 0 -87 35t-36 88zM338 543q0 -104 11 -190.5t41 -147t82 -94t136 -33.5t135.5 27.5t79 83t37.5 135t10 184.5q0 111 -11 198t-41 147t-82 93t-136 33q-82 0 -133 -29.5t-80 -85t-39 -136.5t-10 -185zM700 1354q0 53 35 88t88 35t88 -35t35 -88t-34.5 -88t-88.5 -35 q-53 0 -88 35t-35 88z" />
<glyph unicode="&#xf7;" horiz-adv-x="1146" d="M102 674v125q0 16 17 16h909q16 0 16 -16v-125q0 -16 -16 -17h-909q-17 1 -17 17zM416 330q0 66 46 111.5t111 45.5q66 0 112 -46t46 -111q0 -66 -46 -112t-112 -46t-111.5 46t-45.5 112zM416 1145q0 66 46 112t111 46q66 0 112 -46.5t46 -111.5q0 -66 -46 -112t-112 -46 t-111.5 46t-45.5 112z" />
<glyph unicode="&#xf8;" horiz-adv-x="929" d="M51 16v70q0 16 17 16h110q37 0 37 37v779q0 37 -37 36h-110q-16 0 -17 17v69q0 16 17 17h362q16 0 16 -17v-108q63 68 128 104.5t165 36.5q82 0 123 -36t56.5 -87t12.5 -107.5t-11 -97.5q-4 -16 -19 -16h-176q-20 0 -16 16q10 92 -15.5 134.5t-79.5 42.5 q-43 0 -75.5 -19.5t-54 -47.5t-33 -60.5t-11.5 -59.5q0 -23 1 -39t2 -31.5t2 -32t1 -38.5v-455q0 -37 37 -37h179q16 0 16 -16v-70q0 -16 -16 -16h-594q-17 0 -17 16zM153.5 1501q6.5 8 16.5 8h176q10 0 14 -10l152 -242l150 242q6 10 14 10h110q8 0 14.5 -7t0.5 -15 l-226 -313q-8 -8 -14 -9h-164q-10 0 -14 9l-227 309q-9 10 -2.5 18z" />
<glyph unicode="&#x159;" horiz-adv-x="929" d="M51 16v70q0 16 17 16h110q37 0 37 37v779q0 37 -37 36h-110q-16 0 -17 17v69q0 16 17 17h362q16 0 16 -17v-108q63 68 128 104.5t165 36.5q82 0 123 -36t56.5 -87t12.5 -107.5t-11 -97.5q-4 -16 -19 -16h-176q-20 0 -16 16q10 92 -15.5 134.5t-79.5 42.5 q-43 0 -75.5 -19.5t-54 -47.5t-33 -60.5t-11.5 -59.5q0 -23 1 -39t2 -31.5t2 -32t1 -38.5v-455q0 -37 37 -37h179q16 0 16 -16v-70q0 -16 -16 -16h-594q-17 0 -17 16zM153.5 1501q6.5 8 16.5 8h176q10 0 14 -10l152 -242l150 242q6 10 14 10h110q8 0 14.5 -7t0.5 -15 l-226 -313q-8 -8 -14 -9h-164q-10 0 -14 9l-227 309q-9 10 -2.5 18z" />
<glyph unicode="&#xf9;" horiz-adv-x="1292" d="M20 971v69q0 16 17 17h362q16 0 17 -17v-551v-147q0 -68 15 -116t54 -74.5t119 -26.5q66 0 113 18.5t77.5 46t45 60.5t14.5 59q0 23 -1 39.5t-2 31.5t-2 31.5t-1 39.5v467q0 37 -37 36h-111q-16 0 -16 17v69q0 16 16 17h363q16 0 16 -17v-901q0 -37 37 -37h109 q16 0 16 -16v-70q0 -16 -16 -16h-334q-12 0 -17 16l-26 109q-63 -68 -141 -104.5t-201 -36.5q-100 0 -162.5 25.5t-97.5 67.5t-48.5 95t-13.5 107v639q0 37 -37 36h-110q-17 1 -17 17zM391 1341q0 88 56.5 148.5t152.5 60.5t152.5 -60t56.5 -149q0 -88 -56.5 -148 t-152.5 -60t-152.5 60t-56.5 148zM487 1341q0 -47 31 -80.5t82 -33.5t82 33.5t31 80.5t-31 81t-82 34t-82 -34t-31 -81z" />
<glyph unicode="&#x16f;" horiz-adv-x="1292" d="M20 971v69q0 16 17 17h362q16 0 17 -17v-551v-147q0 -68 15 -116t54 -74.5t119 -26.5q66 0 113 18.5t77.5 46t45 60.5t14.5 59q0 23 -1 39.5t-2 31.5t-2 31.5t-1 39.5v467q0 37 -37 36h-111q-16 0 -16 17v69q0 16 16 17h363q16 0 16 -17v-901q0 -37 37 -37h109 q16 0 16 -16v-70q0 -16 -16 -16h-334q-12 0 -17 16l-26 109q-63 -68 -141 -104.5t-201 -36.5q-100 0 -162.5 25.5t-97.5 67.5t-48.5 95t-13.5 107v639q0 37 -37 36h-110q-17 1 -17 17zM391 1341q0 88 56.5 148.5t152.5 60.5t152.5 -60t56.5 -149q0 -88 -56.5 -148 t-152.5 -60t-152.5 60t-56.5 148zM487 1341q0 -47 31 -80.5t82 -33.5t82 33.5t31 80.5t-31 81t-82 34t-82 -34t-31 -81z" />
<glyph unicode="&#xfa;" horiz-adv-x="1292" d="M20 971v69q0 16 17 17h362q16 0 17 -17v-551v-147q0 -68 15 -116t54 -74.5t119 -26.5q66 0 113 18.5t77.5 46t45 60.5t14.5 59q0 23 -1 39.5t-2 31.5t-2 31.5t-1 39.5v467q0 37 -37 36h-111q-16 0 -16 17v69q0 16 16 17h363q16 0 16 -17v-901q0 -37 37 -37h109 q16 0 16 -16v-70q0 -16 -16 -16h-334q-12 0 -17 16l-26 109q-63 -68 -141 -104.5t-201 -36.5q-100 0 -162.5 25.5t-97.5 67.5t-48.5 95t-13.5 107v639q0 37 -37 36h-110q-17 1 -17 17zM522 1173.5q-6 8.5 2 18.5l187 307q6 10 14 10h213q8 0 13 -8t-3 -18l-299 -309 q-8 -8 -18 -9h-92q-11 0 -17 8.5z" />
<glyph unicode="&#xfb;" horiz-adv-x="1292" d="M20 971v69q0 16 17 17h362q16 0 17 -17v-551v-147q0 -68 15 -116t54 -74.5t119 -26.5q66 0 113 18.5t77.5 46t45 60.5t14.5 59q0 23 -1 39.5t-2 31.5t-2 31.5t-1 39.5v467q0 37 -37 36h-111q-16 0 -16 17v69q0 16 16 17h363q16 0 16 -17v-901q0 -37 37 -37h109 q16 0 16 -16v-70q0 -16 -16 -16h-334q-12 0 -17 16l-26 109q-63 -68 -141 -104.5t-201 -36.5q-100 0 -162.5 25.5t-97.5 67.5t-48.5 95t-13.5 107v639q0 37 -37 36h-110q-17 1 -17 17zM326 1173.5q-4 8.5 0 18.5l125 307q4 10 14 10h182q8 0 13.5 -8t-3.5 -18l-229 -309 q-8 -8 -18 -9h-70q-10 0 -14 8.5zM680 1173.5q-4 8.5 0 18.5l125 307q4 10 14 10h180q8 0 13.5 -8t-2.5 -18l-230 -309q-8 -8 -18 -9h-68q-10 0 -14 8.5z" />
<glyph unicode="&#x171;" horiz-adv-x="1292" d="M20 971v69q0 16 17 17h362q16 0 17 -17v-551v-147q0 -68 15 -116t54 -74.5t119 -26.5q66 0 113 18.5t77.5 46t45 60.5t14.5 59q0 23 -1 39.5t-2 31.5t-2 31.5t-1 39.5v467q0 37 -37 36h-111q-16 0 -16 17v69q0 16 16 17h363q16 0 16 -17v-901q0 -37 37 -37h109 q16 0 16 -16v-70q0 -16 -16 -16h-334q-12 0 -17 16l-26 109q-63 -68 -141 -104.5t-201 -36.5q-100 0 -162.5 25.5t-97.5 67.5t-48.5 95t-13.5 107v639q0 37 -37 36h-110q-17 1 -17 17zM326 1173.5q-4 8.5 0 18.5l125 307q4 10 14 10h182q8 0 13.5 -8t-3.5 -18l-229 -309 q-8 -8 -18 -9h-70q-10 0 -14 8.5zM680 1173.5q-4 8.5 0 18.5l125 307q4 10 14 10h180q8 0 13.5 -8t-2.5 -18l-230 -309q-8 -8 -18 -9h-68q-10 0 -14 8.5z" />
<glyph unicode="&#xfc;" horiz-adv-x="1292" d="M20 971v69q0 16 17 17h362q16 0 17 -17v-551v-147q0 -68 15 -116t54 -74.5t119 -26.5q66 0 113 18.5t77.5 46t45 60.5t14.5 59q0 23 -1 39.5t-2 31.5t-2 31.5t-1 39.5v467q0 37 -37 36h-111q-16 0 -16 17v69q0 16 16 17h363q16 0 16 -17v-901q0 -37 37 -37h109 q16 0 16 -16v-70q0 -16 -16 -16h-334q-12 0 -17 16l-26 109q-63 -68 -141 -104.5t-201 -36.5q-100 0 -162.5 25.5t-97.5 67.5t-48.5 95t-13.5 107v639q0 37 -37 36h-110q-17 1 -17 17zM256 1354q0 53 36 88t87 35q53 0 88 -35t35 -88t-35 -88t-88 -35q-51 0 -87 35t-36 88z M715 1354q0 53 34.5 88t88.5 35q53 0 88 -35t35 -88t-35 -88t-88 -35t-88 35t-35 88z" />
<glyph unicode="&#xfd;" horiz-adv-x="1134" d="M16 971v69q0 16 17 17h475q16 0 16 -17v-69q0 -16 -16 -17h-127q-20 0 -24.5 -13t1.5 -30l271 -716l266 714q6 20 -4 32.5t-31 12.5h-117q-16 0 -16 17v69q0 16 16 17h359q16 0 16 -17v-69q0 -16 -16 -17h-31q-16 0 -27.5 -13t-19.5 -32l-379 -989q-84 -219 -183.5 -311 t-232.5 -92q-53 0 -89 5t-68 13q-10 2 -11.5 4t0.5 10l50 166q2 14 18 11q63 -23 117.5 -33t101.5 5t87 62t75 140l-397 1022q-12 33 -37 32h-43q-17 1 -17 17zM504 1173.5q-6 8.5 2 18.5l186 307q6 10 15 10h213q8 0 13 -8t-3 -18l-299 -309q-8 -8 -19 -9h-92 q-10 0 -16 8.5z" />
<glyph unicode="&#xfe;" horiz-adv-x="800" d="M10 971v69q0 16 17 17q49 0 88 8t68.5 38t47 86t23.5 152q0 16 16 17h125q16 0 17 -17v-247q0 -37 37 -37h260q16 0 16 -17v-69q0 -16 -16 -17h-297v-688q0 -43 14 -74.5t51 -50t101.5 -23.5t164.5 3q16 0 19 -12l8 -78q0 -16 -12 -21q-88 -12 -158 -19t-154 -7 q-137 0 -201.5 70.5t-64.5 248.5v651h-153q-17 1 -17 17zM283 -233q18 72 53 95t74 23q47 0 82.5 -27.5t35.5 -86.5q0 -72 -35.5 -130.5t-97.5 -117.5q-6 -8 -14 -6l-51 26q-10 6 -4 19q49 78 36 128t-79 77z" />
<glyph unicode="&#x163;" horiz-adv-x="800" d="M10 971v69q0 16 17 17q49 0 88 8t68.5 38t47 86t23.5 152q0 16 16 17h125q16 0 17 -17v-247q0 -37 37 -37h260q16 0 16 -17v-69q0 -16 -16 -17h-297v-688q0 -43 14 -74.5t51 -50t101.5 -23.5t164.5 3q16 0 19 -12l8 -78q0 -16 -12 -21q-88 -12 -158 -19t-154 -7 q-137 0 -201.5 70.5t-64.5 248.5v651h-153q-17 1 -17 17zM283 -233q18 72 53 95t74 23q47 0 82.5 -27.5t35.5 -86.5q0 -72 -35.5 -130.5t-97.5 -117.5q-6 -8 -14 -6l-51 26q-10 6 -4 19q49 78 36 128t-79 77z" />
<glyph unicode="&#xff;" horiz-adv-x="405" d="M61 1358q0 59 41 100t101 41q59 0 100 -41t41 -100t-41 -100t-100 -41t-100.5 41t-41.5 100z" />
<glyph unicode="&#x2d9;" horiz-adv-x="405" d="M61 1358q0 59 41 100t101 41q59 0 100 -41t41 -100t-41 -100t-100 -41t-100.5 41t-41.5 100z" />
<glyph unicode="&#x152;" horiz-adv-x="1271" d="M109 418q4 16 16 16h194q20 0 17 -16q-8 -76 2 -135.5t44 -101.5t92 -64.5t147 -22.5q86 0 143 23.5t92 60.5t49.5 85t14.5 97q0 53 -12.5 93.5t-47.5 73t-96.5 61t-159.5 57.5q-117 37 -205 71t-146 81t-88 117.5t-30 177.5q0 109 39 185.5t108.5 123.5t165 68.5 t207.5 21.5q125 0 222.5 -20.5t162 -68.5t92 -127t13.5 -196q-4 -16 -17 -16h-194q-16 0 -16 16q8 68 -1.5 123t-39 95t-85 61.5t-139.5 21.5q-127 0 -196.5 -57t-69.5 -176q0 -61 14.5 -100t50 -67t94 -49.5t144.5 -47.5q106 -33 195.5 -70t154 -87t100.5 -122t36 -176 q0 -111 -31 -194.5t-98.5 -139t-176 -83t-262.5 -27.5q-129 0 -229 23.5t-166 75.5t-93 135t-11 200zM481 1560.5q-6 8.5 2 18.5l189 254q6 10 18 10h228q8 0 14 -9t-4 -17l-312 -256q-4 -4 -8 -6.5t-10 -2.5h-100q-11 0 -17 8.5z" />
<glyph unicode="&#x15a;" horiz-adv-x="1271" d="M109 418q4 16 16 16h194q20 0 17 -16q-8 -76 2 -135.5t44 -101.5t92 -64.5t147 -22.5q86 0 143 23.5t92 60.5t49.5 85t14.5 97q0 53 -12.5 93.5t-47.5 73t-96.5 61t-159.5 57.5q-117 37 -205 71t-146 81t-88 117.5t-30 177.5q0 109 39 185.5t108.5 123.5t165 68.5 t207.5 21.5q125 0 222.5 -20.5t162 -68.5t92 -127t13.5 -196q-4 -16 -17 -16h-194q-16 0 -16 16q8 68 -1.5 123t-39 95t-85 61.5t-139.5 21.5q-127 0 -196.5 -57t-69.5 -176q0 -61 14.5 -100t50 -67t94 -49.5t144.5 -47.5q106 -33 195.5 -70t154 -87t100.5 -122t36 -176 q0 -111 -31 -194.5t-98.5 -139t-176 -83t-262.5 -27.5q-129 0 -229 23.5t-166 75.5t-93 135t-11 200zM481 1560.5q-6 8.5 2 18.5l189 254q6 10 18 10h228q8 0 14 -9t-4 -17l-312 -256q-4 -4 -8 -6.5t-10 -2.5h-100q-11 0 -17 8.5z" />
<glyph unicode="&#x153;" horiz-adv-x="1021" d="M86 291q0 16 16 16h185q20 0 16 -16q-16 -92 34 -148.5t148 -56.5q131 0 185.5 45t54.5 123q0 33 -10 57.5t-39 46t-80 41t-133 43.5q-102 31 -171 62t-111 70.5t-59.5 90t-17.5 119.5q0 78 33 132.5t91.5 89t137 51t169.5 16.5q104 0 181 -13t126 -45t70.5 -86.5 t13.5 -135.5q0 -16 -17 -17h-184q-20 0 -16 17q8 43 -3.5 76.5t-36 57t-61.5 37t-80 13.5q-100 0 -151 -36t-51 -114q0 -31 7 -55t31.5 -45.5t73.5 -43t133 -46.5q74 -20 140.5 -45t117 -61.5t81 -91t30.5 -134.5q0 -76 -24.5 -136t-78 -101t-139.5 -62.5t-206 -21.5 q-137 0 -221.5 23.5t-127.5 65.5t-54 98.5t-3 119.5zM391 1173.5q-6 8.5 2 18.5l187 307q6 10 14 10h213q8 0 13 -8t-3 -18l-299 -309q-8 -8 -18 -9h-92q-11 0 -17 8.5z" />
<glyph unicode="&#x15b;" horiz-adv-x="1021" d="M86 291q0 16 16 16h185q20 0 16 -16q-16 -92 34 -148.5t148 -56.5q131 0 185.5 45t54.5 123q0 33 -10 57.5t-39 46t-80 41t-133 43.5q-102 31 -171 62t-111 70.5t-59.5 90t-17.5 119.5q0 78 33 132.5t91.5 89t137 51t169.5 16.5q104 0 181 -13t126 -45t70.5 -86.5 t13.5 -135.5q0 -16 -17 -17h-184q-20 0 -16 17q8 43 -3.5 76.5t-36 57t-61.5 37t-80 13.5q-100 0 -151 -36t-51 -114q0 -31 7 -55t31.5 -45.5t73.5 -43t133 -46.5q74 -20 140.5 -45t117 -61.5t81 -91t30.5 -134.5q0 -76 -24.5 -136t-78 -101t-139.5 -62.5t-206 -21.5 q-137 0 -221.5 23.5t-127.5 65.5t-54 98.5t-3 119.5zM391 1173.5q-6 8.5 2 18.5l187 307q6 10 14 10h213q8 0 13 -8t-3 -18l-299 -309q-8 -8 -18 -9h-92q-11 0 -17 8.5z" />
<glyph unicode="&#x178;" horiz-adv-x="1050" d="M72 18v56l606 878h-303q-31 0 -55.5 -3t-43 -17t-27.5 -44t-9 -85v-60q0 -16 -17 -16h-123q-16 0 -16 16l8 306q0 16 17 16q66 -4 148.5 -6t160.5 -2h536q16 0 17 -19v-53l-609 -879h347q51 0 83.5 23t32.5 86v96q0 16 17 17h121q16 0 16 -17l-8 -295q0 -4 -5 -10t-12 -6 h-866q-16 0 -16 18zM397 1173.5q-6 8.5 2 18.5l187 307q6 10 14 10h213q8 0 13 -8t-3 -18l-299 -309q-8 -8 -18 -9h-92q-11 0 -17 8.5z" />
<glyph unicode="&#x17a;" horiz-adv-x="1050" d="M72 18v56l606 878h-303q-31 0 -55.5 -3t-43 -17t-27.5 -44t-9 -85v-60q0 -16 -17 -16h-123q-16 0 -16 16l8 306q0 16 17 16q66 -4 148.5 -6t160.5 -2h536q16 0 17 -19v-53l-609 -879h347q51 0 83.5 23t32.5 86v96q0 16 17 17h121q16 0 16 -17l-8 -295q0 -4 -5 -10t-12 -6 h-866q-16 0 -16 18zM397 1173.5q-6 8.5 2 18.5l187 307q6 10 14 10h213q8 0 13 -8t-3 -18l-299 -309q-8 -8 -18 -9h-92q-11 0 -17 8.5z" />
<glyph unicode="&#x2c6;" horiz-adv-x="937" d="M125 774l281 705l6 9q2 3 12 3h92q10 0 12 -3l7 -9l278 -705q8 -14 -8 -20l-94 -35q-14 -6 -23 8l-219 543l-219 -543q-6 -14 -23 -8l-94 35q-14 6 -8 20z" />
<glyph unicode="&#x2000;" horiz-adv-x="966" />
<glyph unicode="&#x2001;" horiz-adv-x="1935" />
<glyph unicode="&#x2002;" horiz-adv-x="966" />
<glyph unicode="&#x2003;" horiz-adv-x="1935" />
<glyph unicode="&#x2004;" horiz-adv-x="645" />
<glyph unicode="&#x2005;" horiz-adv-x="483" />
<glyph unicode="&#x2006;" horiz-adv-x="321" />
<glyph unicode="&#x2007;" horiz-adv-x="321" />
<glyph unicode="&#x2008;" horiz-adv-x="241" />
<glyph unicode="&#x2009;" horiz-adv-x="387" />
<glyph unicode="&#x200a;" horiz-adv-x="106" />
<glyph unicode="&#x2010;" horiz-adv-x="647" d="M61 487v125q0 16 17 17h491q16 0 17 -17v-125q0 -16 -17 -16h-491q-17 0 -17 16z" />
<glyph unicode="&#x2011;" horiz-adv-x="647" d="M61 487v125q0 16 17 17h491q16 0 17 -17v-125q0 -16 -17 -16h-491q-17 0 -17 16z" />
<glyph unicode="&#x2012;" horiz-adv-x="647" d="M61 487v125q0 16 17 17h491q16 0 17 -17v-125q0 -16 -17 -16h-491q-17 0 -17 16z" />
<glyph unicode="&#x2013;" horiz-adv-x="995" d="M61 487v125q0 16 17 17h840q16 0 16 -17v-125q0 -16 -16 -16h-840q-17 0 -17 16z" />
<glyph unicode="&#x2014;" horiz-adv-x="1595" d="M61 487v125q0 16 17 17h1440q16 0 16 -17v-125q0 -16 -16 -16h-1440q-17 0 -17 16z" />
<glyph unicode="&#x2018;" horiz-adv-x="530" d="M123 1221q0 49 15.5 102t42 106.5t59 105.5t67.5 99q12 18 25 6l49 -24q12 -6 4 -25q-43 -88 -57.5 -152.5t-7 -113.5t36 -85t71.5 -66q-12 -51 -30.5 -82t-41 -48.5t-46 -22.5t-46.5 -5q-55 0 -98 52.5t-43 152.5z" />
<glyph unicode="&#x2019;" horiz-adv-x="530" d="M102 1489q12 51 32 82t41.5 48t46 22.5t44.5 5.5q57 0 99.5 -53.5t42.5 -151.5q0 -49 -15.5 -101.5t-41 -106.5t-58.5 -106.5t-68 -99.5q-10 -16 -26 -8l-47 27q-14 6 -7 24q43 86 58.5 150.5t7.5 113.5t-37 86t-72 68z" />
<glyph unicode="&#x201a;" horiz-adv-x="530" d="M102 131q12 51 32 82t41.5 48.5t46 22.5t44.5 5q57 0 99.5 -52.5t42.5 -152.5q0 -49 -15.5 -102.5t-41 -106.5t-58.5 -105.5t-68 -99.5q-10 -16 -26 -8l-47 27q-14 6 -7 24q43 88 58.5 152.5t7.5 114t-37 85t-72 66.5z" />
<glyph unicode="&#x201c;" horiz-adv-x="897" d="M123 1221q0 49 15.5 102t42 106.5t59 105.5t67.5 99q12 18 25 6l49 -24q12 -6 4 -25q-43 -88 -57.5 -152.5t-7 -113.5t36 -85t71.5 -66q-12 -51 -30.5 -82t-41 -48.5t-46 -22.5t-46.5 -5q-55 0 -98 52.5t-43 152.5zM489 1221q0 49 15.5 102t41 106.5t58.5 105.5t68 99 q14 16 26 6l50 -24q12 -6 4 -25q-43 -88 -58.5 -152.5t-7.5 -113.5t37 -85t72 -66q-12 -51 -32 -82t-41.5 -48.5t-45 -22.5t-45.5 -5q-55 0 -98.5 52.5t-43.5 152.5z" />
<glyph unicode="&#x201d;" horiz-adv-x="897" d="M102 1489q12 51 32 82t41.5 48t46 22.5t44.5 5.5q57 0 99.5 -53.5t42.5 -151.5q0 -49 -15.5 -101.5t-41 -106.5t-58.5 -106.5t-68 -99.5q-10 -16 -26 -8l-47 27q-14 6 -7 24q43 86 58.5 150.5t7.5 113.5t-37 86t-72 68zM469 1489q12 51 30.5 82t41 48t47 22.5t45.5 5.5 q55 0 98 -53.5t43 -151.5q0 -49 -15.5 -101.5t-41 -106.5t-58 -106.5t-67.5 -99.5q-12 -14 -27 -8l-49 27q-12 6 -4 24q43 86 58.5 150.5t7 113.5t-37 86t-71.5 68z" />
<glyph unicode="&#x201e;" horiz-adv-x="897" d="M102 131q12 51 32 82t41.5 48.5t46 22.5t44.5 5q57 0 99.5 -52.5t42.5 -152.5q0 -49 -15.5 -102.5t-41 -106.5t-58.5 -105.5t-68 -99.5q-10 -16 -26 -8l-47 27q-14 6 -7 24q43 88 58.5 152.5t7.5 114t-37 85t-72 66.5zM469 131q12 51 30.5 82t41 48.5t47 22.5t45.5 5 q55 0 98 -52.5t43 -152.5q0 -49 -15.5 -102.5t-41 -106.5t-58 -105.5t-67.5 -99.5q-12 -14 -27 -8l-49 27q-12 6 -4 24q43 88 58.5 152.5t7 114t-37 85t-71.5 66.5z" />
<glyph unicode="&#x2022;" horiz-adv-x="745" d="M102 743q0 55 21.5 104.5t58.5 86.5t86 58.5t105 21.5q55 0 104 -21.5t86 -58.5t58.5 -86t21.5 -105q0 -55 -21.5 -104t-58.5 -86t-86 -58.5t-104 -21.5t-104.5 21.5t-86.5 58.5t-58.5 86t-21.5 104z" />
<glyph unicode="&#x2026;" horiz-adv-x="2080" d="M123 154q0 70 49 119t121 49q70 0 119 -49.5t49 -118.5q0 -72 -49.5 -121t-118.5 -49q-72 0 -121 49t-49 121zM870 154q0 70 50.5 119t119.5 49q72 0 121 -49.5t49 -118.5q0 -72 -49 -121t-121 -49q-70 0 -120 49t-50 121zM1620 154q0 70 49 119t121 49q70 0 119 -49.5 t49 -118.5q0 -72 -49 -121t-119 -49q-72 0 -121 49t-49 121z" />
<glyph unicode="&#x202f;" horiz-adv-x="387" />
<glyph unicode="&#x2039;" horiz-adv-x="755" d="M102 532v74q0 14 11 23l456 401q12 8 25 -4l55 -55q10 -10 0 -21l-327 -381l325 -379q12 -12 4 -20l-57 -57q-12 -12 -25 -4l-456 401q-11 8 -11 22z" />
<glyph unicode="&#x203a;" horiz-adv-x="757" d="M106 170q-8 8 5 20l327 379l-329 381q-10 10 0 21l57 55q12 12 24 4l455 -401q10 -8 10 -23v-74q0 -14 -10 -22l-455 -401q-12 -8 -24 4z" />
<glyph unicode="&#x205f;" horiz-adv-x="483" />
<glyph unicode="&#x20ac;" horiz-adv-x="1476" d="M102 528v90q0 16 17 17h106v164h-106q-16 0 -17 16v90q0 16 17 17h119q31 281 180 425t452 144q258 0 381 -104.5t123 -309.5q0 -16 -16 -16h-195q-16 0 -16 16q0 141 -62.5 220t-212.5 79q-98 0 -166.5 -31.5t-111.5 -90t-65.5 -143.5t-28.5 -189h561q8 0 14 -7.5 t0 -17.5l-51 -88q-4 -10 -16 -10h-514v-164h434q8 0 14 -7t0 -18l-49 -88q-4 -10 -16 -10h-373q6 -94 24.5 -171t55.5 -131t97 -83t153 -29q98 0 158.5 26t95 69t47 97t12.5 109q0 16 16 17h195q16 0 16 -17q0 -84 -25.5 -159.5t-90 -132t-174 -90t-279.5 -33.5 q-139 0 -240.5 33.5t-169 100t-105.5 165t-52 229.5h-119q-17 0 -17 16z" />
<glyph unicode="&#x2122;" horiz-adv-x="1499" d="M61 1395v73q0 6 7 7h499q8 0 8 -7v-73q0 -6 -8 -6h-188v-523q0 -6 -8 -6h-109q-6 0 -6 6v523h-188q-7 0 -7 6zM727 866v602q0 6 4 7h182q4 0 4.5 -2.5t2.5 -4.5q16 -53 29.5 -96t29.5 -88l86 -244l90 250q16 47 29.5 83t29.5 95q6 6 13 7h164q6 0 6 -7v-602q0 -6 -6 -6 h-109q-8 0 -8 6v498l-115 -313q-16 -47 -31.5 -90t-27.5 -97q-2 -2 -9.5 -3t-9.5 -1h-77q-4 0 -9 6q-12 51 -28.5 96.5t-30.5 86.5l-119 327v-510q0 -6 -6 -6h-80q-4 0 -4 6z" />
<glyph unicode="&#xe000;" horiz-adv-x="1055" d="M0 1055h1055v-1055h-1055v1055z" />
<glyph unicode="&#xfb01;" horiz-adv-x="1363" d="M92 16v70q0 16 17 16h110q37 0 37 37v815h-147q-16 0 -17 17v69q0 16 17 17h147v114q0 215 119 318.5t389 103.5q115 0 189.5 -21.5t119.5 -64.5t60.5 -104.5t9.5 -140.5q0 -18 -19 -19h-188q-16 0 -16 17q4 47 -0.5 89t-26 75.5t-66.5 53t-122 19.5q-74 0 -119 -15.5 t-72 -42t-36 -62.5t-9 -74q0 -43 9 -81t9 -81v-84h648q16 0 16 -17v-901q0 -37 37 -37h108q16 0 17 -16v-70q0 -16 -17 -16h-505q-16 0 -17 16v70q0 16 17 16h92q37 0 37 37v779q0 37 -37 36h-396v-815q0 -37 37 -37h90q16 0 17 -16v-70q0 -16 -17 -16h-505q-17 0 -17 16z " />
<glyph unicode="&#xfb02;" horiz-adv-x="1363" d="M92 16v70q0 16 17 16h110q37 0 37 37v815h-147q-16 0 -17 17v69q0 16 17 17h147v114q0 213 119 317.5t389 104.5q47 0 100.5 -2t103.5 -5t94 -6t73 -3q16 0 16 -16v-1422q0 -37 37 -37h108q16 0 17 -16v-70q0 -16 -17 -16h-505q-16 0 -17 16v70q0 16 17 16h92q37 0 37 37 v1278q0 20 -9.5 29.5t-21.5 13.5q-23 10 -66 23.5t-118 13.5q-72 0 -118 -15.5t-72 -42t-36 -61.5t-10 -71q0 -47 9 -85t9 -81v-84h209q16 0 17 -17v-69q0 -16 -17 -17h-209v-815q0 -37 37 -37h90q16 0 17 -16v-70q0 -16 -17 -16h-505q-17 0 -17 16z" />
<glyph unicode="&#xfb03;" horiz-adv-x="2129" d="M1522 16v70q0 16 17 16h110q37 0 37 37v779q0 37 -37 36h-110q-16 0 -17 17v69q0 16 17 17h362q16 0 16 -17v-901q0 -37 37 -37h109q16 0 16 -16v-70q0 -16 -16 -16h-524q-17 0 -17 16zM1645 1358q0 59 41 100t100 41t100.5 -41t41.5 -100t-41 -100t-101 -41 q-59 0 -100 41t-41 100zM766 16v70q0 16 17 16h110q37 0 37 37v815h-147q-16 0 -17 17v69q0 16 17 17h147v205q0 176 99.5 253.5t273.5 77.5q102 0 161.5 -25.5t89 -67.5t34.5 -95q2 -24 3 -48q0 -29 -4 -59q0 -16 -18 -16h-152q-20 0 -16 16q5 32 5 60q0 48 -15 86 q-25 59 -115 59q-84 0 -113.5 -42t-29.5 -105q0 -72 14 -123t14 -105v-71h195q16 0 16 -17v-69q0 -16 -16 -17h-195v-815q0 -37 37 -37h146q16 0 16 -16v-70q0 -16 -16 -16h-561q-17 0 -17 16zM51 16v70q0 16 17 16h110q37 0 37 37v815h-147q-16 0 -17 17v69q0 16 17 17h147 v205q0 176 99.5 253.5t273.5 77.5q102 0 161.5 -25.5t89 -67.5t34.5 -95q2 -24 3 -48q0 -29 -4 -59q0 -16 -18 -16h-152q-20 0 -16 16q5 32 5 60q0 48 -15 86q-25 59 -115 59q-84 0 -113.5 -42t-29.5 -105q0 -72 14 -123t14 -105v-71h195q16 0 16 -17v-69q0 -16 -16 -17 h-195v-815q0 -37 37 -37h146q16 0 16 -16v-70q0 -16 -16 -16h-561q-17 0 -17 16z" />
<glyph unicode="&#xfb04;" horiz-adv-x="2088" d="M1481 16v70q0 16 17 16h110q37 0 37 37v1299q0 37 -37 37h-110q-16 0 -17 16v70q0 16 17 16h362q16 0 16 -16v-1422q0 -37 37 -37h109q16 0 16 -16v-70q0 -16 -16 -16h-524q-17 0 -17 16zM766 16v70q0 16 17 16h110q37 0 37 37v815h-147q-16 0 -17 17v69q0 16 17 17h147 v205q0 176 99.5 253.5t273.5 77.5q102 0 161.5 -25.5t89 -67.5t34.5 -95q2 -24 3 -48q0 -29 -4 -59q0 -16 -18 -16h-152q-20 0 -16 16q5 32 5 60q0 48 -15 86q-25 59 -115 59q-84 0 -113.5 -42t-29.5 -105q0 -72 14 -123t14 -105v-71h195q16 0 16 -17v-69q0 -16 -16 -17 h-195v-815q0 -37 37 -37h146q16 0 16 -16v-70q0 -16 -16 -16h-561q-17 0 -17 16zM51 16v70q0 16 17 16h110q37 0 37 37v815h-147q-16 0 -17 17v69q0 16 17 17h147v205q0 176 99.5 253.5t273.5 77.5q102 0 161.5 -25.5t89 -67.5t34.5 -95q2 -24 3 -48q0 -29 -4 -59 q0 -16 -18 -16h-152q-20 0 -16 16q5 32 5 60q0 48 -15 86q-25 59 -115 59q-84 0 -113.5 -42t-29.5 -105q0 -72 14 -123t14 -105v-71h195q16 0 16 -17v-69q0 -16 -16 -17h-195v-815q0 -37 37 -37h146q16 0 16 -16v-70q0 -16 -16 -16h-561q-17 0 -17 16z" />
</font>
</defs>
</svg>
